<?xml version="1.0" standalone="no"?>
<!DOCTYPE svg PUBLIC "-//W3C//DTD SVG 1.1//EN" "http://www.w3.org/Graphics/SVG/1.1/DTD/svg11.dtd" >
<svg xmlns="http://www.w3.org/2000/svg" xmlns:xlink="http://www.w3.org/1999/xlink" version="1.1">
<metadata>
Created by FontForge 20200427 at Fri Nov 16 00:13:20 2012
 By www
Copyright 2012 Adobe Systems Incorporated. All rights reserved.
</metadata>
<defs>
<font id="Novecento-WideDemiBold" horiz-adv-x="698" >
  <font-face 
    font-family="Novecento Wide DemiBold"
    font-weight="600"
    font-stretch="normal"
    units-per-em="1000"
    panose-1="0 0 0 0 0 0 0 0 0 0"
    ascent="843"
    descent="-157"
    x-height="700"
    cap-height="700"
    bbox="-229 -278 1312 963"
    underline-thickness="125"
    underline-position="-316"
    unicode-range="U+0020-25CA"
  />
<missing-glyph horiz-adv-x="666" 
d="M84 85v530v-1q0 40 24 63q25 23 61 23h330q38 0 61 -22q24 -22 24 -63v-530q0 -42 -24 -63t-61 -21h-330q-37 0 -61 21t-24 63zM180 20h306h1q37 0 56 17q18 17 18 59v508q0 42 -21 59q-22 17 -64 17h-286q-47 0 -66 -17q-18 -17 -18 -59v-508q0 -42 20 -59t54 -17z
M459 561l92 -93l-125 -125l125 -126l-93 -92l-125 125l-124 -124l-93 93l124 124l-124 124l92 92l125 -123z" />
    <glyph glyph-name=".notdef" horiz-adv-x="666" 
d="M84 85v530v-1q0 40 24 63q25 23 61 23h330q38 0 61 -22q24 -22 24 -63v-530q0 -42 -24 -63t-61 -21h-330q-37 0 -61 21t-24 63zM180 20h306h1q37 0 56 17q18 17 18 59v508q0 42 -21 59q-22 17 -64 17h-286q-47 0 -66 -17q-18 -17 -18 -59v-508q0 -42 20 -59t54 -17z
M459 561l92 -93l-125 -125l125 -126l-93 -92l-125 125l-124 -124l-93 93l124 124l-124 124l92 92l125 -123z" />
    <glyph glyph-name=".null" horiz-adv-x="0" 
 />
    <glyph glyph-name="nonmarkingreturn" horiz-adv-x="333" 
 />
    <glyph glyph-name="space" unicode=" " horiz-adv-x="250" 
 />
    <glyph glyph-name="exclam" unicode="!" horiz-adv-x="305" 
d="M83 219v481h139v-481h-139zM83 0v157h139v-157h-139z" />
    <glyph glyph-name="quotedbl" unicode="&#x22;" horiz-adv-x="547" 
d="M83 483v217h131v-217h-131zM333 483v217h131v-217h-131z" />
    <glyph glyph-name="numbersign" unicode="#" horiz-adv-x="908" 
d="M815 431h-107l-81 -163h107l-63 -120h-103l-73 -148h-145l76 148h-160l-73 -148h-144l76 148h-97l63 120h95l83 163h-97l64 121h95l76 148h133l-73 -148h165l76 148h133l-73 -148h110zM487 268l83 163h-163l-81 -163h161z" />
    <glyph glyph-name="dollar" unicode="$" horiz-adv-x="608" 
d="M571 524l-134 -37l-6 5q-6 24 -20 45q-13 19 -32 33t-41 20t-45 6q-47 0 -76 -21q-28 -21 -28 -52q0 -20 14 -36q14 -15 37 -27q21 -10 54 -22l63 -21q32 -10 77 -31q42 -19 71 -43q31 -25 51 -60t20 -81q0 -80 -54 -135q-55 -56 -145 -71v-82h-139v83q-82 15 -138 68
q-55 52 -79 132l134 36q6 -25 19 -46q14 -23 33 -39t47 -27q26 -10 60 -10q58 0 86 24q29 24 29 59q0 28 -16 45q-16 18 -43 31q-26 13 -62 24q-34 10 -72 24q-26 8 -64 26q-34 16 -60 37q-27 23 -45 54t-18 78q0 33 14 66q13 31 39 57q27 27 60 44q34 18 78 27v82h139v-85
q72 -18 123 -66t69 -114z" />
    <glyph glyph-name="percent" unicode="%" horiz-adv-x="884" 
d="M190 302v-1q-40 0 -73 15t-57 42q-23 26 -37 64q-13 36 -13 81t13 81q14 39 37 65q24 27 57 42t73 15t73 -15q34 -15 56 -42q23 -27 36 -64q13 -36 13 -81t-13 -81q-13 -37 -36 -64q-22 -27 -56 -42q-33 -15 -73 -15zM149 -1l494 699h91l-493 -699h-92zM190 396v-1
q20 0 36 9t27 24q11 16 17 35t6 42q0 45 -23 77t-62 32t-62 -32t-23 -77q0 -23 6 -42q5 -17 17 -34q10 -14 26 -24q15 -9 35 -9zM695 -8q-39 0 -73 14q-33 15 -57 42q-23 26 -37 64q-13 36 -13 81t13 81q14 38 37 64q24 27 57 42t73 15t73 -15q34 -15 56 -42q23 -27 36 -64
q13 -36 13 -81t-13 -81q-13 -37 -36 -64q-22 -27 -56 -42q-34 -14 -73 -14zM695 86v-1q19 0 36 9t27 24q11 16 17 35t6 42t-6 42t-17 35q-10 15 -27 24t-36 9q-20 0 -35 -9q-16 -10 -26 -24q-11 -16 -17 -35t-6 -42t6 -42q5 -17 17 -34q10 -14 26 -24q15 -9 35 -9z" />
    <glyph glyph-name="ampersand" unicode="&#x26;" horiz-adv-x="709" 
d="M702 415v-109l-129 -7v-67q0 -52 -15 -97q-15 -46 -48 -80q-33 -35 -85 -54q-55 -19 -126 -19q-59 0 -108 15q-48 13 -84 43q-35 28 -54 69q-19 39 -19 90q0 30 11 58q11 27 30 48q19 20 45 34q26 13 54 18v1q-22 3 -43 13t-42 29q-20 19 -32 45q-12 27 -12 62
q0 41 15 78t47 66q31 29 78 45q48 17 106 17q101 0 166 -52q66 -53 87 -145l-117 -33q-16 56 -47 85q-29 28 -86 28q-30 0 -50 -9t-32 -23q-11 -12 -16 -29q-4 -13 -4 -28q0 -38 29 -65t89 -27h392zM446 245v60l-145 1q-61 0 -95 -26q-33 -26 -33 -72q0 -44 36 -73
q35 -28 92 -28q75 0 110 33t35 105z" />
    <glyph glyph-name="quotesingle" unicode="'" horiz-adv-x="297" 
d="M83 483v217h131v-217h-131z" />
    <glyph glyph-name="parenleft" unicode="(" horiz-adv-x="383" 
d="M324 831l36 -132v-4q-100 -31 -142 -119q-42 -87 -42 -235t42 -235q43 -88 142 -118l-36 -131q-40 13 -90 42t-93 84q-43 53 -73 141q-30 87 -30 219t30 219q31 89 73 143q43 55 93 84t90 42z" />
    <glyph glyph-name="parenright" unicode=")" horiz-adv-x="383" 
d="M23 699l36 132l-1 1q29 -10 59 -24q33 -16 63 -40q34 -28 62 -61q31 -37 53 -87q22 -51 36 -119q14 -70 14 -156q0 -132 -30 -219q-30 -88 -73 -141q-44 -55 -93 -84t-90 -42l-36 131q99 30 142 118q42 87 42 236t-42 236q-42 88 -142 119z" />
    <glyph glyph-name="asterisk" unicode="*" horiz-adv-x="513" 
d="M403 624l27 -84l-105 -30l67 -89l-72 -53l-64 93l-62 -93l-73 53l67 89l-105 30l27 84l102 -34v110h87v-110z" />
    <glyph glyph-name="plus" unicode="+" 
d="M578 412v-114h-167v-173h-122v173h-168v114h167v171h122v-171h168z" />
    <glyph glyph-name="comma" unicode="," horiz-adv-x="258" 
d="M113 -10l13 4l-16 -1q-19 1 -36 17q-17 17 -17 45q0 29 21 48q22 20 50 20t48 -21q20 -22 20 -56q0 -23 -8 -47t-21 -48q-13 -22 -32 -45t-39 -38h-52q12 9 24 24q13 16 23 32q9 14 16 35q6 18 6 31z" />
    <glyph glyph-name="hyphen" unicode="-" horiz-adv-x="622" 
d="M83 412h456v-114h-456v114z" />
    <glyph glyph-name="period" unicode="." horiz-adv-x="258" 
d="M129 -11q-27 0 -48 19q-20 20 -20 48t20 48t48 20t48 -20t20 -48t-20 -48q-21 -19 -48 -19z" />
    <glyph glyph-name="slash" unicode="/" horiz-adv-x="503" 
d="M6 0l358 700h133l-346 -700h-145z" />
    <glyph glyph-name="zero" unicode="0" horiz-adv-x="717" 
d="M357 712v-2q74 0 135 -29t101 -78q41 -50 63 -115t22 -141t-22 -141t-63 -115q-40 -49 -101 -78q-62 -28 -135 -28t-135 28q-60 29 -102 78t-63 116q-21 66 -21 141t21 141q21 67 63 116t102 78q61 29 135 29zM358 577l-1 -2q-45 0 -78 -18t-54 -48q-22 -31 -32 -72
q-10 -40 -10 -88q0 -44 11 -88q10 -40 32 -73q20 -31 54 -49q33 -18 78 -18t78 18q34 18 54 49q22 33 32 73q11 44 11 89t-11 89q-10 41 -32 72q-21 30 -54 48t-78 18z" />
    <glyph glyph-name="one" unicode="1" horiz-adv-x="450" 
d="M270 700h97l-2 -699h-139v383v38q0 14 2 36q1 11 1 27v11h-1l-5 -6q-3 -3 -13 -15q-3 -3 -8.5 -9.5t-8.5 -9.5q-12 -14 -19 -21l-50 -50l-86 83z" />
    <glyph glyph-name="two" unicode="2" horiz-adv-x="599" 
d="M178 488l-128 34l-4 -5q14 44 37 79t57 61q33 25 75 39q44 14 92 14q54 0 102 -17q45 -16 79 -47q33 -30 51 -71t18 -89q0 -53 -16 -89q-17 -39 -42 -68q-25 -30 -57 -54q-42 -32 -63 -47l-51 -36q-10 -7 -26 -18.5t-20 -14.5q-28 -20 -34 -24l-13 -9l1 -1l5 1
q5 0 16 0.5t23 0.5q56 2 116 2h161v-129h-505v113q100 86 149 129t149 129q29 25 48 56q18 30 18 62q0 42 -30 72t-81 30q-28 0 -49 -9t-36 -24q-16 -16 -26 -33t-16 -37z" />
    <glyph glyph-name="three" unicode="3" horiz-adv-x="608" 
d="M175 487l-125 34l-4 -7q22 88 92 141q68 52 170 52q63 0 108 -16q47 -17 78 -43q32 -27 48 -63q16 -35 16 -77q0 -36 -13 -62q-13 -27 -34 -46q-21 -20 -46 -30t-48 -12v-1q30 0 56 -10q27 -11 48 -30q20 -19 34 -48q13 -27 13 -66q0 -51 -19 -90q-19 -41 -54 -69
q-36 -30 -82 -44q-47 -16 -103 -16q-50 0 -95 15q-43 13 -81 40q-34 24 -61 62q-26 36 -36 79l126 35q12 -49 49 -77q38 -29 93 -29q54 0 86 28q33 29 33 75q0 44 -33 68t-90 24h-60v110h60q57 0 85 24t28 66q0 35 -28 60q-29 26 -84 26q-51 0 -80 -25q-31 -26 -47 -78z" />
    <glyph glyph-name="four" unicode="4" horiz-adv-x="648" 
d="M611 265v-121h-82v-143h-131v143h-358v103l376 454h113v-436h82zM291 264h105l2 86v57v51v38l1 15h-1l-7 -9q-13 -16 -18 -22q-3 -4 -22 -30q-12 -16 -24 -30l-86 -101q-22 -27 -35 -41l-11 -13v-1h33h63z" />
    <glyph glyph-name="five" unicode="5" horiz-adv-x="609" 
d="M209 428l1 -1l1 -2q10 10 38 21q26 10 65 10q54 0 102 -17q46 -17 81 -48q35 -32 54 -73q20 -43 20 -93q0 -54 -19 -96q-19 -43 -54 -76q-34 -33 -81 -51q-48 -17 -102 -17q-52 0 -97 15q-45 14 -78 39q-35 27 -56 58q-22 32 -31 69l127 34q4 -18 15 -36q9 -16 26 -31
q15 -13 38 -21q24 -8 51 -8q52 0 87 35q34 34 34 89q0 28 -9 50t-26 39q-16 16 -39 25t-48 9q-29 0 -48 -6t-33 -15q-13 -9 -21 -20q-7 -10 -12 -21l-120 33l62 378h390v-130h-288l-8 -43q-12 -60 -16 -75q-6 -22 -6 -24z" />
    <glyph glyph-name="six" unicode="6" horiz-adv-x="601" 
d="M452 700l-199 -263l1 -1q10 10 29 21t54 11q57 0 101 -19t75 -53t47 -78q17 -46 17 -94q0 -52 -21 -96t-57 -75q-35 -30 -86 -49q-51 -17 -108 -17q-52 0 -105 16q-49 16 -85 48q-36 31 -57 77q-21 45 -21 102q0 40 9 74q9 33 24 67q15 33 36 66q20 32 47 68l148 195h151
zM312 108h-1q30 0 54 9q23 9 42 26q18 17 27 39t9 50q2 56 -36 89q-37 33 -96 33q-61 0 -96 -34q-36 -34 -36 -88q0 -56 37 -90t96 -34z" />
    <glyph glyph-name="seven" unicode="7" horiz-adv-x="569" 
d="M31 700h524l-3 -84l-347 -618h-149l240 422q10 18 32 54q16 27 30 48q18 28 22 34l9 13l-1 1h-10h-25h-32h-30h-260v130z" />
    <glyph glyph-name="eight" unicode="8" horiz-adv-x="607" 
d="M421 369v-1l-11 -2q28 -5 54 -19q28 -16 48 -37q20 -22 34 -52q13 -29 13 -67q0 -46 -19 -84q-19 -39 -55 -67q-37 -29 -84 -44q-47 -16 -106 -16q-57 0 -108 17q-49 15 -84 44t-54 67q-20 40 -20 84q0 36 14 67q13 30 35 53q21 22 48 36q27 13 53 18v1q-13 1 -33 14
q-22 13 -38 31t-31 47q-13 26 -13 62q0 39 18 74t49 60q30 25 75 40q44 15 94 15t94 -15q45 -15 75 -40q31 -25 49 -60t18 -73q0 -36 -13 -62q-15 -29 -31 -47t-38 -31q-19 -11 -33 -13zM189 519l-1 -3q0 -39 33 -63t84 -24q52 0 83 25q32 26 32 63q0 43 -33 68
q-34 26 -82 26q-52 0 -84 -26t-32 -66zM171 201l1 -1q0 -48 36 -77q37 -29 96 -29q61 0 97 30t36 77q0 48 -37 76t-96 28q-60 0 -97 -29q-36 -28 -36 -75z" />
    <glyph glyph-name="nine" unicode="9" horiz-adv-x="604" 
d="M119 -1l228 261l-3 2q-14 -16 -36 -24q-21 -7 -46 -7q-61 0 -105 19q-46 20 -75 52q-30 33 -45 77q-15 43 -15 93q0 55 21 100q21 44 57 76q36 31 86 48q51 17 108 17t105 -16q50 -17 86 -48t57 -78t21 -105q0 -62 -27 -130q-27 -67 -96 -148l-162 -189h-159zM292 591
l-2 -2q-57 0 -96 -33t-39 -91q0 -27 11 -51q11 -23 29 -38q19 -16 42 -23q26 -8 53 -8q58 0 96 33t38 89q0 32 -10 53q-11 23 -28 39q-18 17 -42 24q-26 8 -52 8z" />
    <glyph glyph-name="colon" unicode=":" horiz-adv-x="258" 
d="M129 285q-28 0 -48 20t-20 48t20 48t48 20t48 -20t20 -48t-20 -48t-48 -20zM129 -11q-27 0 -48 19q-20 20 -20 48t20 48t48 20t48 -20t20 -48t-20 -48q-21 -19 -48 -19z" />
    <glyph glyph-name="semicolon" unicode=";" horiz-adv-x="275" 
d="M142 282q-28 0 -48 20t-20 48t20 48t48 20t48 -20t20 -48t-20 -48t-48 -20zM129 -11l13 4l-16 -1q-19 1 -36 17q-17 17 -17 45t21 48q22 20 50 20t48 -21q20 -22 20 -56q0 -23 -8 -47t-21 -48q-13 -22 -32 -45t-39 -38h-52q12 9 24 24q13 16 23 32q9 14 16 35q6 18 6 31z
" />
    <glyph glyph-name="less" unicode="&#x3c;" 
d="M289 367l283 -245h-162l-295 245l295 244h162z" />
    <glyph glyph-name="equal" unicode="=" 
d="M121 515h457v-114h-457v114zM121 293h457v-114h-457v114z" />
    <glyph glyph-name="greater" unicode="&#x3e;" 
d="M126 122l283 245l-283 244h162l295 -244l-295 -245h-162z" />
    <glyph glyph-name="question" unicode="?" horiz-adv-x="584" 
d="M215 219v121l-7 -2q58 31 88 49q34 20 58 39q22 18 33 36q10 17 10 39q0 12 -5 29q-4 15 -17 29q-11 13 -33 22q-21 9 -52 9q-59 0 -91 -25q-33 -25 -49 -79l-117 33q22 89 92 142q68 52 170 52q63 0 108 -16q47 -17 78 -45q32 -29 48 -64t16 -78q0 -46 -16 -78
q-17 -35 -43 -59q-28 -26 -61 -45q-46 -26 -70 -39v-70h-140zM215 0v157h140v-157h-140z" />
    <glyph glyph-name="at" unicode="@" horiz-adv-x="800" 
d="M474 521h90l-3 -252q0 -31 11 -50q10 -18 36 -18q20 0 33 12t21 32q8 21 11 45q3 26 3 51q0 63 -21 117q-21 55 -58 93q-36 38 -89 61q-50 22 -112 22q-61 0 -111 -22q-51 -22 -88 -61q-37 -38 -58 -93q-21 -54 -21 -117q0 -61 21 -114q22 -54 58 -92t89 -61
q50 -22 111 -22q46 0 80 8q30 7 53 17q20 8 30 17q10 8 12 8l62 -31q0 -3 -14 -17t-42 -30q-30 -17 -74 -29q-43 -13 -106 -13q-77 0 -144 26q-66 27 -114 75t-75 114t-27 143q0 80 27 147t75 117q49 50 114 77q66 27 144 27q80 0 146 -27q67 -27 114 -76q48 -49 75 -117
t27 -147q0 -35 -9 -73t-28 -67t-50 -49q-29 -19 -74 -19q-41 0 -72 24t-39 60l-1 1q-6 -16 -18 -29t-28 -25q-15 -11 -36 -19q-18 -7 -39 -7q-39 0 -73 14q-33 14 -57 39q-23 24 -37 62q-13 35 -13 80q0 44 14 83q13 37 38 65q24 27 58 42t76 15q25 0 42 -7q19 -8 31 -16
q14 -10 20 -18q7 -11 8 -13h1v37zM476 335v22l-2 -5q2 28 -7 45q-9 18 -22 28q-13 11 -30 15q-18 5 -31 5q-16 0 -33 -6t-30 -19q-13 -14 -21 -33q-8 -21 -8 -47t9 -46q10 -21 22 -32q13 -12 30 -18t33 -6q14 0 29 6q16 6 29 18q13 11 22 30q10 20 10 43z" />
    <glyph glyph-name="A" unicode="A" horiz-adv-x="719" 
d="M561 -1l-52 133h-303l-52 -133h-150l288 699h131l288 -699h-150zM256 257h207l-71 175q-4 10 -12 32q-2 6 -10 32l-8 24l-3 10h-1l-3 -9l-8 -24q-6 -20 -10 -31q-8 -22 -12 -32z" />
    <glyph glyph-name="B" unicode="B" horiz-adv-x="656" 
d="M84 697h290l-3 -3q45 0 85 -14q37 -13 67 -38q28 -23 43 -57q15 -33 15 -71q0 -26 -9 -48q-10 -25 -22 -41q-13 -17 -30 -31q-16 -13 -35 -18v-1q26 -6 50 -21t44 -38q19 -21 31 -51q12 -29 12 -58q0 -43 -15 -82q-15 -38 -45 -67t-76 -45q-42 -15 -108 -15h-294v699z
M223 419h123v-1q43 0 70 24t27 58t-27 57q-28 23 -70 23h-123v-161zM222 118h142l1 -2q50 0 80 27t30 72t-32 72q-31 27 -80 27h-141v-196z" />
    <glyph glyph-name="C" unicode="C" horiz-adv-x="756" 
d="M719 529l-142 -37l-3 -4q-29 40 -76 62q-49 23 -100 23q-48 0 -90 -17q-40 -16 -69 -47t-44 -72q-15 -42 -15 -91q0 -50 17 -93t45 -71t69 -45q39 -16 87 -16q59 0 111 29t77 75l140 -37q-23 -48 -55 -84t-75 -64t-92 -41q-50 -15 -105 -15q-74 0 -141 26q-65 27 -115 75
q-49 48 -78 116q-28 66 -28 147q0 78 29 147q29 68 78 116t116 75q66 27 141 27q54 0 100 -13q49 -14 88 -37q43 -25 74 -58q35 -36 56 -76z" />
    <glyph glyph-name="D" unicode="D" horiz-adv-x="785" 
d="M81 700h302l-1 -2q76 0 141 -25t115 -72t78 -111q29 -66 29 -144q0 -79 -28 -142t-77 -109q-47 -44 -114 -70q-65 -25 -141 -25h-304v700zM222 130h165h-2q44 0 83 15t69 42t48 68t18 92t-18 92t-48 71t-69 45t-83 15h-163v-440z" />
    <glyph glyph-name="E" unicode="E" horiz-adv-x="652" 
d="M222 130h362v-130h-501v700h495v-130h-356v-149h281v-122h-281v-169z" />
    <glyph glyph-name="F" unicode="F" horiz-adv-x="603" 
d="M568 570h-346v-171h271v-125h-271v-274h-139v700h485v-130z" />
    <glyph glyph-name="G" unicode="G" horiz-adv-x="793" 
d="M614 73h-1l-3 -2q-13 -15 -36 -31q-22 -15 -51 -27q-26 -11 -60 -19q-29 -7 -66 -7q-74 0 -141 26q-65 27 -115 75q-49 48 -78 116q-28 66 -28 147q0 78 29 147q29 68 78 116t116 75q66 27 141 27q106 -2 188 -51q83 -50 131 -135l-142 -37q-29 40 -76 62q-49 23 -100 23
q-48 0 -90 -17q-40 -16 -69 -47t-44 -72q-15 -42 -15 -91q0 -51 17 -94q16 -41 47 -72q29 -29 72 -46q41 -16 91 -16q44 0 80 11q33 10 60 29q25 18 42 39q16 21 24 41v30h-194v113h313v-385h-120v57v15z" />
    <glyph glyph-name="H" unicode="H" horiz-adv-x="747" 
d="M525 700h139v-700h-139v289h-303v-289h-139v700h139v-280h303v280z" />
    <glyph glyph-name="I" unicode="I" horiz-adv-x="305" 
d="M222 0h-139v700h139v-700z" />
    <glyph glyph-name="J" unicode="J" horiz-adv-x="671" 
d="M464 700h139l1 -401q0 -78 -22 -135q-22 -58 -63 -99q-40 -40 -97 -61q-58 -20 -127 -20q-48 0 -95 14q-42 11 -81 37q-35 23 -64 57q-28 32 -43 72l137 37q19 -41 57 -63q37 -22 89 -22q81 0 125 48q44 49 44 134v402z" />
    <glyph glyph-name="K" unicode="K" horiz-adv-x="718" 
d="M694 0h-165l-231 314l-78 -78v-236h-139v700h139v-138q0 -97 -1 -121q-1 -36 0 -36h1q2 0 27 27q17 18 75 76l192 192h171l-293 -294z" />
    <glyph glyph-name="L" unicode="L" horiz-adv-x="588" 
d="M222 130h346v-130h-485v700h139v-570z" />
    <glyph glyph-name="M" unicode="M" horiz-adv-x="848" 
d="M634 700h131l-5 -700h-137v218q0 71 1 101q2 60 2 78v51l1 18h-1l-8 -14q-13 -24 -18 -32l-21 -36l-15 -25l-109 -188h-72l-109 188l-15 25l-21 36q-5 8 -18 32l-8 14h-1l1 -18q1 -7 1.5 -24.5t0.5 -26.5q2 -33 3 -78q1 -30 1 -100v-219h-137v700h131l145 -240
q4 -7 15.5 -26.5t16.5 -27.5q7 -12 20 -33q3 -4 6 -10t4 -7l3 -5h1l3 5q1 1 4 7t6 10q13 21 20 33q5 8 16.5 27.5t15.5 26.5z" />
    <glyph glyph-name="N" unicode="N" horiz-adv-x="776" 
d="M554 700h139l-2 -700h-131l-199 269q-24 31 -48 66t-45 63q-28 38 -34 47l-13 19h-1v-18v-50v-75v-96v-225h-139v699h131l203 -273l42 -56q28 -37 45 -61q21 -30 36 -51l15 -20h1v20v52v75v86v229z" />
    <glyph glyph-name="O" unicode="O" horiz-adv-x="803" 
d="M37 346l-3 -2q0 78 29 147q29 68 78 116t116 75q66 27 141 27t141 -27q67 -27 116 -75q50 -48 78 -115q29 -69 29 -147q0 -81 -28 -147q-28 -67 -78 -115q-49 -48 -116 -75q-67 -26 -141 -26t-141 26q-65 27 -115 75q-49 48 -78 116q-28 66 -28 147zM183 350l-1 -4
q0 -51 16 -92q16 -42 45 -72q28 -29 69 -46q39 -16 88 -16q47 0 89 17q40 16 69 47q28 30 45 72q16 41 16 92q0 52 -16 93q-17 42 -45 72q-29 31 -69 47q-42 17 -88 17q-49 0 -88 -16q-41 -17 -69 -46q-28 -30 -45 -72q-16 -41 -16 -93z" />
    <glyph glyph-name="P" unicode="P" horiz-adv-x="633" 
d="M83 699h250q65 0 113 -16q50 -17 84 -46q36 -31 53 -73q18 -44 18 -99t-18 -99t-53 -74q-34 -29 -84 -46q-48 -16 -113 -16h-111v-230h-139v699zM222 361h108v-1q63 0 95 28q33 28 33 78t-34 77t-94 27h-108v-209z" />
    <glyph glyph-name="Q" unicode="Q" horiz-adv-x="803" 
d="M329 -135v125l-2 -2q-67 13 -117 42q-54 32 -93 78q-38 45 -61 107q-22 59 -22 129q0 78 29 147q29 68 78 116t116 75q66 27 141 27t141 -27q67 -27 116 -75q50 -48 78 -115q29 -69 29 -147q0 -71 -22 -130q-22 -60 -62 -107q-39 -46 -93 -78q-52 -30 -117 -41v-124h-139
zM401 123l-1 -4q47 0 89 17q40 16 69 47q28 30 45 72q16 41 16 92q0 52 -16 93q-17 42 -45 72q-29 31 -69 47q-42 17 -88 17q-49 0 -88 -16q-41 -17 -69 -46q-28 -30 -45 -72q-16 -41 -16 -93q0 -51 16 -92q17 -42 45 -72q28 -29 69 -46q39 -16 88 -16z" />
    <glyph glyph-name="R" unicode="R" horiz-adv-x="666" 
d="M630 -1h-156l-138 238h-8h-106v-238h-139v699h245q67 0 116 -16q52 -17 86 -48q34 -32 54 -75q19 -42 19 -96q0 -73 -34 -123q-35 -52 -99 -77zM222 570v-207l123 -2q29 0 50 9q22 9 35 24q14 15 21 33q7 17 7 38q0 22 -7 39q-7 18 -21 33q-13 15 -35 24q-21 9 -49 9
h-124z" />
    <glyph glyph-name="S" unicode="S" horiz-adv-x="608" 
d="M571 524l-134 -37h-8q-6 24 -20 45q-13 19 -32 33t-41 20t-45 6q-47 0 -76 -21q-28 -21 -28 -52q0 -20 14 -36q14 -15 37 -27q21 -10 54 -22l63 -21q32 -10 77 -31q42 -19 71 -43q31 -26 51 -60q20 -35 20 -81q0 -48 -19 -86t-54 -67t-84 -44q-48 -16 -109 -16
q-112 0 -184 56q-74 57 -102 153l134 36q6 -25 19 -46q13 -23 33 -39q19 -16 47 -27q26 -10 60 -10q57 0 86 24t29 59q0 28 -16 45q-16 18 -43 31q-26 13 -62 24q-35 10 -72 24q-25 8 -64 26q-34 16 -60 37q-27 23 -45 54t-18 78q0 42 19 77q20 37 54 65q35 29 81 45
q45 16 102 16q48 0 93 -14q43 -14 78 -39q36 -26 59 -60q25 -36 35 -75z" />
    <glyph glyph-name="T" unicode="T" horiz-adv-x="605" 
d="M14 700h577v-130h-220v-570h-139v570h-218v130z" />
    <glyph glyph-name="U" unicode="U" horiz-adv-x="740" 
d="M532 700h140l-1 -397q0 -76 -21 -136q-21 -59 -60 -100q-38 -39 -95 -61q-57 -20 -125 -20t-125 20q-57 22 -95 61q-39 41 -60 100q-21 60 -21 137v396h139v-394q0 -97 41 -144q40 -46 122 -46q80 0 120 46q41 47 41 144v394z" />
    <glyph glyph-name="V" unicode="V" horiz-adv-x="719" 
d="M560 700h152l-282 -700h-148l-279 699h152l161 -424q14 -38 29 -87q10 -34 12 -34h1q1 0 12 35q10 35 30 87z" />
    <glyph glyph-name="W" unicode="W" horiz-adv-x="1027" 
d="M858 700h147l-220 -700h-129l-108 338q-19 59 -27 92q-8 32 -9 32h-1q-1 0 -7 -32q-7 -36 -25 -92l-108 -338h-130l-220 700h148l110 -378q13 -48 21 -78t9 -30h1q2 0 9 30t24 78l106 303h129l106 -303q16 -48 24 -78t9 -30h1q2 0 9 30t21 78z" />
    <glyph glyph-name="X" unicode="X" horiz-adv-x="682" 
d="M342 242h-1l-7 -14q-6 -10 -15 -24l-18 -27q-4 -6 -13 -21l-112 -158h-166l245 358l-231 341h167l108 -161q6 -8 11 -18q4 -8 12 -22q1 -2 5 -9t6 -10l5 -8h1l5 9q3 6 11 20q4 7 12 23q5 10 11 18l108 161h168l-232 -341l245 -359h-166l-112 159q-5 7 -12 21l-15 27
q-3 5 -8 13.5t-6 10.5z" />
    <glyph glyph-name="Y" unicode="Y" horiz-adv-x="701" 
d="M532 700h157l-272 -379v-321h-138v321l-269 379h156l144 -201q23 -33 26 -36q12 -15 13 -15h1q1 0 13 15q3 3 26 36z" />
    <glyph glyph-name="Z" unicode="Z" horiz-adv-x="705" 
d="M645 700v-130l-338 -382q-12 -13 -41 -45q-18 -19 -18 -21l1 -1l3 1q4 0 11.5 0.5t15.5 0.5q38 2 72 2h293v-129h-585v129l347 383q6 7 20 21q4 4 10.5 10t9.5 9l15 15l7 6l-1 1h-10h-25h-33h-35h-294v130h575z" />
    <glyph glyph-name="bracketleft" unicode="[" horiz-adv-x="373" 
d="M223 726v-746h134v-131h-274v1007h274v-130h-134z" />
    <glyph glyph-name="backslash" unicode="\" horiz-adv-x="503" 
d="M139 700l358 -700h-144l-347 700h133z" />
    <glyph glyph-name="bracketright" unicode="]" horiz-adv-x="376" 
d="M153 -20v746h-134v130h274v-1007h-274v131h134z" />
    <glyph glyph-name="asciicircum" unicode="^" horiz-adv-x="634" 
d="M551 477l-61 -55l-173 177l-172 -177l-62 55l234 235z" />
    <glyph glyph-name="underscore" unicode="_" horiz-adv-x="776" 
d="M83 0h610v-109h-610v109z" />
    <glyph glyph-name="grave" unicode="`" horiz-adv-x="316" 
d="M244 731l-238 103l48 95l231 -124z" />
    <glyph glyph-name="a" unicode="a" horiz-adv-x="719" 
d="M561 -1l-52 133h-303l-52 -133h-150l288 699h131l288 -699h-150zM256 257h207l-71 175q-4 10 -12 32q-2 6 -10 32l-8 24l-3 10h-1l-3 -9l-8 -24q-6 -20 -10 -31q-8 -22 -12 -32z" />
    <glyph glyph-name="b" unicode="b" horiz-adv-x="656" 
d="M84 697h290l-3 -3q45 0 85 -14q37 -13 67 -38q28 -23 43 -57q15 -33 15 -71q0 -26 -9 -48q-10 -25 -22 -41q-13 -17 -30 -31q-16 -13 -35 -18v-1q26 -6 50 -21t44 -38q19 -21 31 -51q12 -29 12 -58q0 -43 -15 -82q-15 -38 -45 -67t-76 -45q-42 -15 -108 -15h-294v699z
M223 419h123v-1q43 0 70 24t27 58t-27 57q-28 23 -70 23h-123v-161zM222 118h142l1 -2q50 0 80 27t30 72t-32 72q-31 27 -80 27h-141v-196z" />
    <glyph glyph-name="c" unicode="c" horiz-adv-x="756" 
d="M719 529l-142 -37l-3 -4q-29 40 -76 62q-49 23 -100 23q-48 0 -90 -17q-40 -16 -69 -47t-44 -72q-15 -42 -15 -91q0 -50 17 -93t45 -71t69 -45q39 -16 87 -16q59 0 111 29t77 75l140 -37q-23 -48 -55 -84t-75 -64t-92 -41q-50 -15 -105 -15q-74 0 -141 26q-65 27 -115 75
q-49 48 -78 116q-28 66 -28 147q0 78 29 147q29 68 78 116t116 75q66 27 141 27q54 0 100 -13q49 -14 88 -37q43 -25 74 -58q35 -36 56 -76z" />
    <glyph glyph-name="d" unicode="d" horiz-adv-x="785" 
d="M81 700h302l-1 -2q76 0 141 -25t115 -72t78 -111q29 -66 29 -144q0 -79 -28 -142t-77 -109q-47 -44 -114 -70q-65 -25 -141 -25h-304v700zM222 130h165h-2q44 0 83 15t69 42t48 68t18 92t-18 92t-48 71t-69 45t-83 15h-163v-440z" />
    <glyph glyph-name="e" unicode="e" horiz-adv-x="652" 
d="M222 130h362v-130h-501v700h495v-130h-356v-149h281v-122h-281v-169z" />
    <glyph glyph-name="f" unicode="f" horiz-adv-x="603" 
d="M568 570h-346v-171h271v-125h-271v-274h-139v700h485v-130z" />
    <glyph glyph-name="g" unicode="g" horiz-adv-x="793" 
d="M614 73h-1l-3 -2q-13 -15 -36 -31q-22 -15 -51 -27q-26 -11 -60 -19q-29 -7 -66 -7q-74 0 -141 26q-65 27 -115 75q-49 48 -78 116q-28 66 -28 147q0 78 29 147q29 68 78 116t116 75q66 27 141 27q106 -2 188 -51q83 -50 131 -135l-142 -37q-29 40 -76 62q-49 23 -100 23
q-48 0 -90 -17q-40 -16 -69 -47t-44 -72q-15 -42 -15 -91q0 -51 17 -94q16 -41 47 -72q29 -29 72 -46q41 -16 91 -16q44 0 80 11q33 10 60 29q25 18 42 39q16 21 24 41v30h-194v113h313v-385h-120v57v15z" />
    <glyph glyph-name="h" unicode="h" horiz-adv-x="747" 
d="M525 700h139v-700h-139v289h-303v-289h-139v700h139v-280h303v280z" />
    <glyph glyph-name="i" unicode="i" horiz-adv-x="305" 
d="M222 0h-139v700h139v-700z" />
    <glyph glyph-name="j" unicode="j" horiz-adv-x="671" 
d="M464 700h139l1 -401q0 -78 -22 -135q-22 -58 -63 -99q-40 -40 -97 -61q-58 -20 -127 -20q-48 0 -95 14q-42 11 -81 37q-35 23 -64 57q-28 32 -43 72l137 37q19 -41 57 -63q37 -22 89 -22q81 0 125 48q44 49 44 134v402z" />
    <glyph glyph-name="k" unicode="k" horiz-adv-x="718" 
d="M694 0h-165l-231 314l-78 -78v-236h-139v700h139v-138q0 -97 -1 -121q-1 -36 0 -36h1q2 0 27 27q17 18 75 76l192 192h171l-293 -294z" />
    <glyph glyph-name="l" unicode="l" horiz-adv-x="588" 
d="M222 130h346v-130h-485v700h139v-570z" />
    <glyph glyph-name="m" unicode="m" horiz-adv-x="848" 
d="M634 700h131l-5 -700h-137v218q0 71 1 101q2 60 2 78v51l1 18h-1l-8 -14q-13 -24 -18 -32l-21 -36l-15 -25l-109 -188h-72l-109 188l-15 25l-21 36q-5 8 -18 32l-8 14h-1l1 -18q1 -7 1.5 -24.5t0.5 -26.5q2 -33 3 -78q1 -30 1 -100v-219h-137v700h131l145 -240
q4 -7 15.5 -26.5t16.5 -27.5q7 -12 20 -33q3 -4 6 -10t4 -7l3 -5h1l3 5q1 1 4 7t6 10q13 21 20 33q5 8 16.5 27.5t15.5 26.5z" />
    <glyph glyph-name="n" unicode="n" horiz-adv-x="776" 
d="M554 700h139l-2 -700h-131l-199 269q-24 31 -48 66t-45 63q-28 38 -34 47l-13 19h-1v-18v-50v-75v-96v-225h-139v699h131l203 -273l42 -56q28 -37 45 -61q21 -30 36 -51l15 -20h1v20v52v75v86v229z" />
    <glyph glyph-name="o" unicode="o" horiz-adv-x="803" 
d="M37 346l-3 -2q0 78 29 147q29 68 78 116t116 75q66 27 141 27t141 -27q67 -27 116 -75q50 -48 78 -115q29 -69 29 -147q0 -81 -28 -147q-28 -67 -78 -115q-49 -48 -116 -75q-67 -26 -141 -26t-141 26q-65 27 -115 75q-49 48 -78 116q-28 66 -28 147zM183 350l-1 -4
q0 -51 16 -92q16 -42 45 -72q28 -29 69 -46q39 -16 88 -16q47 0 89 17q40 16 69 47q28 30 45 72q16 41 16 92q0 52 -16 93q-17 42 -45 72q-29 31 -69 47q-42 17 -88 17q-49 0 -88 -16q-41 -17 -69 -46q-28 -30 -45 -72q-16 -41 -16 -93z" />
    <glyph glyph-name="p" unicode="p" horiz-adv-x="633" 
d="M83 699h250q65 0 113 -16q50 -17 84 -46q36 -31 53 -73q18 -44 18 -99t-18 -99t-53 -74q-34 -29 -84 -46q-48 -16 -113 -16h-111v-230h-139v699zM222 361h108v-1q63 0 95 28q33 28 33 78t-34 77t-94 27h-108v-209z" />
    <glyph glyph-name="q" unicode="q" horiz-adv-x="803" 
d="M329 -135v125l-2 -2q-67 13 -117 42q-54 32 -93 78q-38 45 -61 107q-22 59 -22 129q0 78 29 147q29 68 78 116t116 75q66 27 141 27t141 -27q67 -27 116 -75q50 -48 78 -115q29 -69 29 -147q0 -71 -22 -130q-22 -60 -62 -107q-39 -46 -93 -78q-52 -30 -117 -41v-124h-139
zM401 123l-1 -4q47 0 89 17q40 16 69 47q28 30 45 72q16 41 16 92q0 52 -16 93q-17 42 -45 72q-29 31 -69 47q-42 17 -88 17q-49 0 -88 -16q-41 -17 -69 -46q-28 -30 -45 -72q-16 -41 -16 -93q0 -51 16 -92q17 -42 45 -72q28 -29 69 -46q39 -16 88 -16z" />
    <glyph glyph-name="r" unicode="r" horiz-adv-x="666" 
d="M630 -1h-156l-138 238h-8h-106v-238h-139v699h245q67 0 116 -16q52 -17 86 -48q34 -32 54 -75q19 -42 19 -96q0 -73 -34 -123q-35 -52 -99 -77zM222 570v-207l123 -2q29 0 50 9q22 9 35 24q14 15 21 33q7 17 7 38q0 22 -7 39q-7 18 -21 33q-13 15 -35 24q-21 9 -49 9
h-124z" />
    <glyph glyph-name="s" unicode="s" horiz-adv-x="608" 
d="M571 524l-134 -37h-8q-6 24 -20 45q-13 19 -32 33t-41 20t-45 6q-47 0 -76 -21q-28 -21 -28 -52q0 -20 14 -36q14 -15 37 -27q21 -10 54 -22l63 -21q32 -10 77 -31q42 -19 71 -43q31 -26 51 -60q20 -35 20 -81q0 -48 -19 -86t-54 -67t-84 -44q-48 -16 -109 -16
q-112 0 -184 56q-74 57 -102 153l134 36q6 -25 19 -46q13 -23 33 -39q19 -16 47 -27q26 -10 60 -10q57 0 86 24t29 59q0 28 -16 45q-16 18 -43 31q-26 13 -62 24q-35 10 -72 24q-25 8 -64 26q-34 16 -60 37q-27 23 -45 54t-18 78q0 42 19 77q20 37 54 65q35 29 81 45
q45 16 102 16q48 0 93 -14q43 -14 78 -39q36 -26 59 -60q25 -36 35 -75z" />
    <glyph glyph-name="t" unicode="t" horiz-adv-x="605" 
d="M14 700h577v-130h-220v-570h-139v570h-218v130z" />
    <glyph glyph-name="u" unicode="u" horiz-adv-x="740" 
d="M532 700h140l-1 -397q0 -76 -21 -136q-21 -59 -60 -100q-38 -39 -95 -61q-57 -20 -125 -20t-125 20q-57 22 -95 61q-39 41 -60 100q-21 60 -21 137v396h139v-394q0 -97 41 -144q40 -46 122 -46q80 0 120 46q41 47 41 144v394z" />
    <glyph glyph-name="v" unicode="v" horiz-adv-x="719" 
d="M560 700h152l-282 -700h-148l-279 699h152l161 -424q14 -38 29 -87q10 -34 12 -34h1q1 0 12 35q10 35 30 87z" />
    <glyph glyph-name="w" unicode="w" horiz-adv-x="1027" 
d="M858 700h147l-220 -700h-129l-108 338q-19 59 -27 92q-8 32 -9 32h-1q-1 0 -7 -32q-7 -36 -25 -92l-108 -338h-130l-220 700h148l110 -378q13 -48 21 -78t9 -30h1q2 0 9 30t24 78l106 303h129l106 -303q16 -48 24 -78t9 -30h1q2 0 9 30t21 78z" />
    <glyph glyph-name="x" unicode="x" horiz-adv-x="682" 
d="M342 242h-1l-7 -14q-6 -10 -15 -24l-18 -27q-4 -6 -13 -21l-112 -158h-166l245 358l-231 341h167l108 -161q6 -8 11 -18q4 -8 12 -22q1 -2 5 -9t6 -10l5 -8h1l5 9q3 6 11 20q4 7 12 23q5 10 11 18l108 161h168l-232 -341l245 -359h-166l-112 159q-5 7 -12 21l-15 27
q-3 5 -8 13.5t-6 10.5z" />
    <glyph glyph-name="y" unicode="y" horiz-adv-x="701" 
d="M532 700h157l-272 -379v-321h-138v321l-269 379h156l144 -201q23 -33 26 -36q12 -15 13 -15h1q1 0 13 15q3 3 26 36z" />
    <glyph glyph-name="z" unicode="z" horiz-adv-x="705" 
d="M645 700v-130l-338 -382q-12 -13 -41 -45q-18 -19 -18 -21l1 -1l3 1q4 0 11.5 0.5t15.5 0.5q38 2 72 2h293v-129h-585v129l347 383q6 7 20 21q4 4 10.5 10t9.5 9l15 15l7 6l-1 1h-10h-25h-33h-35h-294v130h575z" />
    <glyph glyph-name="braceleft" unicode="{" horiz-adv-x="433" 
d="M287 591v-79l-3 -9q0 -52 -7 -81q-7 -30 -17 -48q-9 -17 -18 -23t-11 -6q2 0 11 -6t18 -24q10 -20 17 -49q8 -34 8 -81v-78q0 -49 12 -79q11 -28 31 -45t43 -21q27 -5 49 -5v-130q-134 0 -203 71q-69 70 -69 190v106q0 52 -10 81q-11 32 -22 47q-13 19 -32 27q19 8 32 27
q13 17 23 47q11 31 11 81v106q0 120 69 191t203 71v-130q-22 0 -49 -5q-23 -4 -43 -21q-19 -16 -31 -46t-12 -79z" />
    <glyph glyph-name="bar" unicode="|" horiz-adv-x="277" 
d="M194 -73h-111v848h111v-848z" />
    <glyph glyph-name="braceright" unicode="}" horiz-adv-x="433" 
d="M146 512v79l-2 -1q0 49 -12 79q-13 31 -31 47q-20 17 -43 21q-27 5 -49 5v130q67 0 118 -18q52 -18 86 -51q34 -32 52 -81q18 -48 18 -108v-106q0 -52 10 -81q11 -32 22 -47q13 -20 33 -27q-20 -7 -33 -27q-11 -15 -22 -47q-10 -29 -10 -81v-106q0 -60 -18 -107
q-18 -49 -52 -81q-35 -33 -85 -51q-51 -18 -118 -18v130q22 0 49 5q23 4 43 21q19 14 31 45q12 30 12 80v78q0 47 8 81q7 29 17 49q9 18 18 24t11 6q-2 0 -11 6t-18 23q-10 18 -17 48q-7 29 -7 81z" />
    <glyph glyph-name="asciitilde" unicode="~" 
d="M514 426l116 -31l-1 -5q-9 -42 -21 -61q-16 -25 -39 -42q-22 -16 -50 -24q-25 -7 -52 -7q-33 0 -63 11q-24 9 -54 23q-8 4 -24 11.5t-24 11.5q-24 11 -42 11q-20 0 -33 -6t-21 -15q-8 -10 -11 -20q-3 -11 -3 -21l-115 30q5 37 21 62q16 26 39 42q22 16 50 24q29 8 53 8
q35 0 62 -10q33 -12 54 -22q9 -4 25 -11.5t23 -10.5q21 -10 42 -10q20 0 33 6t21 15q8 10 11 20q3 11 3 21z" />
    <glyph glyph-name="uni00A0" unicode="&#xa0;" horiz-adv-x="250" 
 />
    <glyph glyph-name="exclamdown" unicode="&#xa1;" horiz-adv-x="305" 
d="M83 700h139v-157h-139v157zM83 481h139v-481h-139v481z" />
    <glyph glyph-name="cent" unicode="&#xa2;" horiz-adv-x="577" 
d="M430 276l121 -34l-5 -4q-24 -61 -75 -103q-50 -41 -117 -55v-97h-112v98q-45 11 -81 34q-38 25 -66 58q-29 35 -45 78q-16 42 -16 93t16 93q16 43 45 78q28 33 66 58q36 23 81 34v106h112v-105q62 -14 111 -51t75 -93l-122 -32q-20 28 -48 45q-28 16 -69 16
q-63 0 -100 -39q-37 -38 -37 -108q0 -68 38 -108q38 -39 101 -39q45 0 77 20t50 57z" />
    <glyph glyph-name="sterling" unicode="&#xa3;" horiz-adv-x="652" 
d="M420 130h192l1 -134h-529v129q47 10 61 41q13 29 7 89l-3 29h-63v110h53l-8 90q-5 46 12 87t48 72q30 30 74 49q41 17 89 19q31 1 72 -8q38 -9 75 -32q36 -23 66 -60q31 -38 44 -93l-118 -33q-17 53 -50 80q-32 27 -81 25q-24 -2 -42 -12q-19 -11 -30 -25
q-12 -15 -18 -36q-6 -19 -4 -43l7 -77h204v-110h-193l2 -25q4 -55 -6 -88t-33 -48l1 -1l13 1q5 1 17.5 1.5t18.5 0.5q30 2 54 2h67z" />
    <glyph glyph-name="currency" unicode="&#xa4;" horiz-adv-x="665" 
d="M484 557l70 69l66 -69l-69 -69q23 -32 35 -71t12 -81q0 -43 -12 -82t-35 -71l68 -69l-69 -69l-69 69q-31 -22 -71 -36q-38 -13 -82 -13q-45 0 -81 13q-37 14 -69 36l-69 -69l-68 69l67 68q-23 34 -35 72q-12 39 -12 82t12 82t35 71l-69 68l69 69l69 -69q31 22 71 36
q38 13 82 13t82 -13q39 -13 72 -36zM332 488l-1 -3q-29 0 -57 -11q-26 -10 -46 -30q-19 -19 -31 -46t-12 -59q0 -33 12 -60t31 -46q20 -20 46 -30t57 -10q29 0 57 11t47 30q18 18 31 47q12 27 12 60q0 32 -12 59q-13 29 -31 47q-20 20 -46 30q-28 11 -57 11z" />
    <glyph glyph-name="yen" unicode="&#xa5;" horiz-adv-x="700" 
d="M689 700l-173 -243h102v-91h-169l-23 -33h192v-92h-201v-241h-138v241h-198v92h189l-23 33h-166v91h101l-172 243h156l144 -201q23 -33 26 -36q12 -15 13 -15h1q1 0 13 15q3 3 26 36l143 201h157z" />
    <glyph glyph-name="brokenbar" unicode="&#xa6;" horiz-adv-x="277" 
d="M83 775h111v-280h-111v280zM83 216h111v-289h-111v289z" />
    <glyph glyph-name="section" unicode="&#xa7;" horiz-adv-x="531" 
d="M493 581l-113 -30l-7 4q-11 36 -43 54q-33 18 -73 18q-39 0 -64 -14q-24 -13 -24 -35q0 -16 12 -27t31 -18q16 -6 45 -13q10 -2 52 -14q34 -10 65 -21q33 -12 60 -30q26 -17 43 -42t17 -57q0 -38 -23 -63q-22 -23 -65 -37q39 -20 66 -48t27 -72q0 -35 -16 -63
q-16 -27 -47 -49q-28 -19 -72 -32q-42 -12 -94 -12q-95 0 -158 40q-61 40 -87 107l113 30q10 -34 45 -61t91 -27q49 0 75 17t26 42q0 20 -14 32t-37 21q-28 11 -54 17q-20 5 -62 17q-29 8 -56 18q-25 9 -52 26q-23 15 -39 38q-15 23 -15 56q0 34 23 62t63 44q-34 17 -56 42
q-23 26 -23 67q0 29 16 54q17 26 45 45q27 19 69 31q41 12 87 12q43 0 77 -10q37 -11 65 -27q30 -18 50 -40q20 -23 31 -52zM161 367l3 -5q0 -16 12 -27t33 -18q25 -9 48 -14q18 -4 56 -14q31 4 50 20q18 15 18 40q0 19 -12 31q-13 13 -31 20q-23 9 -45 14q-34 8 -52 13
q-16 -2 -29 -6q-12 -4 -25 -12q-11 -7 -19 -18q-7 -10 -7 -24z" />
    <glyph glyph-name="dieresis" unicode="&#xa8;" horiz-adv-x="429" 
d="M72 766v-1q-28 0 -48 18q-19 18 -19 47q0 27 19 46t48 19q27 0 46 -19t19 -46q0 -28 -19 -46q-20 -18 -46 -18zM330 767v-1q-28 0 -48 18q-19 18 -19 47q0 27 19 46t48 19t48 -19t19 -46q0 -28 -19 -46q-20 -18 -48 -18z" />
    <glyph glyph-name="copyright" unicode="&#xa9;" horiz-adv-x="803" 
d="M394 715l-3 -2q75 0 141 -27q67 -27 116 -75q50 -48 78 -115q29 -69 29 -147q0 -81 -28 -147q-28 -67 -78 -115q-49 -48 -116 -75q-67 -26 -141 -26t-141 26q-65 27 -115 75q-49 48 -78 116q-28 66 -28 147q0 78 29 147q29 68 78 116t116 75q66 27 141 27zM398 621l-4 -2
q-57 0 -104 -19q-48 -19 -82 -55q-35 -36 -54 -85q-19 -48 -19 -108q0 -58 20 -107q19 -48 54 -84q33 -35 83 -55q47 -19 104 -19q55 0 104 20q50 20 83 55q35 36 54 84q20 49 20 107q0 60 -19 108q-19 49 -54 85q-34 36 -82 55q-49 20 -104 20zM482 306l80 -22l-3 3
q-18 -46 -61 -76q-44 -30 -97 -30q-36 0 -66 13q-31 14 -54 36t-36 54q-13 30 -13 69q0 36 14 69q14 32 36 54t54 36q30 13 66 13q51 0 93 -27q43 -28 62 -70l-80 -21q-26 38 -75 38q-40 0 -64 -25q-24 -26 -24 -69q0 -41 24 -67q24 -25 64 -25q27 0 48 12t32 35z" />
    <glyph glyph-name="ordfeminine" unicode="&#xaa;" horiz-adv-x="363" 
d="M126 434l-20 -61h-85l121 333h78l122 -333h-87l-19 61h-110zM182 628h-1v-2q-2 0 -6 -25q-4 -24 -15 -58l-14 -44h68l-14 44q-11 35 -14 59q-3 26 -4 26zM20 312h323v-85h-323v85z" />
    <glyph glyph-name="guillemotleft" unicode="&#xab;" horiz-adv-x="779" 
d="M384 352l236 234l75 -76l-164 -158l165 -158l-77 -77zM83 352l236 234l75 -76l-164 -158l165 -158l-77 -77z" />
    <glyph glyph-name="uni00AD" unicode="&#xad;" horiz-adv-x="622" 
d="M83 412h456v-114h-456v114z" />
    <glyph glyph-name="registered" unicode="&#xae;" horiz-adv-x="803" 
d="M396 712l-3 -2q75 0 141 -27q67 -27 116 -75q50 -48 78 -115q29 -69 29 -147q0 -81 -28 -147q-28 -67 -78 -115q-49 -48 -116 -75q-67 -26 -141 -26t-141 26q-65 27 -115 75q-49 48 -78 116q-28 66 -28 147q0 78 29 147q29 68 78 116t116 75q66 27 141 27zM400 84l-4 -2
q55 0 104 20q50 20 83 55q35 36 54 84q20 49 20 107q0 60 -19 108q-19 49 -54 85q-34 36 -82 55q-49 20 -104 20q-57 0 -104 -19q-48 -19 -82 -55q-35 -36 -54 -85q-19 -48 -19 -108q0 -58 20 -107q19 -48 54 -84q33 -35 83 -55q47 -19 104 -19zM282 522h120v-1q64 0 98 -30
q35 -30 35 -81q0 -70 -62 -96l80 -132h-83l-67 119h-1h-43v-119h-77v340zM360 450v-87l51 1q24 0 36 12t12 32q0 18 -12 30t-35 12h-52z" />
    <glyph glyph-name="macron" unicode="&#xaf;" horiz-adv-x="344" 
d="M-9 782h338v-108h-338v108z" />
    <glyph glyph-name="degree" unicode="&#xb0;" horiz-adv-x="322" 
d="M161 574l-2 -2q-27 0 -54 11q-25 10 -45 29q-20 18 -30 42q-11 25 -11 53q0 27 11 54q11 26 30 44q20 19 45 29q27 11 54 11t54 -11q25 -10 44 -29t29 -43q11 -27 11 -54q0 -29 -10 -52t-29 -42t-43 -29q-27 -11 -54 -11zM162 657h-1q23 0 39 16q17 17 17 39q0 24 -16 40
t-39 16t-39 -16t-16 -40q0 -23 16 -39t39 -16z" />
    <glyph glyph-name="plusminus" unicode="&#xb1;" 
d="M410 412h168v-114h-167v-117h-122v117h-168v114h167v171h122v-171zM121 -8v113h457v-113h-457z" />
    <glyph glyph-name="uni00B2" unicode="&#xb2;" horiz-adv-x="336" 
d="M140 547l1 -1l-5 -1q2 0 32 3t73 3h65v-79h-286v60l135 113q23 20 45 44q19 20 19 48q0 21 -15 35q-16 14 -38 14q-16 0 -28 -6q-11 -6 -19 -15q-7 -9 -12 -21q-7 -19 -8 -22l-80 21q6 27 19 48t33 40q19 17 45 28q27 11 55 11q32 0 56 -10q26 -11 45 -28q20 -18 30 -42
q11 -25 11 -52q0 -38 -19 -66q-19 -27 -45 -49q-25 -21 -54 -42q-23 -15 -39 -24t-16 -10z" />
    <glyph glyph-name="uni00B3" unicode="&#xb3;" horiz-adv-x="344" 
d="M103 736l-77 21l-1 -4q10 50 50 82q38 31 98 31q68 0 104 -33t36 -80q0 -21 -7 -35q-7 -15 -19 -25q-11 -10 -27 -16q-15 -6 -28 -6v-1q19 -2 32 -7q16 -6 27 -16q13 -12 20 -25q8 -16 8 -35q0 -26 -11 -50q-10 -23 -30 -39q-19 -16 -46 -25t-58 -9q-28 0 -54 9
q-25 9 -46 24t-36 36q-14 20 -19 46l78 21q4 -27 23 -43q18 -15 53 -15q28 0 44 14q15 14 15 35q0 23 -18 36q-17 13 -45 13h-37v64h37q23 0 40 14q16 13 16 33q0 16 -14 30q-13 13 -39 13q-29 0 -45 -13q-17 -13 -24 -45z" />
    <glyph glyph-name="acute" unicode="&#xb4;" horiz-adv-x="316" 
d="M237 929l48 -95l-239 -103l-40 74z" />
    <glyph glyph-name="paragraph" unicode="&#xb6;" horiz-adv-x="765" 
d="M282 700h399l-1 -699h-139v569h-84v-569h-131v299h-45q-115 0 -180 53q-64 52 -64 147q0 94 65 147t180 53z" />
    <glyph glyph-name="periodcentered" unicode="&#xb7;" horiz-adv-x="258" 
d="M129 285q-28 0 -48 20t-20 48t20 48t48 20t48 -20t20 -48t-20 -48t-48 -20z" />
    <glyph glyph-name="cedilla" unicode="&#xb8;" horiz-adv-x="260" 
d="M141 0l-20 -53h-5q22 0 41 -6t35 -20q15 -13 24 -32q9 -18 9 -42q0 -29 -9 -48t-24 -33q-14 -13 -36 -19q-21 -6 -44 -6h-107l29 74h78q20 0 29 9t9 22q0 14 -10 21t-27 9h-93l43 124h78z" />
    <glyph glyph-name="uni00B9" unicode="&#xb9;" horiz-adv-x="251" 
d="M154 862h64l-4 -389h-91v196q0 18 1 27q2 14 3 24t3 18l1 8h-1q-2 0 -9 -12q-3 -5 -24 -26l-29 -28l-57 51z" />
    <glyph glyph-name="ordmasculine" unicode="&#xba;" horiz-adv-x="364" 
d="M10 537h-3q0 36 14 69q13 32 36 54t54 36q30 13 68 13q37 0 67 -13q31 -13 55 -36q23 -22 37 -54q14 -33 14 -69q0 -39 -13 -69q-14 -32 -37 -54q-24 -23 -55 -36q-30 -13 -67 -13t-67 13q-31 14 -54 36t-36 54q-13 30 -13 69zM95 540v-3q0 -39 24 -64t62 -25t62 26
t24 65q0 41 -24 66q-24 26 -62 26t-62 -25q-24 -26 -24 -66zM20 312h324v-85h-324v85z" />
    <glyph glyph-name="guillemotright" unicode="&#xbb;" horiz-adv-x="779" 
d="M159 586l236 -234l-235 -235l-77 77l165 158l-164 158zM460 586l236 -234l-235 -235l-77 77l165 158l-164 158z" />
    <glyph glyph-name="onequarter" unicode="&#xbc;" horiz-adv-x="721" 
d="M95 545l-29 -28l-61 50l143 131h64v-388h-91v196q0 18 1 27q2 13 3 24t3 18l1 8h-1q-2 0 -9 -12q-3 -5 -24 -26zM554 699h92l-494 -699h-91zM695 149v-75h-44v-74h-81v74h-194v62l206 251h69v-238h44zM520 149h52l-2 64q0 25 1 36t1 18h-1q-1 0 -10 -13q-6 -9 -20 -25
l-47 -55q-7 -8 -18 -19q-8 -8 -8 -9l1 -1l2 1q2 0 6 0.5t8 0.5q20 2 35 2z" />
    <glyph glyph-name="onehalf" unicode="&#xbd;" horiz-adv-x="754" 
d="M149 699h64l-4 -389h-91v196q0 18 1 27q1 13 3 24t3 18l1 8h-1q-1 0 -9 -12q-3 -5 -24 -26l-29 -28l-57 51zM58 0l493 699h92l-494 -699h-91zM558 73l1 -1l-5 -1q2 0 32 3t73 3h65v-78h-286v59l135 113q23 20 45 44q19 20 19 48q0 21 -15 35q-16 14 -38 14q-16 0 -28 -6
q-11 -6 -19 -15q-7 -9 -12 -21q-7 -19 -8 -22l-80 21q6 27 19 48t33 40q19 17 45 28q27 11 55 11q32 0 56 -10q26 -11 45 -28q20 -18 30 -42q11 -25 11 -52q0 -38 -19 -66q-19 -27 -45 -49q-25 -21 -54 -42q-23 -15 -39 -24t-16 -10z" />
    <glyph glyph-name="threequarters" unicode="&#xbe;" horiz-adv-x="786" 
d="M231 511v-1l-1 -4q19 -2 32 -7q16 -6 27 -16q13 -12 20 -25q8 -16 8 -35q0 -26 -11 -50q-10 -23 -30 -39q-19 -16 -46 -25t-58 -9q-28 0 -54 9q-25 9 -46 24t-36 36q-14 20 -19 46l78 21q4 -27 23 -43q18 -15 53 -15q28 0 44 14q15 14 15 35q0 23 -18 36q-17 13 -45 13
h-37v64h37q23 0 40 14q16 13 16 33q0 16 -14 30q-13 13 -39 13q-29 0 -45 -13q-17 -13 -24 -45l-77 21q10 50 50 82q38 31 98 31q68 0 104 -33t36 -80q0 -21 -7 -35q-7 -15 -19 -25q-11 -10 -27 -16q-15 -6 -28 -6zM619 699h92l-494 -699h-92zM760 149v-75h-44v-74h-81v74
h-194v62l206 251h69v-238h44zM585 149h52l-2 64q0 25 1 36t1 18h-1q-1 0 -10 -13q-6 -9 -20 -25l-47 -55q-7 -8 -18 -19q-8 -8 -8 -9l1 -1l2 1q2 0 6 0.5t8 0.5q20 2 35 2z" />
    <glyph glyph-name="questiondown" unicode="&#xbf;" horiz-adv-x="584" 
d="M370 701v-157h-140v157h140zM369 481v-121l1 1q-58 -31 -88 -49q-34 -20 -58 -39q-22 -18 -33 -36q-10 -17 -10 -39q0 -12 5 -29q4 -15 17 -29q11 -13 33 -22q21 -9 52 -9q59 0 91 25q34 26 50 79l117 -33q-22 -90 -91 -142q-67 -51 -170 -51q-61 0 -108 15
q-47 16 -78 45q-31 28 -48 65q-16 35 -16 78q0 44 17 78q17 33 44 59q26 25 62 45q23 13 71 39v70h140z" />
    <glyph glyph-name="Agrave" unicode="&#xc0;" horiz-adv-x="719" 
d="M451 803l-40 -74l-239 103l49 95zM561 -1l-52 133h-303l-52 -133h-150l288 699h131l288 -699h-150zM256 257h207l-71 175q-4 10 -12 32q-2 6 -10 32l-8 24l-3 10h-1l-3 -9l-8 -24q-6 -20 -10 -31q-8 -22 -12 -32z" />
    <glyph glyph-name="Aacute" unicode="&#xc1;" horiz-adv-x="719" 
d="M520 832l-238 -103l-41 74l231 124zM561 -1l-52 133h-303l-52 -133h-150l288 699h131l288 -699h-150zM256 257h207l-71 175q-4 10 -12 32q-2 6 -10 32l-8 24l-3 10h-1l-3 -9l-8 -24q-6 -20 -10 -31q-8 -22 -12 -32z" />
    <glyph glyph-name="Acircumflex" unicode="&#xc2;" horiz-adv-x="719" 
d="M354 828l-119 -99l-68 69l187 159l186 -159l-67 -69zM561 -1l-52 133h-303l-52 -133h-150l288 699h131l288 -699h-150zM256 257h207l-71 175q-4 10 -12 32q-2 6 -10 32l-8 24l-3 10h-1l-3 -9l-8 -24q-6 -20 -10 -31q-8 -22 -12 -32z" />
    <glyph glyph-name="Atilde" unicode="&#xc3;" horiz-adv-x="719" 
d="M471 882h109l-4 -2q0 -31 -10 -55q-10 -25 -30 -43q-19 -17 -45 -28q-24 -10 -57 -10q-26 0 -45 9q-13 6 -37 20q-7 4 -18.5 11t-14.5 9q-15 9 -32 9q-19 0 -33 -12q-13 -12 -13 -32h-109q0 29 11 56q11 26 30 44q20 19 45 29q27 11 57 11q27 0 48 -9q22 -10 38 -21
q14 -10 32 -21q15 -9 32 -9q19 0 33 12q13 12 13 32zM561 -1l-52 133h-303l-52 -133h-150l288 699h131l288 -699h-150zM256 257h207l-71 175q-4 10 -12 32q-2 6 -10 32l-8 24l-3 10h-1l-3 -9l-8 -24q-6 -20 -10 -31q-8 -22 -12 -32z" />
    <glyph glyph-name="Adieresis" unicode="&#xc4;" horiz-adv-x="719" 
d="M225 764v-1q-29 0 -48 18t-19 47q0 27 19 46t48 19q27 0 46 -19t19 -46q0 -28 -19 -46t-46 -18zM483 765v-1q-29 0 -48 18t-19 47q0 27 19 46t48 19q27 0 46 -19t19 -46q0 -28 -19 -46t-46 -18zM561 -1l-52 133h-303l-52 -133h-150l288 699h131l288 -699h-150zM256 257
h207l-71 175q-4 10 -12 32q-2 6 -10 32l-8 24l-3 10h-1l-3 -9l-8 -24q-6 -20 -10 -31q-8 -22 -12 -32z" />
    <glyph glyph-name="Aring" unicode="&#xc5;" horiz-adv-x="719" 
d="M559 -3l-52 133l-306 -2l-52 -133h-149l286 697q-31 18 -51 50q-19 31 -19 69q0 28 11 53q10 23 29 42q18 18 44 29q27 11 54 11t54 -11q26 -11 44 -29q19 -19 29 -42q11 -25 11 -52q0 -38 -19 -69t-51 -48l287 -698h-150zM357 873l-2 -2q-23 0 -39 -16t-16 -40
q0 -22 17 -39q16 -16 39 -16t39 16q17 17 17 39q0 25 -16 41q-17 17 -39 17zM256 257h207l-71 175q-4 10 -12 32q-2 6 -10 32l-8 24l-3 10h-1l-3 -9l-8 -24q-6 -20 -10 -31q-8 -22 -12 -32z" />
    <glyph glyph-name="AE" unicode="&#xc6;" horiz-adv-x="1013" 
d="M585 129h361v-129h-497v133h-238l-53 -133h-151l291 699h642v-130h-355v-149h281v-122h-281v-169zM448 257v313l-70 -1l-5 -15q-1 -3 -15 -36q-8 -19 -18 -47q-3 -9 -9 -24.5t-8 -21.5l-65 -168h190z" />
    <glyph glyph-name="Ccedilla" unicode="&#xc7;" horiz-adv-x="756" 
d="M590 228l140 -37l-7 -3q-40 -88 -120 -142q-79 -53 -180 -61l-15 -41q22 0 41 -6t35 -20q15 -13 24 -32q9 -18 9 -42q0 -28 -9 -48t-24 -33q-14 -13 -36 -19q-21 -6 -45 -6h-106l29 74h77q20 0 29 9t9 22q0 14 -10 21q-11 8 -27 9h-92l39 114q-68 8 -124 37
q-56 30 -99 77q-42 46 -66 110q-24 63 -24 136q0 78 29 147q29 68 78 116t116 75q66 27 141 27q54 0 100 -13q49 -14 88 -37q43 -25 74 -58q35 -36 56 -76l-142 -37q-29 40 -76 62q-49 23 -100 23q-48 0 -90 -17q-40 -16 -69 -47t-44 -72q-15 -42 -15 -91q0 -50 17 -93
t45 -71q28 -29 69 -45q39 -16 87 -16q59 0 111 29t77 75z" />
    <glyph glyph-name="Egrave" unicode="&#xc8;" horiz-adv-x="652" 
d="M437 805l-40 -74l-239 103l49 95zM222 130h362v-130h-501v700h495v-130h-356v-149h281v-122h-281v-169z" />
    <glyph glyph-name="Eacute" unicode="&#xc9;" horiz-adv-x="652" 
d="M506 834l-238 -103l-41 74l231 124zM222 130h362v-130h-501v700h495v-130h-356v-149h281v-122h-281v-169z" />
    <glyph glyph-name="Ecircumflex" unicode="&#xca;" horiz-adv-x="652" 
d="M340 830l-119 -99l-68 69l187 159l186 -159l-67 -69zM222 130h362v-130h-501v700h495v-130h-356v-149h281v-122h-281v-169z" />
    <glyph glyph-name="Edieresis" unicode="&#xcb;" horiz-adv-x="652" 
d="M211 766v-1q-29 0 -48 18t-19 47q0 27 19 46t48 19q27 0 46 -19t19 -46q0 -28 -19 -46t-46 -18zM469 767v-1q-29 0 -48 18t-19 47q0 27 19 46t48 19q27 0 46 -19t19 -46q0 -28 -19 -46t-46 -18zM222 130h362v-130h-501v700h495v-130h-356v-149h281v-122h-281v-169z" />
    <glyph glyph-name="Igrave" unicode="&#xcc;" horiz-adv-x="305" 
d="M207 731l-238 103l48 95l230 -124zM222 0h-139v700h139v-700z" />
    <glyph glyph-name="Iacute" unicode="&#xcd;" horiz-adv-x="305" 
d="M268 929l48 -95l-238 -103l-41 74zM222 0h-139v700h139v-700z" />
    <glyph glyph-name="Icircumflex" unicode="&#xce;" horiz-adv-x="305" 
d="M-36 800l186 159l186 -159l-67 -69l-119 99l-119 -99zM222 0h-139v700h139v-700z" />
    <glyph glyph-name="Idieresis" unicode="&#xcf;" horiz-adv-x="305" 
d="M21 766v-1q-27 0 -47 18q-19 18 -19 47q0 27 19 46t47 19q27 0 46 -19t19 -46q0 -28 -19 -46t-46 -18zM279 767v-1q-29 0 -48 18t-19 47q0 27 19 46t48 19q27 0 46 -19t19 -46q0 -28 -19 -46t-46 -18zM222 0h-139v700h139v-700z" />
    <glyph glyph-name="Eth" unicode="&#xd0;" horiz-adv-x="796" 
d="M92 700h302l-1 -2q76 0 141 -25t115 -72q49 -47 78 -111q29 -66 29 -144q0 -79 -28 -142t-77 -109q-47 -44 -114 -70q-65 -25 -141 -25h-304v292h-56v125h56v283zM233 130h165h-2q44 0 83 15t69 42t48 68t18 92t-18 92t-48 71t-69 45t-83 15h-163v-153h131v-125h-131
v-162z" />
    <glyph glyph-name="Ntilde" unicode="&#xd1;" horiz-adv-x="776" 
d="M501 883h109l-4 -2q0 -31 -10 -55q-10 -25 -30 -43q-19 -17 -45 -28q-24 -10 -57 -10q-26 0 -45 9q-13 6 -37 20q-7 4 -18.5 11t-14.5 9q-15 9 -32 9q-19 0 -33 -12q-13 -12 -13 -32h-109q0 29 11 56q11 26 30 44q20 19 45 29q27 11 57 11q27 0 48 -9q22 -10 38 -21
q14 -10 32 -21q15 -9 32 -9q19 0 33 12q13 12 13 32zM554 700h139l-2 -700h-131l-199 269q-24 31 -48 66t-45 63q-28 38 -34 47l-13 19h-1v-18v-50v-75v-96v-225h-139v699h131l203 -273l42 -56q28 -37 45 -61q21 -30 36 -51l15 -20h1v20v52v75v86v229z" />
    <glyph glyph-name="Ograve" unicode="&#xd2;" horiz-adv-x="803" 
d="M456 725l-239 103l49 95l230 -124zM37 346l-3 -2q0 78 29 147q29 68 78 116t116 75q66 27 141 27t141 -27q67 -27 116 -75q50 -48 78 -115q29 -69 29 -147q0 -81 -28 -147q-28 -67 -78 -115q-49 -48 -116 -75q-67 -26 -141 -26t-141 26q-65 27 -115 75q-49 48 -78 116
q-28 66 -28 147zM183 350l-1 -4q0 -51 16 -92q16 -42 45 -72q28 -29 69 -46q39 -16 88 -16q47 0 89 17q40 16 69 47q28 30 45 72q16 41 16 92q0 52 -16 93q-17 42 -45 72q-29 31 -69 47q-42 17 -88 17q-49 0 -88 -16q-41 -17 -69 -46q-28 -30 -45 -72q-16 -41 -16 -93z" />
    <glyph glyph-name="Oacute" unicode="&#xd3;" horiz-adv-x="803" 
d="M517 923l48 -95l-238 -103l-41 74zM37 346l-3 -2q0 78 29 147q29 68 78 116t116 75q66 27 141 27t141 -27q67 -27 116 -75q50 -48 78 -115q29 -69 29 -147q0 -81 -28 -147q-28 -67 -78 -115q-49 -48 -116 -75q-67 -26 -141 -26t-141 26q-65 27 -115 75q-49 48 -78 116
q-28 66 -28 147zM183 350l-1 -4q0 -51 16 -92q16 -42 45 -72q28 -29 69 -46q39 -16 88 -16q47 0 89 17q40 16 69 47q28 30 45 72q16 41 16 92q0 52 -16 93q-17 42 -45 72q-29 31 -69 47q-42 17 -88 17q-49 0 -88 -16q-41 -17 -69 -46q-28 -30 -45 -72q-16 -41 -16 -93z" />
    <glyph glyph-name="Ocircumflex" unicode="&#xd4;" horiz-adv-x="803" 
d="M212 794l187 159l186 -159l-67 -69l-119 99l-119 -99zM37 346l-3 -2q0 78 29 147q29 68 78 116t116 75q66 27 141 27t141 -27q67 -27 116 -75q50 -48 78 -115q29 -69 29 -147q0 -81 -28 -147q-28 -67 -78 -115q-49 -48 -116 -75q-67 -26 -141 -26t-141 26q-65 27 -115 75
q-49 48 -78 116q-28 66 -28 147zM183 350l-1 -4q0 -51 16 -92q16 -42 45 -72q28 -29 69 -46q39 -16 88 -16q47 0 89 17q40 16 69 47q28 30 45 72q16 41 16 92q0 52 -16 93q-17 42 -45 72q-29 31 -69 47q-42 17 -88 17q-49 0 -88 -16q-41 -17 -69 -46q-28 -30 -45 -72
q-16 -41 -16 -93z" />
    <glyph glyph-name="Otilde" unicode="&#xd5;" horiz-adv-x="803" 
d="M516 878h109l-4 -2q0 -31 -10 -55q-10 -25 -30 -43q-19 -17 -45 -28q-24 -10 -57 -10q-25 0 -45 9q-13 6 -37 20q-7 4 -18.5 11t-14.5 9q-15 9 -32 9q-20 0 -33 -12t-13 -32h-109q0 29 11 56q11 26 30 44q20 19 45 29q27 11 57 11q27 0 48 -9q22 -10 38 -21
q14 -10 32 -21q15 -9 32 -9q20 0 33 12t13 32zM37 346l-3 -2q0 78 29 147q29 68 78 116t116 75q66 27 141 27t141 -27q67 -27 116 -75q50 -48 78 -115q29 -69 29 -147q0 -81 -28 -147q-28 -67 -78 -115q-49 -48 -116 -75q-67 -26 -141 -26t-141 26q-65 27 -115 75
q-49 48 -78 116q-28 66 -28 147zM183 350l-1 -4q0 -51 16 -92q16 -42 45 -72q28 -29 69 -46q39 -16 88 -16q47 0 89 17q40 16 69 47q28 30 45 72q16 41 16 92q0 52 -16 93q-17 42 -45 72q-29 31 -69 47q-42 17 -88 17q-49 0 -88 -16q-41 -17 -69 -46q-28 -30 -45 -72
q-16 -41 -16 -93z" />
    <glyph glyph-name="Odieresis" unicode="&#xd6;" horiz-adv-x="803" 
d="M270 760v-1q-28 0 -48 18q-19 18 -19 47q0 27 19 46t48 19q27 0 46 -19t19 -46q0 -28 -19 -46q-20 -18 -46 -18zM528 761v-1q-28 0 -48 18q-19 18 -19 47q0 27 19 46t48 19q27 0 46 -19t19 -46q0 -28 -19 -46q-20 -18 -46 -18zM37 346l-3 -2q0 78 29 147q29 68 78 116
t116 75q66 27 141 27t141 -27q67 -27 116 -75q50 -48 78 -115q29 -69 29 -147q0 -81 -28 -147q-28 -67 -78 -115q-49 -48 -116 -75q-67 -26 -141 -26t-141 26q-65 27 -115 75q-49 48 -78 116q-28 66 -28 147zM183 350l-1 -4q0 -51 16 -92q16 -42 45 -72q28 -29 69 -46
q39 -16 88 -16q47 0 89 17q40 16 69 47q28 30 45 72q16 41 16 92q0 52 -16 93q-17 42 -45 72q-29 31 -69 47q-42 17 -88 17q-49 0 -88 -16q-41 -17 -69 -46q-28 -30 -45 -72q-16 -41 -16 -93z" />
    <glyph glyph-name="multiply" unicode="&#xd7;" 
d="M475 570l92 -93l-125 -125l125 -126l-93 -92l-125 125l-124 -124l-93 93l124 124l-124 124l92 92l125 -123z" />
    <glyph glyph-name="Oslash" unicode="&#xd8;" horiz-adv-x="803" 
d="M707 648l-38 -49l-1 -3q45 -48 69 -111t24 -137q0 -81 -28 -147q-28 -67 -78 -115q-49 -48 -116 -75q-67 -26 -141 -26q-47 0 -87 10q-41 9 -80 29l-37 -47l-99 73l36 48q-44 47 -70 112q-25 63 -25 139q0 78 29 147q29 68 78 116t116 75q66 27 141 27q49 0 90 -10
q44 -10 81 -30l37 48zM222 213l266 348l-2 1q-19 7 -41 12q-19 4 -45 4q-49 0 -88 -16q-41 -17 -69 -46q-29 -30 -45 -72q-16 -41 -16 -93q0 -42 10 -75q10 -34 30 -63zM584 483l-265 -346q40 -14 82 -14q47 0 89 17q40 16 69 47q29 30 45 72q16 41 16 92q0 77 -36 132z" />
    <glyph glyph-name="Ugrave" unicode="&#xd9;" horiz-adv-x="740" 
d="M424 730l-239 103l49 95l230 -124zM532 700h140l-1 -397q0 -76 -21 -136q-21 -59 -60 -100q-38 -39 -95 -61q-57 -20 -125 -20t-125 20q-57 22 -95 61q-39 41 -60 100q-21 60 -21 137v396h139v-394q0 -97 41 -144q40 -46 122 -46q80 0 120 46q41 47 41 144v394z" />
    <glyph glyph-name="Uacute" unicode="&#xda;" horiz-adv-x="740" 
d="M485 928l48 -95l-238 -103l-41 74zM532 700h140l-1 -397q0 -76 -21 -136q-21 -59 -60 -100q-38 -39 -95 -61q-57 -20 -125 -20t-125 20q-57 22 -95 61q-39 41 -60 100q-21 60 -21 137v396h139v-394q0 -97 41 -144q40 -46 122 -46q80 0 120 46q41 47 41 144v394z" />
    <glyph glyph-name="Ucircumflex" unicode="&#xdb;" horiz-adv-x="740" 
d="M180 799l187 159l186 -159l-67 -69l-119 99l-119 -99zM532 700h140l-1 -397q0 -76 -21 -136q-21 -59 -60 -100q-38 -39 -95 -61q-57 -20 -125 -20t-125 20q-57 22 -95 61q-39 41 -60 100q-21 60 -21 137v396h139v-394q0 -97 41 -144q40 -46 122 -46q80 0 120 46
q41 47 41 144v394z" />
    <glyph glyph-name="Udieresis" unicode="&#xdc;" horiz-adv-x="740" 
d="M238 765v-1q-28 0 -48 18q-19 18 -19 47q0 27 19 46t48 19q27 0 46 -19t19 -46q0 -28 -19 -46q-20 -18 -46 -18zM496 766v-1q-28 0 -48 18q-19 18 -19 47q0 27 19 46t48 19q27 0 46 -19t19 -46q0 -28 -19 -46q-20 -18 -46 -18zM532 700h140l-1 -397q0 -76 -21 -136
q-21 -59 -60 -100q-38 -39 -95 -61q-57 -20 -125 -20t-125 20q-57 22 -95 61q-39 41 -60 100q-21 60 -21 137v396h139v-394q0 -97 41 -144q40 -46 122 -46q80 0 120 46q41 47 41 144v394z" />
    <glyph glyph-name="Yacute" unicode="&#xdd;" horiz-adv-x="701" 
d="M463 929l48 -95l-238 -103l-41 74zM532 700h157l-272 -379v-321h-138v321l-269 379h156l144 -201q23 -33 26 -36q12 -15 13 -15h1q1 0 13 15q3 3 26 36z" />
    <glyph glyph-name="Thorn" unicode="&#xde;" horiz-adv-x="636" 
d="M222 584h118l-2 4q59 0 107 -18q50 -19 83 -49q34 -31 54 -75q19 -42 19 -94t-19 -94q-20 -44 -54 -75t-82 -49t-106 -18h-118v-116h-139v699h139v-115zM222 247h121v-1q53 0 84 29q30 29 30 75q0 45 -30 75q-29 29 -84 29h-121v-207z" />
    <glyph glyph-name="germandbls" unicode="&#xdf;" horiz-adv-x="810" 
d="M83 700h622l-108 -200q-10 -20 -16 -31q-3 -5 -8 -15t-8 -15q-5 -9 -12 -23l-4 -9l1 -1h5q45 0 84 -15q40 -15 68 -42t45 -65q17 -39 17 -79q0 -45 -17 -87q-16 -40 -48 -70q-33 -31 -76 -47q-48 -16 -101 -16q-79 0 -144 37q-64 38 -98 99l132 36q19 -25 45 -39t59 -14
q56 0 83 30t27 74q0 40 -28 69q-29 30 -84 30h-101v101l46 91l12 24q8 16 11 23q1 3 4 9t4 9l4 7l-1 1q-8 0 -22 -1t-46 -1h-208v-570h-139v700z" />
    <glyph glyph-name="agrave" unicode="&#xe0;" horiz-adv-x="719" 
d="M451 803l-40 -74l-239 103l49 95zM561 -1l-52 133h-303l-52 -133h-150l288 699h131l288 -699h-150zM256 257h207l-71 175q-4 10 -12 32q-2 6 -10 32l-8 24l-3 10h-1l-3 -9l-8 -24q-6 -20 -10 -31q-8 -22 -12 -32z" />
    <glyph glyph-name="aacute" unicode="&#xe1;" horiz-adv-x="719" 
d="M520 832l-238 -103l-41 74l231 124zM561 -1l-52 133h-303l-52 -133h-150l288 699h131l288 -699h-150zM256 257h207l-71 175q-4 10 -12 32q-2 6 -10 32l-8 24l-3 10h-1l-3 -9l-8 -24q-6 -20 -10 -31q-8 -22 -12 -32z" />
    <glyph glyph-name="acircumflex" unicode="&#xe2;" horiz-adv-x="719" 
d="M354 828l-119 -99l-68 69l187 159l186 -159l-67 -69zM561 -1l-52 133h-303l-52 -133h-150l288 699h131l288 -699h-150zM256 257h207l-71 175q-4 10 -12 32q-2 6 -10 32l-8 24l-3 10h-1l-3 -9l-8 -24q-6 -20 -10 -31q-8 -22 -12 -32z" />
    <glyph glyph-name="atilde" unicode="&#xe3;" horiz-adv-x="719" 
d="M471 882h109l-4 -2q0 -31 -10 -55q-10 -25 -30 -43q-19 -17 -45 -28q-24 -10 -57 -10q-26 0 -45 9q-13 6 -37 20q-7 4 -18.5 11t-14.5 9q-15 9 -32 9q-19 0 -33 -12q-13 -12 -13 -32h-109q0 29 11 56q11 26 30 44q20 19 45 29q27 11 57 11q27 0 48 -9q22 -10 38 -21
q14 -10 32 -21q15 -9 32 -9q19 0 33 12q13 12 13 32zM561 -1l-52 133h-303l-52 -133h-150l288 699h131l288 -699h-150zM256 257h207l-71 175q-4 10 -12 32q-2 6 -10 32l-8 24l-3 10h-1l-3 -9l-8 -24q-6 -20 -10 -31q-8 -22 -12 -32z" />
    <glyph glyph-name="adieresis" unicode="&#xe4;" horiz-adv-x="719" 
d="M225 764v-1q-29 0 -48 18t-19 47q0 27 19 46t48 19q27 0 46 -19t19 -46q0 -28 -19 -46t-46 -18zM483 765v-1q-29 0 -48 18t-19 47q0 27 19 46t48 19q27 0 46 -19t19 -46q0 -28 -19 -46t-46 -18zM561 -1l-52 133h-303l-52 -133h-150l288 699h131l288 -699h-150zM256 257
h207l-71 175q-4 10 -12 32q-2 6 -10 32l-8 24l-3 10h-1l-3 -9l-8 -24q-6 -20 -10 -31q-8 -22 -12 -32z" />
    <glyph glyph-name="aring" unicode="&#xe5;" horiz-adv-x="719" 
d="M559 -3l-52 133l-306 -2l-52 -133h-149l286 697q-31 18 -51 50q-19 31 -19 69q0 28 11 53q10 23 29 42q18 18 44 29q27 11 54 11t54 -11q26 -11 44 -29q19 -19 29 -42q11 -25 11 -52q0 -38 -19 -69t-51 -48l287 -698h-150zM357 873l-2 -2q-23 0 -39 -16t-16 -40
q0 -22 17 -39q16 -16 39 -16t39 16q17 17 17 39q0 25 -16 41q-17 17 -39 17zM256 257h207l-71 175q-4 10 -12 32q-2 6 -10 32l-8 24l-3 10h-1l-3 -9l-8 -24q-6 -20 -10 -31q-8 -22 -12 -32z" />
    <glyph glyph-name="ae" unicode="&#xe6;" horiz-adv-x="1013" 
d="M585 129h361v-129h-497v133h-238l-53 -133h-151l291 699h642v-130h-355v-149h281v-122h-281v-169zM448 257v313l-70 -1l-5 -15q-1 -3 -15 -36q-8 -19 -18 -47q-3 -9 -9 -24.5t-8 -21.5l-65 -168h190z" />
    <glyph glyph-name="ccedilla" unicode="&#xe7;" horiz-adv-x="756" 
d="M590 228l140 -37l-7 -3q-40 -88 -120 -142q-79 -53 -180 -61l-15 -41q22 0 41 -6t35 -20q15 -13 24 -32q9 -18 9 -42q0 -28 -9 -48t-24 -33q-14 -13 -36 -19q-21 -6 -45 -6h-106l29 74h77q20 0 29 9t9 22q0 14 -10 21q-11 8 -27 9h-92l39 114q-68 8 -124 37
q-56 30 -99 77q-42 46 -66 110q-24 63 -24 136q0 78 29 147q29 68 78 116t116 75q66 27 141 27q54 0 100 -13q49 -14 88 -37q43 -25 74 -58q35 -36 56 -76l-142 -37q-29 40 -76 62q-49 23 -100 23q-48 0 -90 -17q-40 -16 -69 -47t-44 -72q-15 -42 -15 -91q0 -50 17 -93
t45 -71q28 -29 69 -45q39 -16 87 -16q59 0 111 29t77 75z" />
    <glyph glyph-name="egrave" unicode="&#xe8;" horiz-adv-x="652" 
d="M436 805l-40 -74l-239 103l49 95zM222 130h362v-130h-501v700h495v-130h-356v-149h281v-122h-281v-169z" />
    <glyph glyph-name="eacute" unicode="&#xe9;" horiz-adv-x="652" 
d="M505 834l-238 -103l-41 74l231 124zM222 130h362v-130h-501v700h495v-130h-356v-149h281v-122h-281v-169z" />
    <glyph glyph-name="ecircumflex" unicode="&#xea;" horiz-adv-x="652" 
d="M339 830l-119 -99l-68 69l187 159l186 -159l-67 -69zM222 130h362v-130h-501v700h495v-130h-356v-149h281v-122h-281v-169z" />
    <glyph glyph-name="edieresis" unicode="&#xeb;" horiz-adv-x="652" 
d="M210 766v-1q-28 0 -48 18q-19 18 -19 47q0 27 19 46t48 19q27 0 46 -19t19 -46q0 -28 -19 -46q-20 -18 -46 -18zM468 767v-1q-28 0 -48 18q-19 18 -19 47q0 27 19 46t48 19q27 0 46 -19t19 -46q0 -28 -19 -46q-20 -18 -46 -18zM222 130h362v-130h-501v700h495v-130h-356
v-149h281v-122h-281v-169z" />
    <glyph glyph-name="igrave" unicode="&#xec;" horiz-adv-x="305" 
d="M207 731l-238 103l48 95l230 -124zM222 0h-139v700h139v-700z" />
    <glyph glyph-name="iacute" unicode="&#xed;" horiz-adv-x="305" 
d="M268 929l48 -95l-238 -103l-41 74zM222 0h-139v700h139v-700z" />
    <glyph glyph-name="icircumflex" unicode="&#xee;" horiz-adv-x="305" 
d="M-36 800l186 159l186 -159l-67 -69l-119 99l-119 -99zM222 0h-139v700h139v-700z" />
    <glyph glyph-name="idieresis" unicode="&#xef;" horiz-adv-x="305" 
d="M21 766v-1q-27 0 -47 18q-19 18 -19 47q0 27 19 46t47 19q27 0 46 -19t19 -46q0 -28 -19 -46t-46 -18zM279 767v-1q-29 0 -48 18t-19 47q0 27 19 46t48 19q27 0 46 -19t19 -46q0 -28 -19 -46t-46 -18zM222 0h-139v700h139v-700z" />
    <glyph glyph-name="eth" unicode="&#xf0;" horiz-adv-x="796" 
d="M92 700h302l-1 -2q76 0 141 -25t115 -72q49 -47 78 -111q29 -66 29 -144q0 -79 -28 -142t-77 -109q-47 -44 -114 -70q-65 -25 -141 -25h-304v292h-56v125h56v283zM233 130h165h-2q44 0 83 15t69 42t48 68t18 92t-18 92t-48 71t-69 45t-83 15h-163v-153h131v-125h-131
v-162z" />
    <glyph glyph-name="ntilde" unicode="&#xf1;" horiz-adv-x="776" 
d="M501 883h109l-4 -2q0 -31 -10 -55q-10 -25 -30 -43q-19 -17 -45 -28q-24 -10 -57 -10q-26 0 -45 9q-13 6 -37 20q-7 4 -18.5 11t-14.5 9q-15 9 -32 9q-19 0 -33 -12q-13 -12 -13 -32h-109q0 29 11 56q11 26 30 44q20 19 45 29q27 11 57 11q27 0 48 -9q22 -10 38 -21
q14 -10 32 -21q15 -9 32 -9q19 0 33 12q13 12 13 32zM554 700h139l-2 -700h-131l-199 269q-24 31 -48 66t-45 63q-28 38 -34 47l-13 19h-1v-18v-50v-75v-96v-225h-139v699h131l203 -273l42 -56q28 -37 45 -61q21 -30 36 -51l15 -20h1v20v52v75v86v229z" />
    <glyph glyph-name="ograve" unicode="&#xf2;" horiz-adv-x="803" 
d="M454 725l-239 103l49 95l230 -124zM37 346l-3 -2q0 78 29 147q29 68 78 116t116 75q66 27 141 27t141 -27q67 -27 116 -75q50 -48 78 -115q29 -69 29 -147q0 -81 -28 -147q-28 -67 -78 -115q-49 -48 -116 -75q-67 -26 -141 -26t-141 26q-65 27 -115 75q-49 48 -78 116
q-28 66 -28 147zM183 350l-1 -4q0 -51 16 -92q16 -42 45 -72q28 -29 69 -46q39 -16 88 -16q47 0 89 17q40 16 69 47q28 30 45 72q16 41 16 92q0 52 -16 93q-17 42 -45 72q-29 31 -69 47q-42 17 -88 17q-49 0 -88 -16q-41 -17 -69 -46q-28 -30 -45 -72q-16 -41 -16 -93z" />
    <glyph glyph-name="oacute" unicode="&#xf3;" horiz-adv-x="803" 
d="M515 923l48 -95l-238 -103l-41 74zM37 346l-3 -2q0 78 29 147q29 68 78 116t116 75q66 27 141 27t141 -27q67 -27 116 -75q50 -48 78 -115q29 -69 29 -147q0 -81 -28 -147q-28 -67 -78 -115q-49 -48 -116 -75q-67 -26 -141 -26t-141 26q-65 27 -115 75q-49 48 -78 116
q-28 66 -28 147zM183 350l-1 -4q0 -51 16 -92q16 -42 45 -72q28 -29 69 -46q39 -16 88 -16q47 0 89 17q40 16 69 47q28 30 45 72q16 41 16 92q0 52 -16 93q-17 42 -45 72q-29 31 -69 47q-42 17 -88 17q-49 0 -88 -16q-41 -17 -69 -46q-28 -30 -45 -72q-16 -41 -16 -93z" />
    <glyph glyph-name="ocircumflex" unicode="&#xf4;" horiz-adv-x="803" 
d="M210 794l187 159l186 -159l-67 -69l-119 99l-119 -99zM37 346l-3 -2q0 78 29 147q29 68 78 116t116 75q66 27 141 27t141 -27q67 -27 116 -75q50 -48 78 -115q29 -69 29 -147q0 -81 -28 -147q-28 -67 -78 -115q-49 -48 -116 -75q-67 -26 -141 -26t-141 26q-65 27 -115 75
q-49 48 -78 116q-28 66 -28 147zM183 350l-1 -4q0 -51 16 -92q16 -42 45 -72q28 -29 69 -46q39 -16 88 -16q47 0 89 17q40 16 69 47q28 30 45 72q16 41 16 92q0 52 -16 93q-17 42 -45 72q-29 31 -69 47q-42 17 -88 17q-49 0 -88 -16q-41 -17 -69 -46q-28 -30 -45 -72
q-16 -41 -16 -93z" />
    <glyph glyph-name="otilde" unicode="&#xf5;" horiz-adv-x="803" 
d="M514 878h109l-4 -2q0 -31 -10 -55q-10 -25 -30 -43q-19 -17 -45 -28q-24 -10 -57 -10q-25 0 -45 9q-13 6 -37 20q-7 4 -18.5 11t-14.5 9q-15 9 -32 9q-20 0 -33 -12t-13 -32h-109q0 29 11 56q11 26 30 44q20 19 45 29q27 11 57 11q27 0 48 -9q22 -10 38 -21
q14 -10 32 -21q15 -9 32 -9q20 0 33 12t13 32zM37 346l-3 -2q0 78 29 147q29 68 78 116t116 75q66 27 141 27t141 -27q67 -27 116 -75q50 -48 78 -115q29 -69 29 -147q0 -81 -28 -147q-28 -67 -78 -115q-49 -48 -116 -75q-67 -26 -141 -26t-141 26q-65 27 -115 75
q-49 48 -78 116q-28 66 -28 147zM183 350l-1 -4q0 -51 16 -92q16 -42 45 -72q28 -29 69 -46q39 -16 88 -16q47 0 89 17q40 16 69 47q28 30 45 72q16 41 16 92q0 52 -16 93q-17 42 -45 72q-29 31 -69 47q-42 17 -88 17q-49 0 -88 -16q-41 -17 -69 -46q-28 -30 -45 -72
q-16 -41 -16 -93z" />
    <glyph glyph-name="odieresis" unicode="&#xf6;" horiz-adv-x="803" 
d="M268 760v-1q-28 0 -48 18q-19 18 -19 47q0 27 19 46t48 19q27 0 46 -19t19 -46q0 -28 -19 -46q-20 -18 -46 -18zM526 761v-1q-28 0 -48 18q-19 18 -19 47q0 27 19 46t48 19q27 0 46 -19t19 -46q0 -28 -19 -46q-20 -18 -46 -18zM37 346l-3 -2q0 78 29 147q29 68 78 116
t116 75q66 27 141 27t141 -27q67 -27 116 -75q50 -48 78 -115q29 -69 29 -147q0 -81 -28 -147q-28 -67 -78 -115q-49 -48 -116 -75q-67 -26 -141 -26t-141 26q-65 27 -115 75q-49 48 -78 116q-28 66 -28 147zM183 350l-1 -4q0 -51 16 -92q16 -42 45 -72q28 -29 69 -46
q39 -16 88 -16q47 0 89 17q40 16 69 47q28 30 45 72q16 41 16 92q0 52 -16 93q-17 42 -45 72q-29 31 -69 47q-42 17 -88 17q-49 0 -88 -16q-41 -17 -69 -46q-28 -30 -45 -72q-16 -41 -16 -93z" />
    <glyph glyph-name="divide" unicode="&#xf7;" 
d="M343 511q-28 0 -48 20t-20 48t20 48t48 20t48 -20t20 -48t-20 -48t-48 -20zM120 412h457v-114h-457v114zM343 63q-28 0 -48 20t-20 48t20 48t48 20t48 -20t20 -48t-20 -48t-48 -20z" />
    <glyph glyph-name="oslash" unicode="&#xf8;" horiz-adv-x="803" 
d="M707 648l-38 -49l-1 -3q45 -48 69 -111t24 -137q0 -81 -28 -147q-28 -67 -78 -115q-49 -48 -116 -75q-67 -26 -141 -26q-47 0 -87 10q-41 9 -80 29l-37 -47l-99 73l36 48q-44 47 -70 112q-25 63 -25 139q0 78 29 147q29 68 78 116t116 75q66 27 141 27q49 0 90 -10
q44 -10 81 -30l37 48zM222 213l266 348l-2 1q-19 7 -41 12q-19 4 -45 4q-49 0 -88 -16q-41 -17 -69 -46q-29 -30 -45 -72q-16 -41 -16 -93q0 -42 10 -75q10 -34 30 -63zM584 483l-265 -346q40 -14 82 -14q47 0 89 17q40 16 69 47q29 30 45 72q16 41 16 92q0 77 -36 132z" />
    <glyph glyph-name="ugrave" unicode="&#xf9;" horiz-adv-x="740" 
d="M424 730l-239 103l49 95l230 -124zM532 700h140l-1 -397q0 -76 -21 -136q-21 -59 -60 -100q-38 -39 -95 -61q-57 -20 -125 -20t-125 20q-57 22 -95 61q-39 41 -60 100q-21 60 -21 137v396h139v-394q0 -97 41 -144q40 -46 122 -46q80 0 120 46q41 47 41 144v394z" />
    <glyph glyph-name="uacute" unicode="&#xfa;" horiz-adv-x="740" 
d="M485 928l48 -95l-238 -103l-41 74zM532 700h140l-1 -397q0 -76 -21 -136q-21 -59 -60 -100q-38 -39 -95 -61q-57 -20 -125 -20t-125 20q-57 22 -95 61q-39 41 -60 100q-21 60 -21 137v396h139v-394q0 -97 41 -144q40 -46 122 -46q80 0 120 46q41 47 41 144v394z" />
    <glyph glyph-name="ucircumflex" unicode="&#xfb;" horiz-adv-x="740" 
d="M180 799l187 159l186 -159l-67 -69l-119 99l-119 -99zM532 700h140l-1 -397q0 -76 -21 -136q-21 -59 -60 -100q-38 -39 -95 -61q-57 -20 -125 -20t-125 20q-57 22 -95 61q-39 41 -60 100q-21 60 -21 137v396h139v-394q0 -97 41 -144q40 -46 122 -46q80 0 120 46
q41 47 41 144v394z" />
    <glyph glyph-name="udieresis" unicode="&#xfc;" horiz-adv-x="740" 
d="M238 765v-1q-28 0 -48 18q-19 18 -19 47q0 27 19 46t48 19q27 0 46 -19t19 -46q0 -28 -19 -46q-20 -18 -46 -18zM496 766v-1q-28 0 -48 18q-19 18 -19 47q0 27 19 46t48 19q27 0 46 -19t19 -46q0 -28 -19 -46q-20 -18 -46 -18zM532 700h140l-1 -397q0 -76 -21 -136
q-21 -59 -60 -100q-38 -39 -95 -61q-57 -20 -125 -20t-125 20q-57 22 -95 61q-39 41 -60 100q-21 60 -21 137v396h139v-394q0 -97 41 -144q40 -46 122 -46q80 0 120 46q41 47 41 144v394z" />
    <glyph glyph-name="yacute" unicode="&#xfd;" horiz-adv-x="701" 
d="M464 929l48 -95l-238 -103l-41 74zM532 700h157l-272 -379v-321h-138v321l-269 379h156l144 -201q23 -33 26 -36q12 -15 13 -15h1q1 0 13 15q3 3 26 36z" />
    <glyph glyph-name="thorn" unicode="&#xfe;" horiz-adv-x="636" 
d="M222 584h118l-2 4q59 0 107 -18q50 -19 83 -49q34 -31 54 -75q19 -42 19 -94t-19 -94q-20 -44 -54 -75t-82 -49t-106 -18h-118v-116h-139v699h139v-115zM222 247h121v-1q53 0 84 29q30 29 30 75q0 45 -30 75q-29 29 -84 29h-121v-207z" />
    <glyph glyph-name="ydieresis" unicode="&#xff;" horiz-adv-x="701" 
d="M217 766v-1q-29 0 -48 18t-19 47q0 27 19 46t48 19q27 0 46 -19t19 -46q0 -28 -19 -46t-46 -18zM475 767v-1q-29 0 -48 18t-19 47q0 27 19 46t48 19q27 0 46 -19t19 -46q0 -28 -19 -46t-46 -18zM532 700h157l-272 -379v-321h-138v321l-269 379h156l144 -201
q23 -33 26 -36q12 -15 13 -15h1q1 0 13 15q3 3 26 36z" />
    <glyph glyph-name="Amacron" unicode="&#x100;" horiz-adv-x="719" 
d="M531 876v-108h-339v108h339zM561 -1l-52 133h-303l-52 -133h-150l288 699h131l288 -699h-150zM256 257h207l-71 175q-4 10 -12 32q-2 6 -10 32l-8 24l-3 10h-1l-3 -9l-8 -24q-6 -20 -10 -31q-8 -22 -12 -32z" />
    <glyph glyph-name="amacron" unicode="&#x101;" horiz-adv-x="719" 
d="M531 876v-108h-339v108h339zM561 -1l-52 133h-303l-52 -133h-150l288 699h131l288 -699h-150zM256 257h207l-71 175q-4 10 -12 32q-2 6 -10 32l-8 24l-3 10h-1l-3 -9l-8 -24q-6 -20 -10 -31q-8 -22 -12 -32z" />
    <glyph glyph-name="Abreve" unicode="&#x102;" horiz-adv-x="719" 
d="M436 886h100l1 -2q-7 -31 -24 -58q-16 -27 -40 -46q-24 -20 -52 -30q-27 -10 -62 -10q-34 0 -65 11q-30 11 -54 30t-40 46t-24 59h102q6 -23 27 -41t53 -18q30 0 51 18t27 41zM561 -1l-52 133h-303l-52 -133h-150l288 699h131l288 -699h-150zM256 257h207l-71 175
q-4 10 -12 32q-2 6 -10 32l-8 24l-3 10h-1l-3 -9l-8 -24q-6 -20 -10 -31q-8 -22 -12 -32z" />
    <glyph glyph-name="abreve" unicode="&#x103;" horiz-adv-x="719" 
d="M436 886h100l1 -2q-7 -31 -24 -58q-16 -27 -40 -46q-24 -20 -52 -30q-27 -10 -62 -10q-34 0 -65 11q-30 11 -54 30t-40 46t-24 59h102q6 -23 27 -41t53 -18q30 0 51 18t27 41zM561 -1l-52 133h-303l-52 -133h-150l288 699h131l288 -699h-150zM256 257h207l-71 175
q-4 10 -12 32q-2 6 -10 32l-8 24l-3 10h-1l-3 -9l-8 -24q-6 -20 -10 -31q-8 -22 -12 -32z" />
    <glyph glyph-name="Aogonek" unicode="&#x104;" horiz-adv-x="719" 
d="M685 -98l73 -46l-2 1q-25 -49 -70 -76t-96 -27q-36 0 -69 11q-31 11 -54 30t-36 48q-13 27 -13 65q0 32 12 57q12 26 30 44q18 19 39 30q23 11 39 14l-30 77h-303l-52 -133h-150l288 699h131l288 -699h-72q-18 0 -41 -5q-21 -4 -39 -15t-30 -27t-12 -41q0 -27 19 -47
q19 -21 57 -21q31 0 56 17q23 16 37 44zM256 257h207l-71 175q-4 10 -12 32q-2 6 -10 32l-8 24l-3 10h-1l-3 -9l-8 -24q-6 -20 -10 -31q-8 -22 -12 -32z" />
    <glyph glyph-name="aogonek" unicode="&#x105;" horiz-adv-x="719" 
d="M685 -98l73 -46l-2 1q-25 -49 -70 -76t-96 -27q-36 0 -69 11q-31 11 -54 30t-36 48q-13 27 -13 65q0 32 12 57q12 26 30 44q18 19 39 30q23 11 39 14l-30 77h-303l-52 -133h-150l288 699h131l288 -699h-72q-18 0 -41 -5q-21 -4 -39 -15t-30 -27t-12 -41q0 -27 19 -47
q19 -21 57 -21q31 0 56 17q23 16 37 44zM256 257h207l-71 175q-4 10 -12 32q-2 6 -10 32l-8 24l-3 10h-1l-3 -9l-8 -24q-6 -20 -10 -31q-8 -22 -12 -32z" />
    <glyph glyph-name="Cacute" unicode="&#x106;" horiz-adv-x="756" 
d="M511 925l48 -95l-238 -103l-41 74zM719 529l-142 -37l-3 -4q-29 40 -76 62q-49 23 -100 23q-48 0 -90 -17q-40 -16 -69 -47t-44 -72q-15 -42 -15 -91q0 -50 17 -93t45 -71t69 -45q39 -16 87 -16q59 0 111 29t77 75l140 -37q-23 -48 -55 -84t-75 -64t-92 -41
q-50 -15 -105 -15q-74 0 -141 26q-65 27 -115 75q-49 48 -78 116q-28 66 -28 147q0 78 29 147q29 68 78 116t116 75q66 27 141 27q54 0 100 -13q49 -14 88 -37q43 -25 74 -58q35 -36 56 -76z" />
    <glyph glyph-name="cacute" unicode="&#x107;" horiz-adv-x="756" 
d="M511 925l48 -95l-238 -103l-41 74zM719 529l-142 -37l-3 -4q-29 40 -76 62q-49 23 -100 23q-48 0 -90 -17q-40 -16 -69 -47t-44 -72q-15 -42 -15 -91q0 -50 17 -93t45 -71t69 -45q39 -16 87 -16q59 0 111 29t77 75l140 -37q-23 -48 -55 -84t-75 -64t-92 -41
q-50 -15 -105 -15q-74 0 -141 26q-65 27 -115 75q-49 48 -78 116q-28 66 -28 147q0 78 29 147q29 68 78 116t116 75q66 27 141 27q54 0 100 -13q49 -14 88 -37q43 -25 74 -58q35 -36 56 -76z" />
    <glyph glyph-name="Cdotaccent" unicode="&#x10a;" horiz-adv-x="756" 
d="M396 762h-2q-27 0 -46 19t-19 48q0 26 20 46q19 19 47 19q27 0 46 -19t19 -46q0 -29 -19 -48t-46 -19zM719 529l-142 -37l-3 -4q-29 40 -76 62q-49 23 -100 23q-48 0 -90 -17q-40 -16 -69 -47t-44 -72q-15 -42 -15 -91q0 -50 17 -93t45 -71t69 -45q39 -16 87 -16
q59 0 111 29t77 75l140 -37q-23 -48 -55 -84t-75 -64t-92 -41q-50 -15 -105 -15q-74 0 -141 26q-65 27 -115 75q-49 48 -78 116q-28 66 -28 147q0 78 29 147q29 68 78 116t116 75q66 27 141 27q54 0 100 -13q49 -14 88 -37q43 -25 74 -58q35 -36 56 -76z" />
    <glyph glyph-name="cdotaccent" unicode="&#x10b;" horiz-adv-x="756" 
d="M396 762h-2q-27 0 -46 19t-19 48q0 26 20 46q19 19 47 19q27 0 46 -19t19 -46q0 -29 -19 -48t-46 -19zM719 529l-142 -37l-3 -4q-29 40 -76 62q-49 23 -100 23q-48 0 -90 -17q-40 -16 -69 -47t-44 -72q-15 -42 -15 -91q0 -50 17 -93t45 -71t69 -45q39 -16 87 -16
q59 0 111 29t77 75l140 -37q-23 -48 -55 -84t-75 -64t-92 -41q-50 -15 -105 -15q-74 0 -141 26q-65 27 -115 75q-49 48 -78 116q-28 66 -28 147q0 78 29 147q29 68 78 116t116 75q66 27 141 27q54 0 100 -13q49 -14 88 -37q43 -25 74 -58q35 -36 56 -76z" />
    <glyph glyph-name="Ccaron" unicode="&#x10c;" horiz-adv-x="756" 
d="M577 492l142 37l-3 -3q-21 40 -56 76q-33 35 -74 59q-43 25 -88 38q-46 13 -100 13q-75 0 -141 -27q-65 -27 -115 -75t-78 -115q-28 -66 -28 -147q0 -78 29 -147q28 -67 78 -115q49 -48 116 -75q67 -26 141 -26q56 0 105 15q49 13 92 41q41 26 75 65t56 84l-140 37
q-25 -46 -77 -75q-50 -28 -111 -28q-48 0 -87 16q-41 16 -69 45q-28 28 -45 71q-16 41 -16 93q0 50 15 92q15 41 44 72t69 47q42 17 90 17q51 0 100 -23q47 -22 76 -62zM399 724l-187 159l68 69l119 -99l119 99l67 -69z" />
    <glyph glyph-name="ccaron" unicode="&#x10d;" horiz-adv-x="756" 
d="M577 492l142 37l-3 -3q-21 40 -56 76q-33 35 -74 59q-43 25 -88 38q-46 13 -100 13q-75 0 -141 -27q-65 -27 -115 -75t-78 -115q-28 -66 -28 -147q0 -78 29 -147q28 -67 78 -115q49 -48 116 -75q67 -26 141 -26q56 0 105 15q49 13 92 41q41 26 75 65t56 84l-140 37
q-25 -46 -77 -75q-50 -28 -111 -28q-48 0 -87 16q-41 16 -69 45q-28 28 -45 71q-16 41 -16 93q0 50 15 92q15 41 44 72t69 47q42 17 90 17q51 0 100 -23q47 -22 76 -62zM399 724l-187 159l68 69l119 -99l119 99l67 -69z" />
    <glyph glyph-name="Dcaron" unicode="&#x10e;" horiz-adv-x="785" 
d="M386 129h-165l1 438h163q44 0 83 -15t69 -45t48 -70q18 -41 18 -92t-18 -91q-18 -41 -48 -68t-69 -42t-82 -15zM385 700h-302l-1 -700h304q79 0 141 24q65 25 114 71q48 45 77 110q29 66 29 142q0 81 -28 144q-29 65 -78 111q-50 47 -115 72q-67 26 -141 26zM385 724
l-187 159l68 69l119 -99l119 99l67 -69z" />
    <glyph glyph-name="dcaron" unicode="&#x10f;" horiz-adv-x="785" 
d="M386 129h-165l1 438h163q44 0 83 -15t69 -45t48 -70q18 -41 18 -92t-18 -91q-18 -41 -48 -68t-69 -42t-82 -15zM385 700h-302l-1 -700h304q79 0 141 24q65 25 114 71q48 45 77 110q29 66 29 142q0 81 -28 144q-29 65 -78 111q-50 47 -115 72q-67 26 -141 26zM385 724
l-187 159l68 69l119 -99l119 99l67 -69z" />
    <glyph glyph-name="Dcroat" unicode="&#x110;" horiz-adv-x="796" 
d="M92 700h302l-1 -2q76 0 141 -25t115 -72q49 -47 78 -111q29 -66 29 -144q0 -79 -28 -142t-77 -109q-47 -44 -114 -70q-65 -25 -141 -25h-304v292h-56v125h56v283zM233 130h165h-2q44 0 83 15t69 42t48 68t18 92t-18 92t-48 71t-69 45t-83 15h-163v-153h131v-125h-131
v-162z" />
    <glyph glyph-name="dcroat" unicode="&#x111;" horiz-adv-x="796" 
d="M92 700h302l-1 -2q76 0 141 -25t115 -72q49 -47 78 -111q29 -66 29 -144q0 -79 -28 -142t-77 -109q-47 -44 -114 -70q-65 -25 -141 -25h-304v292h-56v125h56v283zM233 130h165h-2q44 0 83 15t69 42t48 68t18 92t-18 92t-48 71t-69 45t-83 15h-163v-153h131v-125h-131
v-162z" />
    <glyph glyph-name="Emacron" unicode="&#x112;" horiz-adv-x="652" 
d="M517 878v-108h-339v108h339zM222 130h362v-130h-501v700h495v-130h-356v-149h281v-122h-281v-169z" />
    <glyph glyph-name="emacron" unicode="&#x113;" horiz-adv-x="652" 
d="M516 878v-108h-339v108h339zM222 130h362v-130h-501v700h495v-130h-356v-149h281v-122h-281v-169z" />
    <glyph glyph-name="Edotaccent" unicode="&#x116;" horiz-adv-x="652" 
d="M343 766h-2q-27 0 -46 19t-19 48q0 26 20 46q19 19 47 19q27 0 46 -19t19 -46q0 -29 -19 -48t-46 -19zM222 130h362v-130h-501v700h495v-130h-356v-149h281v-122h-281v-169z" />
    <glyph glyph-name="edotaccent" unicode="&#x117;" horiz-adv-x="652" 
d="M343 766h-2q-27 0 -46 19t-19 48q0 26 20 46q19 19 47 19q27 0 46 -19t19 -46q0 -29 -19 -48t-46 -19zM222 130h362v-130h-501v700h495v-130h-356v-149h281v-122h-281v-169z" />
    <glyph glyph-name="Eogonek" unicode="&#x118;" horiz-adv-x="652" 
d="M516 -96l73 -46l-2 -1q-25 -49 -70 -76t-96 -27q-36 0 -69 11q-32 11 -54 30t-36 48q-13 27 -13 65q0 28 9 50t23 41h-199v699h495v-130h-356v-149h281v-122h-281v-169h362v-129h-114q-18 0 -41 -5q-21 -4 -39 -15t-30 -27t-12 -41q0 -27 19 -47q20 -21 57 -21
q31 0 56 17q23 16 37 44z" />
    <glyph glyph-name="eogonek" unicode="&#x119;" horiz-adv-x="652" 
d="M527 -96l73 -46l-2 -1q-25 -49 -70 -76t-96 -27q-36 0 -69 11q-31 11 -54 30t-36 48q-13 27 -13 65q0 28 9 50t23 41h-210v699h495v-130h-356v-149h281v-122h-281v-169h362v-129h-103q-18 0 -41 -5q-21 -4 -39 -15t-30 -27t-12 -41q0 -27 19 -47q19 -21 57 -21
q31 0 56 17q23 16 37 44z" />
    <glyph glyph-name="Ecaron" unicode="&#x11a;" horiz-adv-x="652" 
d="M529 883l-186 -159l-187 159l68 69l119 -99l119 99zM222 130h362v-130h-501v700h495v-130h-356v-149h281v-122h-281v-169z" />
    <glyph glyph-name="ecaron" unicode="&#x11b;" horiz-adv-x="652" 
d="M528 883l-186 -159l-187 159l68 69l119 -99l119 99zM222 130h362v-130h-501v700h495v-130h-356v-149h281v-122h-281v-169z" />
    <glyph glyph-name="Gcircumflex" unicode="&#x11c;" horiz-adv-x="793" 
d="M205 798l187 159l186 -159l-67 -69l-119 99l-119 -99zM614 73h-1l-3 -2q-13 -15 -36 -31q-22 -15 -51 -27q-26 -11 -60 -19q-29 -7 -66 -7q-74 0 -141 26q-65 27 -115 75q-49 48 -78 116q-28 66 -28 147q0 78 29 147q29 68 78 116t116 75q66 27 141 27q106 -2 188 -51
q83 -50 131 -135l-142 -37q-29 40 -76 62q-49 23 -100 23q-48 0 -90 -17q-40 -16 -69 -47t-44 -72q-15 -42 -15 -91q0 -51 17 -94q16 -41 47 -72q29 -29 72 -46q41 -16 91 -16q44 0 80 11q33 10 60 29q25 18 42 39q16 21 24 41v30h-194v113h313v-385h-120v57v15z" />
    <glyph glyph-name="gcircumflex" unicode="&#x11d;" horiz-adv-x="793" 
d="M205 798l187 159l186 -159l-67 -69l-119 99l-119 -99zM614 73h-1l-3 -2q-13 -15 -36 -31q-22 -15 -51 -27q-26 -11 -60 -19q-29 -7 -66 -7q-74 0 -141 26q-65 27 -115 75q-49 48 -78 116q-28 66 -28 147q0 78 29 147q29 68 78 116t116 75q66 27 141 27q106 -2 188 -51
q83 -50 131 -135l-142 -37q-29 40 -76 62q-49 23 -100 23q-48 0 -90 -17q-40 -16 -69 -47t-44 -72q-15 -42 -15 -91q0 -51 17 -94q16 -41 47 -72q29 -29 72 -46q41 -16 91 -16q44 0 80 11q33 10 60 29q25 18 42 39q16 21 24 41v30h-194v113h313v-385h-120v57v15z" />
    <glyph glyph-name="Gbreve" unicode="&#x11e;" horiz-adv-x="793" 
d="M215 886h102l1 -2q6 -23 27 -41t53 -18q30 0 51 18t27 41h100q-7 -31 -24 -58q-16 -27 -40 -46q-24 -20 -52 -30q-27 -10 -62 -10q-34 0 -65 11q-30 11 -54 30t-40 46t-24 59zM614 73h-1l-3 -2q-13 -15 -36 -31q-22 -15 -51 -27q-26 -11 -60 -19q-29 -7 -66 -7
q-74 0 -141 26q-65 27 -115 75q-49 48 -78 116q-28 66 -28 147q0 78 29 147q29 68 78 116t116 75q66 27 141 27q106 -2 188 -51q83 -50 131 -135l-142 -37q-29 40 -76 62q-49 23 -100 23q-48 0 -90 -17q-40 -16 -69 -47t-44 -72q-15 -42 -15 -91q0 -51 17 -94q16 -41 47 -72
q29 -29 72 -46q41 -16 91 -16q44 0 80 11q33 10 60 29q25 18 42 39q16 21 24 41v30h-194v113h313v-385h-120v57v15z" />
    <glyph glyph-name="gbreve" unicode="&#x11f;" horiz-adv-x="793" 
d="M215 886h102l1 -2q6 -23 27 -41t53 -18q30 0 51 18t27 41h100q-7 -31 -24 -58q-16 -27 -40 -46q-24 -20 -52 -30q-27 -10 -62 -10q-34 0 -65 11q-30 11 -54 30t-40 46t-24 59zM614 73h-1l-3 -2q-13 -15 -36 -31q-22 -15 -51 -27q-26 -11 -60 -19q-29 -7 -66 -7
q-74 0 -141 26q-65 27 -115 75q-49 48 -78 116q-28 66 -28 147q0 78 29 147q29 68 78 116t116 75q66 27 141 27q106 -2 188 -51q83 -50 131 -135l-142 -37q-29 40 -76 62q-49 23 -100 23q-48 0 -90 -17q-40 -16 -69 -47t-44 -72q-15 -42 -15 -91q0 -51 17 -94q16 -41 47 -72
q29 -29 72 -46q41 -16 91 -16q44 0 80 11q33 10 60 29q25 18 42 39q16 21 24 41v30h-194v113h313v-385h-120v57v15z" />
    <glyph glyph-name="Gdotaccent" unicode="&#x120;" horiz-adv-x="793" 
d="M395 764h-2q-27 0 -46 19t-19 48q0 26 20 46q19 19 47 19q27 0 46 -19t19 -46q0 -29 -19 -48t-46 -19zM614 73h-1l-3 -2q-13 -15 -36 -31q-22 -15 -51 -27q-26 -11 -60 -19q-29 -7 -66 -7q-74 0 -141 26q-65 27 -115 75q-49 48 -78 116q-28 66 -28 147q0 78 29 147
q29 68 78 116t116 75q66 27 141 27q106 -2 188 -51q83 -50 131 -135l-142 -37q-29 40 -76 62q-49 23 -100 23q-48 0 -90 -17q-40 -16 -69 -47t-44 -72q-15 -42 -15 -91q0 -51 17 -94q16 -41 47 -72q29 -29 72 -46q41 -16 91 -16q44 0 80 11q33 10 60 29q25 18 42 39
q16 21 24 41v30h-194v113h313v-385h-120v57v15z" />
    <glyph glyph-name="gdotaccent" unicode="&#x121;" horiz-adv-x="793" 
d="M395 764h-2q-27 0 -46 19t-19 48q0 26 20 46q19 19 47 19q27 0 46 -19t19 -46q0 -29 -19 -48t-46 -19zM614 73h-1l-3 -2q-13 -15 -36 -31q-22 -15 -51 -27q-26 -11 -60 -19q-29 -7 -66 -7q-74 0 -141 26q-65 27 -115 75q-49 48 -78 116q-28 66 -28 147q0 78 29 147
q29 68 78 116t116 75q66 27 141 27q106 -2 188 -51q83 -50 131 -135l-142 -37q-29 40 -76 62q-49 23 -100 23q-48 0 -90 -17q-40 -16 -69 -47t-44 -72q-15 -42 -15 -91q0 -51 17 -94q16 -41 47 -72q29 -29 72 -46q41 -16 91 -16q44 0 80 11q33 10 60 29q25 18 42 39
q16 21 24 41v30h-194v113h313v-385h-120v57v15z" />
    <glyph glyph-name="Gcommaaccent" unicode="&#x122;" horiz-adv-x="793" 
d="M613 75h-1l-3 -2q-13 -15 -36 -31q-23 -15 -51 -27q-33 -14 -60 -19q-29 -7 -66 -7q-74 0 -141 26q-65 27 -115 75q-49 48 -78 116q-28 66 -28 147q0 78 29 147q29 68 78 116t116 75q66 27 141 27q106 -2 188 -51q83 -50 131 -135l-142 -37q-29 40 -76 62q-49 23 -100 23
q-48 0 -90 -17q-40 -16 -69 -47t-44 -72q-15 -42 -15 -91q0 -51 17 -94q16 -41 47 -72q29 -29 72 -46q41 -16 91 -16q44 0 80 11q33 10 60 29q26 18 42 39t24 41v30h-194v113h313v-385h-120v57v15zM381 -166l12 4l-13 4q-16 1 -33 17q-16 15 -16 41q0 27 19 45q20 18 46 18
q25 0 45 -20q19 -19 19 -53q0 -24 -7 -45q-7 -23 -21 -45q-14 -24 -31 -42q-20 -21 -37 -36h-49q12 8 24 21t21 30t15 33t6 28z" />
    <glyph glyph-name="gcommaaccent" unicode="&#x123;" horiz-adv-x="793" 
d="M613 75h-1l-3 -2q-13 -15 -36 -31q-23 -15 -51 -27q-33 -14 -60 -19q-29 -7 -66 -7q-74 0 -141 26q-65 27 -115 75q-49 48 -78 116q-28 66 -28 147q0 78 29 147q29 68 78 116t116 75q66 27 141 27q106 -2 188 -51q83 -50 131 -135l-142 -37q-29 40 -76 62q-49 23 -100 23
q-48 0 -90 -17q-40 -16 -69 -47t-44 -72q-15 -42 -15 -91q0 -51 17 -94q16 -41 47 -72q29 -29 72 -46q41 -16 91 -16q44 0 80 11q33 10 60 29q26 18 42 39t24 41v30h-194v113h313v-385h-120v57v15zM381 -166l12 4l-13 4q-16 1 -33 17q-16 15 -16 41q0 27 19 45q20 18 46 18
q25 0 45 -20q19 -19 19 -53q0 -24 -7 -45q-7 -23 -21 -45q-14 -24 -31 -42q-20 -21 -37 -36h-49q12 8 24 21t21 30t15 33t6 28z" />
    <glyph glyph-name="Hcircumflex" unicode="&#x124;" horiz-adv-x="747" 
d="M370 830l-119 -99l-68 69l187 159l186 -159l-67 -69zM525 700h139v-700h-139v289h-303v-289h-139v700h139v-280h303v280z" />
    <glyph glyph-name="hcircumflex" unicode="&#x125;" horiz-adv-x="747" 
d="M370 830l-119 -99l-68 69l187 159l186 -159l-67 -69zM525 700h139v-700h-139v289h-303v-289h-139v700h139v-280h303v280z" />
    <glyph glyph-name="Hbar" unicode="&#x126;" horiz-adv-x="747" 
d="M733 633v-114h-69v-519h-139v289h-303v-289h-139v519h-69v114h69v67h139v-67h303v67h139v-67h69zM525 420v99h-303v-99h303z" />
    <glyph glyph-name="hbar" unicode="&#x127;" horiz-adv-x="747" 
d="M733 633v-114h-69v-519h-139v289h-303v-289h-139v519h-69v114h69v67h139v-67h303v67h139v-67h69zM525 420v99h-303v-99h303z" />
    <glyph glyph-name="Imacron" unicode="&#x12a;" horiz-adv-x="305" 
d="M-11 878h338v-108h-338v108zM222 0h-139v700h139v-700z" />
    <glyph glyph-name="imacron" unicode="&#x12b;" horiz-adv-x="305" 
d="M-11 878h338v-108h-338v108zM222 0h-139v700h139v-700z" />
    <glyph glyph-name="Iogonek" unicode="&#x12e;" horiz-adv-x="305" 
d="M225 -96l73 -46h-1q-25 -49 -70 -76t-96 -27q-36 0 -69 11q-32 10 -54 30t-35 48q-13 27 -13 65q0 33 12 60q10 22 31 45q19 19 41 30q21 10 38 12v642h139v-699h-43q-18 0 -41 -5q-21 -4 -39 -15t-30 -27t-12 -41q0 -27 19 -47q19 -21 57 -21q31 0 56 17q23 16 37 44z
" />
    <glyph glyph-name="iogonek" unicode="&#x12f;" horiz-adv-x="305" 
d="M225 -96l73 -46h-1q-25 -49 -70 -76t-96 -27q-36 0 -69 11q-32 10 -54 30t-35 48q-13 27 -13 65q0 33 12 60q10 22 31 45q19 19 41 30q21 10 38 12v642h139v-699h-43q-18 0 -41 -5q-21 -4 -39 -15t-30 -27t-12 -41q0 -27 19 -47q19 -21 57 -21q31 0 56 17q23 16 37 44z
" />
    <glyph glyph-name="Idotaccent" unicode="&#x130;" horiz-adv-x="305" 
d="M153 766h-2q-27 0 -46 19t-19 48q0 26 20 46q19 19 47 19q27 0 46 -19t19 -46q0 -29 -19 -48t-46 -19zM222 0h-139v700h139v-700z" />
    <glyph glyph-name="dotlessi" unicode="&#x131;" horiz-adv-x="305" 
d="M222 0h-139v700h139v-700z" />
    <glyph glyph-name="IJ" unicode="&#x132;" horiz-adv-x="962" 
d="M223 -4h-139v699h139v-699zM755 700h139l1 -401q0 -78 -22 -135q-23 -58 -63 -99q-40 -40 -97 -61q-58 -20 -127 -20q-48 0 -95 14q-43 11 -81 37q-35 23 -64 57q-28 32 -43 72l137 37q20 -41 57 -63t89 -22q82 0 125 48q44 49 44 134v402z" />
    <glyph glyph-name="ij" unicode="&#x133;" horiz-adv-x="962" 
d="M223 -4h-139v699h139v-699zM755 700h139l1 -401q0 -78 -22 -135q-23 -58 -63 -99q-40 -40 -97 -61q-58 -20 -127 -20q-48 0 -95 14q-43 11 -81 37q-35 23 -64 57q-28 32 -43 72l137 37q20 -41 57 -63t89 -22q82 0 125 48q44 49 44 134v402z" />
    <glyph glyph-name="Jcircumflex" unicode="&#x134;" horiz-adv-x="671" 
d="M345 795l187 159l186 -159l-67 -69l-119 99l-119 -99zM464 700h139l1 -401q0 -78 -22 -135q-22 -58 -63 -99q-40 -40 -97 -61q-58 -20 -127 -20q-48 0 -95 14q-42 11 -81 37q-35 23 -64 57q-28 32 -43 72l137 37q19 -41 57 -63q37 -22 89 -22q81 0 125 48q44 49 44 134
v402z" />
    <glyph glyph-name="jcircumflex" unicode="&#x135;" horiz-adv-x="671" 
d="M345 795l187 159l186 -159l-67 -69l-119 99l-119 -99zM464 700h139l1 -401q0 -78 -22 -135q-22 -58 -63 -99q-40 -40 -97 -61q-58 -20 -127 -20q-48 0 -95 14q-42 11 -81 37q-35 23 -64 57q-28 32 -43 72l137 37q19 -41 57 -63q37 -22 89 -22q81 0 125 48q44 49 44 134
v402z" />
    <glyph glyph-name="Kcommaaccent" unicode="&#x136;" horiz-adv-x="718" 
d="M391 408l302 -406h-167l-229 314l-78 -78v-236h-139v700h139v-138q0 -97 -1 -121q-2 -36 0 -36h1q1 0 27 27q17 18 75 76l192 192h171zM359 -162l-12 2l-1 2q-16 1 -33 17q-16 15 -16 41q0 27 19 45q20 18 46 18q25 0 45 -20q19 -19 19 -53q0 -24 -7 -45q-7 -23 -21 -45
q-14 -24 -31 -42q-20 -21 -37 -36h-49q12 8 24 21t21 30t15 33t6 28z" />
    <glyph glyph-name="kcommaaccent" unicode="&#x137;" horiz-adv-x="718" 
d="M391 408l302 -406h-167l-229 314l-78 -78v-236h-139v700h139v-138q0 -97 -1 -121q-2 -36 0 -36h1q1 0 27 27q17 18 75 76l192 192h171zM360 -162l-12 2l-1 2q-16 1 -33 17q-16 15 -16 41q0 27 19 45t46 18q25 0 45 -20q19 -19 19 -53q0 -24 -7 -45q-8 -23 -21 -45
q-14 -24 -31 -42q-20 -21 -37 -36h-49q12 8 24 21t21 30t15 33t6 28z" />
    <glyph glyph-name="Lacute" unicode="&#x139;" horiz-adv-x="588" 
d="M325 834l-238 -103l-41 74l231 124zM222 130h346v-130h-485v700h139v-570z" />
    <glyph glyph-name="lacute" unicode="&#x13a;" horiz-adv-x="588" 
d="M325 834l-238 -103l-41 74l231 124zM222 130h346v-130h-485v700h139v-570z" />
    <glyph glyph-name="Lcommaaccent" unicode="&#x13b;" horiz-adv-x="588" 
d="M221 132h346v-130h-485v700h139v-570zM328 -162l-12 2l-1 2q-16 1 -33 17q-16 15 -16 41q0 27 19 45t46 18q25 0 45 -20q19 -19 19 -53q0 -24 -7 -45q-8 -23 -21 -45q-14 -24 -31 -42q-20 -21 -37 -36h-49q12 8 24 21t21 30t15 33t6 28z" />
    <glyph glyph-name="lcommaaccent" unicode="&#x13c;" horiz-adv-x="588" 
d="M221 132h346v-130h-485v700h139v-570zM283 -162l-12 2l-1 2q-16 1 -33 17q-16 15 -16 41q0 27 19 45q20 18 46 18q25 0 45 -20q19 -19 19 -53q0 -24 -7 -45q-7 -23 -21 -45q-14 -24 -31 -42q-20 -21 -37 -36h-49q12 8 24 21t21 30t15 33t6 28z" />
    <glyph glyph-name="Lcaron" unicode="&#x13d;" horiz-adv-x="588" 
d="M392 579l-13 2l-3 -4q-20 1 -36 18q-17 17 -17 45t21 48q22 20 50 20t48 -21q20 -22 20 -56q0 -21 -8 -47q-8 -24 -21 -48q-13 -22 -32 -45t-39 -38h-52q12 9 24 24q14 17 23 33q9 15 16 35q6 17 6 30zM222 130h346v-130h-485v700h139v-570z" />
    <glyph glyph-name="lcaron" unicode="&#x13e;" horiz-adv-x="588" 
d="M374 582l-14 1l-1 -2q-18 1 -36 18t-18 45t21 48q22 20 50 20q29 0 48 -22q20 -23 20 -57q0 -21 -8 -47q-8 -24 -21 -48q-13 -22 -32 -45t-39 -38h-53q12 9 24 24q14 17 23 33q9 15 16 35q6 17 6 30zM222 130h346v-130h-485v700h139v-570z" />
    <glyph glyph-name="Ldot" unicode="&#x13f;" horiz-adv-x="588" 
d="M222 130h346v-130h-485v700h139v-570zM409 321q-27 0 -46 19t-19 48q0 27 19 46t46 19q29 0 48 -19t19 -46q0 -29 -19 -48t-48 -19z" />
    <glyph glyph-name="ldot" unicode="&#x140;" horiz-adv-x="588" 
d="M222 130h346v-130h-485v700h139v-570zM409 321q-27 0 -46 19t-19 48q0 27 19 46t46 19q29 0 48 -19t19 -46q0 -29 -19 -48t-48 -19z" />
    <glyph glyph-name="Lslash" unicode="&#x141;" horiz-adv-x="588" 
d="M222 130h346v-130h-485v700h139v-279l254 131v-132l-254 -130v-160z" />
    <glyph glyph-name="lslash" unicode="&#x142;" horiz-adv-x="588" 
d="M222 130h346v-130h-485v700h139v-279l254 131v-132l-254 -130v-160z" />
    <glyph glyph-name="Nacute" unicode="&#x143;" horiz-adv-x="776" 
d="M502 928l48 -95l-238 -103l-41 74zM554 700h139l-2 -700h-131l-199 269q-24 31 -48 66t-45 63q-28 38 -34 47l-13 19h-1v-18v-50v-75v-96v-225h-139v699h131l203 -273l42 -56q28 -37 45 -61q21 -30 36 -51l15 -20h1v20v52v75v86v229z" />
    <glyph glyph-name="nacute" unicode="&#x144;" horiz-adv-x="776" 
d="M502 928l48 -95l-238 -103l-41 74zM554 700h139l-2 -700h-131l-199 269q-24 31 -48 66t-45 63q-28 38 -34 47l-13 19h-1v-18v-50v-75v-96v-225h-139v699h131l203 -273l42 -56q28 -37 45 -61q21 -30 36 -51l15 -20h1v20v52v75v86v229z" />
    <glyph glyph-name="Ncommaaccent" unicode="&#x145;" horiz-adv-x="776" 
d="M553 702h139l-2 -701h-131l-199 270q-24 31 -48 66t-45 63q-28 38 -34 47l-13 19h-1v-18v-50v-75v-96v-226h-139v700h131l203 -273l42 -56q28 -37 45 -61q21 -30 36 -51l15 -20h1v20v52v75v86v229zM380 -166l12 4l-13 4q-16 1 -33 17q-16 15 -16 41q0 27 19 45t46 18
q25 0 45 -20q19 -19 19 -53q0 -24 -7 -45q-8 -23 -21 -45q-14 -24 -31 -42q-20 -21 -37 -36h-49q12 8 24 21t21 30t15 33t6 28z" />
    <glyph glyph-name="ncommaaccent" unicode="&#x146;" horiz-adv-x="776" 
d="M553 702h139l-2 -701h-131l-199 270q-24 31 -48 66t-45 63q-28 38 -34 47l-13 19h-1v-18v-50v-75v-96v-226h-139v700h131l203 -273l42 -56q28 -37 45 -61q21 -30 36 -51l15 -20h1v20v52v75v86v229zM380 -166l12 4l-13 4q-16 1 -33 17q-16 15 -16 41q0 27 19 45t46 18
q25 0 45 -20q19 -19 19 -53q0 -24 -7 -45q-8 -23 -21 -45q-14 -24 -31 -42q-20 -21 -37 -36h-49q12 8 24 21t21 30t15 33t6 28z" />
    <glyph glyph-name="Ncaron" unicode="&#x147;" horiz-adv-x="776" 
d="M693 700h-139l1 -232v-86v-75v-52v-19h-1l-15 21q-15 21 -36 51q-25 36 -45 62l-42 56l-203 273h-131v-699h139v225v96v75v50v18h1l14 -18q4 -6 15.5 -22t18.5 -25q21 -29 45 -63t48 -66l199 -270h131v700zM389 724l-187 159l68 69l119 -99l119 99l67 -69z" />
    <glyph glyph-name="ncaron" unicode="&#x148;" horiz-adv-x="776" 
d="M693 700h-139l1 -232v-86v-75v-52v-19h-1l-15 21q-15 21 -36 51q-25 36 -45 62l-42 56l-203 273h-131v-699h139v225v96v75v50v18h1l14 -18q4 -6 15.5 -22t18.5 -25q21 -29 45 -63t48 -66l199 -270h131v700zM389 724l-187 159l68 69l119 -99l119 99l67 -69z" />
    <glyph glyph-name="Eng" unicode="&#x14a;" horiz-adv-x="776" 
d="M554 700h139l-3 -700q0 -52 -16 -93q-17 -42 -46 -73q-30 -31 -70 -49t-87 -18h-41v112h29q47 0 74 33t27 88l-199 269q-24 31 -48 66t-45 63q-28 38 -34 47l-13 19h-1v-18v-50v-75v-96v-225h-139v699h131l203 -273l42 -56q28 -37 45 -61q21 -30 36 -51l15 -20h1v20v52
v75v86v229z" />
    <glyph glyph-name="eng" unicode="&#x14b;" horiz-adv-x="776" 
d="M554 700h139l-3 -700q0 -52 -16 -93q-17 -42 -46 -73q-30 -31 -70 -49t-87 -18h-41v112h29q47 0 74 33t27 88l-199 269q-24 31 -48 66t-45 63q-28 38 -34 47l-13 19h-1v-18v-50v-75v-96v-225h-139v699h131l203 -273l42 -56q28 -37 45 -61q21 -30 36 -51l15 -20h1v20v52
v75v86v229z" />
    <glyph glyph-name="Omacron" unicode="&#x14c;" horiz-adv-x="803" 
d="M237 872h339v-108h-339v108zM37 346l-3 -2q0 78 29 147q29 68 78 116t116 75q66 27 141 27t141 -27q67 -27 116 -75q50 -48 78 -115q29 -69 29 -147q0 -81 -28 -147q-28 -67 -78 -115q-49 -48 -116 -75q-67 -26 -141 -26t-141 26q-65 27 -115 75q-49 48 -78 116
q-28 66 -28 147zM183 350l-1 -4q0 -51 16 -92q16 -42 45 -72q28 -29 69 -46q39 -16 88 -16q47 0 89 17q40 16 69 47q28 30 45 72q16 41 16 92q0 52 -16 93q-17 42 -45 72q-29 31 -69 47q-42 17 -88 17q-49 0 -88 -16q-41 -17 -69 -46q-28 -30 -45 -72q-16 -41 -16 -93z" />
    <glyph glyph-name="omacron" unicode="&#x14d;" horiz-adv-x="803" 
d="M235 872h339v-108h-339v108zM37 346l-3 -2q0 78 29 147q29 68 78 116t116 75q66 27 141 27t141 -27q67 -27 116 -75q50 -48 78 -115q29 -69 29 -147q0 -81 -28 -147q-28 -67 -78 -115q-49 -48 -116 -75q-67 -26 -141 -26t-141 26q-65 27 -115 75q-49 48 -78 116
q-28 66 -28 147zM183 350l-1 -4q0 -51 16 -92q16 -42 45 -72q28 -29 69 -46q39 -16 88 -16q47 0 89 17q40 16 69 47q28 30 45 72q16 41 16 92q0 52 -16 93q-17 42 -45 72q-29 31 -69 47q-42 17 -88 17q-49 0 -88 -16q-41 -17 -69 -46q-28 -30 -45 -72q-16 -41 -16 -93z" />
    <glyph glyph-name="Ohungarumlaut" unicode="&#x150;" horiz-adv-x="803" 
d="M401 790l-152 -65l-40 74l231 124l40 -79l147 79l48 -95l-239 -103zM400 710l-3 -2q75 0 141 -27q67 -27 116 -75q50 -48 78 -115q29 -69 29 -147q0 -81 -28 -147q-28 -67 -78 -115q-49 -48 -116 -75q-67 -26 -141 -26t-141 26q-65 27 -115 75q-49 48 -78 116
q-28 66 -28 147q0 78 29 147q29 68 78 116t116 75q66 27 141 27zM401 123l-1 -4q47 0 89 17q40 16 69 47q28 30 45 72q16 41 16 92q0 52 -16 93q-17 42 -45 72q-29 31 -69 47q-42 17 -88 17q-49 0 -88 -16q-41 -17 -69 -46q-28 -30 -45 -72q-16 -41 -16 -93q0 -51 16 -92
q17 -42 45 -72q28 -29 69 -46q39 -16 88 -16z" />
    <glyph glyph-name="ohungarumlaut" unicode="&#x151;" horiz-adv-x="803" 
d="M399 790l-152 -65l-40 74l231 124l40 -79l147 79l48 -95l-239 -103zM400 710l-3 -2q75 0 141 -27q67 -27 116 -75q50 -48 78 -115q29 -69 29 -147q0 -81 -28 -147q-28 -67 -78 -115q-49 -48 -116 -75q-67 -26 -141 -26t-141 26q-65 27 -115 75q-49 48 -78 116
q-28 66 -28 147q0 78 29 147q29 68 78 116t116 75q66 27 141 27zM401 123l-1 -4q47 0 89 17q40 16 69 47q28 30 45 72q16 41 16 92q0 52 -16 93q-17 42 -45 72q-29 31 -69 47q-42 17 -88 17q-49 0 -88 -16q-41 -17 -69 -46q-28 -30 -45 -72q-16 -41 -16 -93q0 -51 16 -92
q17 -42 45 -72q28 -29 69 -46q39 -16 88 -16z" />
    <glyph glyph-name="OE" unicode="&#x152;" horiz-adv-x="1045" 
d="M615 131h361l-1 -127h-497q-21 -3 -43 -3h-45q-72 0 -138 26q-64 25 -112 72t-75 111t-27 143t27 143t75 111t112 72q66 26 138 26h37q27 0 52 -4h491v-130h-355v-149h281v-122h-281v-169zM480 149v402l-1 1q-33 16 -89 16q-46 0 -85 -15q-40 -15 -66 -43
q-27 -28 -42 -69t-15 -90t15 -90t42 -69q28 -29 66 -44q39 -15 86 -15q56 0 89 16z" />
    <glyph glyph-name="oe" unicode="&#x153;" horiz-adv-x="1045" 
d="M615 131h361l-1 -127h-497q-21 -3 -43 -3h-45q-72 0 -138 26q-64 25 -112 72t-75 111t-27 143t27 143t75 111t112 72q66 26 138 26h37q27 0 52 -4h491v-130h-355v-149h281v-122h-281v-169zM480 149v402l-1 1q-33 16 -89 16q-46 0 -85 -15q-40 -15 -66 -43
q-27 -28 -42 -69t-15 -90t15 -90t42 -69q28 -29 66 -44q39 -15 86 -15q56 0 89 16z" />
    <glyph glyph-name="Racute" unicode="&#x154;" horiz-adv-x="666" 
d="M481 832l-238 -103l-41 74l231 124zM630 -1h-156l-138 238h-8h-106v-238h-139v699h245q67 0 116 -16q52 -17 86 -48q34 -32 54 -75q19 -42 19 -96q0 -73 -34 -123q-35 -52 -99 -77zM222 570v-207l123 -2q29 0 50 9q22 9 35 24q14 15 21 33q7 17 7 38q0 22 -7 39
q-7 18 -21 33q-13 15 -35 24q-21 9 -49 9h-124z" />
    <glyph glyph-name="racute" unicode="&#x155;" horiz-adv-x="666" 
d="M489 832l-238 -103l-41 74l231 124zM630 -1h-156l-138 238h-8h-106v-238h-139v699h245q67 0 116 -16q52 -17 86 -48q34 -32 54 -75q19 -42 19 -96q0 -73 -34 -123q-35 -52 -99 -77zM222 570v-207l123 -2q29 0 50 9q22 9 35 24q14 15 21 33q7 17 7 38q0 22 -7 39
q-7 18 -21 33q-13 15 -35 24q-21 9 -49 9h-124z" />
    <glyph glyph-name="Rcommaaccent" unicode="&#x156;" horiz-adv-x="666" 
d="M469 265l160 -265h-155l-139 239h-8h-106v-239h-139v700h245q67 0 116 -16q52 -17 86 -48q35 -32 54 -75q19 -42 19 -96q0 -73 -34 -123q-35 -52 -99 -77zM221 572v-207l123 -2q29 0 50 9q22 9 35 24t21 33q7 17 7 38q0 22 -7 39q-8 18 -21 33t-35 24q-21 9 -49 9h-124z
M331 -162l-12 2l-1 2q-16 1 -33 17q-16 15 -16 41q0 27 19 45q20 18 46 18q25 0 45 -20q19 -19 19 -53q0 -24 -7 -45q-7 -23 -21 -45q-14 -24 -31 -42q-20 -21 -37 -36h-49q12 8 24 21t21 30t15 33t6 28z" />
    <glyph glyph-name="rcommaaccent" unicode="&#x157;" horiz-adv-x="666" 
d="M469 265l160 -265h-155l-139 239h-8h-106v-239h-139v700h245q67 0 116 -16q52 -17 86 -48q35 -32 54 -75q19 -42 19 -96q0 -73 -34 -123q-35 -52 -99 -77zM221 572v-207l123 -2q29 0 50 9q22 9 35 24t21 33q7 17 7 38q0 22 -7 39q-8 18 -21 33t-35 24q-21 9 -49 9h-124z
M343 -162l-12 2l-1 2q-16 1 -33 17q-16 15 -16 41q0 27 19 45q20 18 46 18q25 0 45 -20q19 -19 19 -53q0 -24 -7 -45q-7 -23 -21 -45q-14 -24 -31 -42q-20 -21 -37 -36h-49q12 8 24 21t21 30t15 33t6 28z" />
    <glyph glyph-name="Rcaron" unicode="&#x158;" horiz-adv-x="666" 
d="M504 881l-186 -159l-187 159l68 69l119 -99l119 99zM630 -1h-156l-138 238h-8h-106v-238h-139v699h245q67 0 116 -16q52 -17 86 -48q34 -32 54 -75q19 -42 19 -96q0 -73 -34 -123q-35 -52 -99 -77zM222 570v-207l123 -2q29 0 50 9q22 9 35 24q14 15 21 33q7 17 7 38
q0 22 -7 39q-7 18 -21 33q-13 15 -35 24q-21 9 -49 9h-124z" />
    <glyph glyph-name="rcaron" unicode="&#x159;" horiz-adv-x="666" 
d="M504 881l-186 -159l-187 159l68 69l119 -99l119 99zM630 -1h-156l-138 238h-8h-106v-238h-139v699h245q67 0 116 -16q52 -17 86 -48q34 -32 54 -75q19 -42 19 -96q0 -73 -34 -123q-35 -52 -99 -77zM222 570v-207l123 -2q29 0 50 9q22 9 35 24q14 15 21 33q7 17 7 38
q0 22 -7 39q-7 18 -21 33q-13 15 -35 24q-21 9 -49 9h-124z" />
    <glyph glyph-name="Sacute" unicode="&#x15a;" horiz-adv-x="608" 
d="M422 929l48 -95l-238 -103l-41 74zM571 524l-134 -37h-8q-6 24 -20 45q-13 19 -32 33t-41 20t-45 6q-47 0 -76 -21q-28 -21 -28 -52q0 -20 14 -36q14 -15 37 -27q21 -10 54 -22l63 -21q32 -10 77 -31q42 -19 71 -43q31 -26 51 -60q20 -35 20 -81q0 -48 -19 -86t-54 -67
t-84 -44q-48 -16 -109 -16q-112 0 -184 56q-74 57 -102 153l134 36q6 -25 19 -46q13 -23 33 -39q19 -16 47 -27q26 -10 60 -10q57 0 86 24t29 59q0 28 -16 45q-16 18 -43 31q-26 13 -62 24q-35 10 -72 24q-25 8 -64 26q-34 16 -60 37q-27 23 -45 54t-18 78q0 42 19 77
q20 37 54 65q35 29 81 45q45 16 102 16q48 0 93 -14q43 -14 78 -39q36 -26 59 -60q25 -36 35 -75z" />
    <glyph glyph-name="sacute" unicode="&#x15b;" horiz-adv-x="608" 
d="M430 929l48 -95l-238 -103l-41 74zM571 524l-134 -37h-8q-6 24 -20 45q-13 19 -32 33t-41 20t-45 6q-47 0 -76 -21q-28 -21 -28 -52q0 -20 14 -36q14 -15 37 -27q21 -10 54 -22l63 -21q32 -10 77 -31q42 -19 71 -43q31 -26 51 -60q20 -35 20 -81q0 -48 -19 -86t-54 -67
t-84 -44q-48 -16 -109 -16q-112 0 -184 56q-74 57 -102 153l134 36q6 -25 19 -46q13 -23 33 -39q19 -16 47 -27q26 -10 60 -10q57 0 86 24t29 59q0 28 -16 45q-16 18 -43 31q-26 13 -62 24q-35 10 -72 24q-25 8 -64 26q-34 16 -60 37q-27 23 -45 54t-18 78q0 42 19 77
q20 37 54 65q35 29 81 45q45 16 102 16q48 0 93 -14q43 -14 78 -39q36 -26 59 -60q25 -36 35 -75z" />
    <glyph glyph-name="Scircumflex" unicode="&#x15c;" horiz-adv-x="608" 
d="M117 800l187 159l186 -159l-67 -69l-119 99l-119 -99zM571 524l-134 -37h-8q-6 24 -20 45q-13 19 -32 33t-41 20t-45 6q-47 0 -76 -21q-28 -21 -28 -52q0 -20 14 -36q14 -15 37 -27q21 -10 54 -22l63 -21q32 -10 77 -31q42 -19 71 -43q31 -26 51 -60q20 -35 20 -81
q0 -48 -19 -86t-54 -67t-84 -44q-48 -16 -109 -16q-112 0 -184 56q-74 57 -102 153l134 36q6 -25 19 -46q13 -23 33 -39q19 -16 47 -27q26 -10 60 -10q57 0 86 24t29 59q0 28 -16 45q-16 18 -43 31q-26 13 -62 24q-35 10 -72 24q-25 8 -64 26q-34 16 -60 37q-27 23 -45 54
t-18 78q0 42 19 77q20 37 54 65q35 29 81 45q45 16 102 16q48 0 93 -14q43 -14 78 -39q36 -26 59 -60q25 -36 35 -75z" />
    <glyph glyph-name="scircumflex" unicode="&#x15d;" horiz-adv-x="608" 
d="M117 800l187 159l186 -159l-67 -69l-119 99l-119 -99zM571 524l-134 -37h-8q-6 24 -20 45q-13 19 -32 33t-41 20t-45 6q-47 0 -76 -21q-28 -21 -28 -52q0 -20 14 -36q14 -15 37 -27q21 -10 54 -22l63 -21q32 -10 77 -31q42 -19 71 -43q31 -26 51 -60q20 -35 20 -81
q0 -48 -19 -86t-54 -67t-84 -44q-48 -16 -109 -16q-112 0 -184 56q-74 57 -102 153l134 36q6 -25 19 -46q13 -23 33 -39q19 -16 47 -27q26 -10 60 -10q57 0 86 24t29 59q0 28 -16 45q-16 18 -43 31q-26 13 -62 24q-35 10 -72 24q-25 8 -64 26q-34 16 -60 37q-27 23 -45 54
t-18 78q0 42 19 77q20 37 54 65q35 29 81 45q45 16 102 16q48 0 93 -14q43 -14 78 -39q36 -26 59 -60q25 -36 35 -75z" />
    <glyph glyph-name="Scedilla" unicode="&#x15e;" horiz-adv-x="608" 
d="M571 524l-134 -37l-11 -1q-6 24 -20 45q-13 19 -32 33t-41 20q-23 6 -45 6q-48 0 -76 -21t-28 -52q0 -20 14 -36q14 -15 37 -27q21 -10 54 -22l63 -21q32 -10 77 -31q42 -19 71 -43q32 -25 51 -60q20 -35 20 -81q0 -42 -15 -78q-15 -37 -43 -63q-29 -27 -69 -45
q-42 -17 -90 -23l-16 -43q22 0 41 -6t35 -20q15 -13 24 -32q9 -18 9 -42q0 -28 -9 -48t-24 -33q-14 -13 -36 -19q-21 -6 -45 -6h-106l29 74h77q20 0 29 9t9 22q0 14 -10 21q-11 8 -27 9h-92l39 112q-101 8 -166 62q-66 55 -93 146l134 36q6 -25 19 -46q13 -23 33 -39
q19 -16 47 -27q26 -10 60 -10q57 0 86 24t29 59q0 28 -16 45q-16 18 -43 31q-26 13 -62 24q-35 10 -72 24q-25 8 -64 26q-34 16 -60 37q-27 23 -45 54t-18 78q0 42 19 77q20 37 54 65q35 29 81 45q45 16 102 16q48 0 93 -14q43 -14 78 -39q36 -26 59 -60q25 -36 35 -75z" />
    <glyph glyph-name="scedilla" unicode="&#x15f;" horiz-adv-x="608" 
d="M571 524l-134 -37l-10 -4q-6 24 -20 45q-13 19 -32 33t-41 20t-45 6q-47 0 -76 -21q-28 -21 -28 -52q0 -20 14 -36q14 -15 37 -27q21 -10 54 -22l63 -21q32 -10 77 -31q42 -19 71 -43q31 -26 51 -60q20 -35 20 -81q0 -41 -15 -75q-15 -35 -42 -62t-66 -45
q-39 -17 -87 -24l-16 -44q22 0 41 -6t35 -20q15 -13 24 -32q9 -18 9 -42q0 -29 -9 -48t-24 -33q-14 -13 -36 -19q-21 -6 -45 -6h-106l29 74h77q20 0 29 9t9 22q0 14 -10 21q-11 7 -27 9h-92l38 112q-104 5 -171 61q-68 58 -95 148l134 36q6 -25 19 -46q13 -23 33 -39
q19 -16 47 -27q26 -10 60 -10q57 0 86 24t29 59q0 28 -16 45q-16 18 -43 31q-26 13 -62 24q-35 10 -72 24q-25 8 -64 26q-34 16 -60 37q-27 23 -45 54t-18 78q0 42 19 77q20 37 54 65q35 29 81 45q45 16 102 16q48 0 93 -14q43 -14 78 -39q36 -26 59 -60q25 -36 35 -75z" />
    <glyph glyph-name="Scaron" unicode="&#x160;" horiz-adv-x="608" 
d="M437 487l134 37l-3 -3q-10 39 -35 75q-23 34 -59 60q-34 26 -78 39q-45 14 -93 14q-57 0 -102 -16q-47 -17 -81 -45q-35 -29 -54 -64t-19 -77q0 -47 18 -78t45 -54q26 -21 60 -37q38 -18 64 -26q38 -14 72 -24q36 -11 62 -24q29 -14 44 -31q17 -19 17 -45q0 -35 -28 -59
q-29 -24 -85 -24q-34 0 -60 10t-46 27q-20 16 -33 39q-13 21 -19 46l-134 -36q28 -96 102 -153q72 -56 184 -56q62 0 110 16q49 15 84 44q34 28 54 68t20 86t-20 81t-51 60t-70 43q-45 21 -77 31l-63 21q-33 12 -54 22q-23 12 -37 27q-13 14 -13 36q0 32 29 53q28 21 77 21
q23 0 45 -6t41 -20t32 -33q14 -21 20 -45zM315 724l-187 159l68 69l119 -99l119 99l67 -69z" />
    <glyph glyph-name="scaron" unicode="&#x161;" horiz-adv-x="608" 
d="M437 487l134 37l-3 -3q-10 39 -35 75q-23 34 -59 60q-34 26 -78 39q-45 14 -93 14q-57 0 -102 -16q-47 -17 -81 -45q-35 -29 -54 -64t-19 -77q0 -47 18 -78t45 -54q26 -21 60 -37q38 -18 64 -26q38 -14 72 -24q36 -11 62 -24q29 -14 44 -31q17 -19 17 -45q0 -35 -28 -59
q-29 -24 -85 -24q-34 0 -60 10t-46 27q-20 16 -33 39q-13 21 -19 46l-134 -36q28 -96 102 -153q72 -56 184 -56q62 0 110 16q49 15 84 44q34 28 54 68t20 86t-20 81t-51 60t-70 43q-45 21 -77 31l-63 21q-33 12 -54 22q-23 12 -37 27q-13 14 -13 36q0 32 29 53q28 21 77 21
q23 0 45 -6t41 -20t32 -33q14 -21 20 -45zM323 724l-187 159l68 69l119 -99l119 99l67 -69z" />
    <glyph glyph-name="Tcommaaccent" unicode="&#x162;" horiz-adv-x="605" 
d="M371 0h-40l-25 -53q22 0 41 -6t35 -20q15 -13 24 -32q9 -18 9 -42q0 -29 -9 -48t-24 -33q-14 -13 -36 -19q-21 -6 -45 -6h-106l29 74h77q20 0 29 9t9 22q0 14 -10 21q-11 7 -27 9h-92l43 124h-21v570h-218v130h577v-130h-220v-570z" />
    <glyph glyph-name="tcommaaccent" unicode="&#x163;" horiz-adv-x="605" 
d="M371 0h-40l-25 -53q22 0 41 -6t35 -20q15 -13 24 -32q9 -18 9 -42q0 -29 -9 -48t-24 -33q-14 -13 -36 -19q-21 -6 -45 -6h-106l29 74h77q20 0 29 9t9 22q0 14 -10 21q-11 7 -27 9h-92l43 124h-21v570h-218v130h577v-130h-220v-570z" />
    <glyph glyph-name="Tcaron" unicode="&#x164;" horiz-adv-x="605" 
d="M502 883l-186 -159l-187 159l68 69l119 -99l119 99zM14 700h577v-130h-220v-570h-139v570h-218v130z" />
    <glyph glyph-name="tcaron" unicode="&#x165;" horiz-adv-x="605" 
d="M502 883l-186 -159l-187 159l68 69l119 -99l119 99zM14 700h577v-130h-220v-570h-139v570h-218v130z" />
    <glyph glyph-name="Tbar" unicode="&#x166;" horiz-adv-x="605" 
d="M591 570h-220v-150h109v-106h-109v-314h-139v314h-109v106h109v150h-218v130h577v-130z" />
    <glyph glyph-name="tbar" unicode="&#x167;" horiz-adv-x="605" 
d="M591 570h-220v-150h109v-106h-109v-314h-139v314h-109v106h109v150h-218v130h577v-130z" />
    <glyph glyph-name="Umacron" unicode="&#x16a;" horiz-adv-x="740" 
d="M205 877h339v-108h-339v108zM532 700h140l-1 -397q0 -76 -21 -136q-21 -59 -60 -100q-38 -39 -95 -61q-57 -20 -125 -20t-125 20q-57 22 -95 61q-39 41 -60 100q-21 60 -21 137v396h139v-394q0 -97 41 -144q40 -46 122 -46q80 0 120 46q41 47 41 144v394z" />
    <glyph glyph-name="umacron" unicode="&#x16b;" horiz-adv-x="740" 
d="M205 877h339v-108h-339v108zM532 700h140l-1 -397q0 -76 -21 -136q-21 -59 -60 -100q-38 -39 -95 -61q-57 -20 -125 -20t-125 20q-57 22 -95 61q-39 41 -60 100q-21 60 -21 137v396h139v-394q0 -97 41 -144q40 -46 122 -46q80 0 120 46q41 47 41 144v394z" />
    <glyph glyph-name="Ubreve" unicode="&#x16c;" horiz-adv-x="740" 
d="M190 887h102l1 -2q6 -23 27 -41t53 -18q30 0 51 18t27 41h100q-7 -31 -24 -58q-16 -27 -40 -46q-24 -20 -52 -30q-27 -10 -62 -10q-34 0 -65 11q-30 10 -54 30q-24 19 -40 46t-24 59zM532 700h140l-1 -397q0 -76 -21 -136q-21 -59 -60 -100q-38 -39 -95 -61
q-57 -20 -125 -20t-125 20q-57 22 -95 61q-39 41 -60 100q-21 60 -21 137v396h139v-394q0 -97 41 -144q40 -46 122 -46q80 0 120 46q41 47 41 144v394z" />
    <glyph glyph-name="ubreve" unicode="&#x16d;" horiz-adv-x="740" 
d="M190 887h102l1 -2q6 -23 27 -41t53 -18q30 0 51 18t27 41h100q-7 -31 -24 -58q-16 -27 -40 -46q-24 -20 -52 -30q-27 -10 -62 -10q-34 0 -65 11q-30 10 -54 30q-24 19 -40 46t-24 59zM532 700h140l-1 -397q0 -76 -21 -136q-21 -59 -60 -100q-38 -39 -95 -61
q-57 -20 -125 -20t-125 20q-57 22 -95 61q-39 41 -60 100q-21 60 -21 137v396h139v-394q0 -97 41 -144q40 -46 122 -46q80 0 120 46q41 47 41 144v394z" />
    <glyph glyph-name="Uring" unicode="&#x16e;" horiz-adv-x="740" 
d="M368 678l-2 -2q-27 0 -54 11q-24 10 -43 29q-19 18 -29 44q-11 27 -11 54q0 28 11 53q10 23 29 42t44 29q27 11 54 11t54 -11q25 -10 44 -29t29 -42q11 -25 11 -52t-11 -54q-10 -24 -29 -43t-43 -29q-27 -11 -54 -11zM370 763l-2 -2q23 0 39 16q17 17 17 39q0 25 -16 41
q-17 17 -39 17q-23 0 -39 -16t-16 -40q0 -22 17 -39q16 -16 39 -16zM532 700h140l-1 -397q0 -76 -21 -136q-21 -59 -60 -100q-38 -39 -95 -61q-57 -20 -125 -20t-125 20q-57 22 -95 61q-39 41 -60 100q-21 60 -21 137v396h139v-394q0 -97 41 -144q40 -46 122 -46
q80 0 120 46q41 47 41 144v394z" />
    <glyph glyph-name="uring" unicode="&#x16f;" horiz-adv-x="740" 
d="M368 678l-2 -2q-27 0 -54 11q-24 10 -43 29q-19 18 -29 44q-11 27 -11 54q0 28 11 53q10 23 29 42t44 29q27 11 54 11t54 -11q25 -10 44 -29t29 -42q11 -25 11 -52t-11 -54q-10 -24 -29 -43t-43 -29q-27 -11 -54 -11zM370 763l-2 -2q23 0 39 16q17 17 17 39q0 25 -16 41
q-17 17 -39 17q-23 0 -39 -16t-16 -40q0 -22 17 -39q16 -16 39 -16zM532 700h140l-1 -397q0 -76 -21 -136q-21 -59 -60 -100q-38 -39 -95 -61q-57 -20 -125 -20t-125 20q-57 22 -95 61q-39 41 -60 100q-21 60 -21 137v396h139v-394q0 -97 41 -144q40 -46 122 -46
q80 0 120 46q41 47 41 144v394z" />
    <glyph glyph-name="Uhungarumlaut" unicode="&#x170;" horiz-adv-x="740" 
d="M369 795l-152 -65l-40 74l231 124l40 -79l147 79l48 -95l-239 -103zM532 700h140l-1 -397q0 -76 -21 -136q-21 -59 -60 -100q-38 -39 -95 -61q-57 -20 -125 -20t-125 20q-57 22 -95 61q-39 41 -60 100q-21 60 -21 137v396h139v-394q0 -97 41 -144q40 -46 122 -46
q80 0 120 46q41 47 41 144v394z" />
    <glyph glyph-name="uhungarumlaut" unicode="&#x171;" horiz-adv-x="740" 
d="M369 795l-152 -65l-40 74l231 124l40 -79l147 79l48 -95l-239 -103zM532 700h140l-1 -397q0 -76 -21 -136q-21 -59 -60 -100q-38 -39 -95 -61q-57 -20 -125 -20t-125 20q-57 22 -95 61q-39 41 -60 100q-21 60 -21 137v396h139v-394q0 -97 41 -144q40 -46 122 -46
q80 0 120 46q41 47 41 144v394z" />
    <glyph glyph-name="Uogonek" unicode="&#x172;" horiz-adv-x="740" 
d="M672 700v-396l1 -2q0 -122 -51 -199q-49 -74 -143 -103q-28 -8 -61 -34q-27 -21 -27 -59q0 -25 18 -45q18 -19 50 -19q26 0 50 18q23 17 37 44l71 -47q-10 -21 -27 -40q-17 -18 -38 -32t-45 -21q-26 -8 -48 -8q-36 0 -65 10q-30 11 -52 28q-22 18 -36 44q-13 25 -13 57
q0 30 12 53q12 22 32 39q-125 11 -196 90q-72 81 -72 226v396h139v-394q0 -97 41 -144q40 -46 122 -46q80 0 120 46q41 47 41 144v394h140z" />
    <glyph glyph-name="uogonek" unicode="&#x173;" horiz-adv-x="740" 
d="M672 700v-396l1 -2q0 -122 -51 -199q-49 -74 -143 -103q-28 -8 -61 -34q-27 -21 -27 -59q0 -25 18 -45q18 -19 50 -19q26 0 50 18q23 17 37 44l71 -47q-10 -21 -27 -40q-17 -18 -38 -32t-45 -21q-26 -8 -48 -8q-36 0 -65 10q-30 11 -52 28q-22 18 -36 44q-13 25 -13 57
q0 30 12 53q12 22 32 39q-125 11 -196 90q-72 81 -72 226v396h139v-394q0 -97 41 -144q40 -46 122 -46q80 0 120 46q41 47 41 144v394h140z" />
    <glyph glyph-name="Wcircumflex" unicode="&#x174;" horiz-adv-x="1027" 
d="M323 800l187 159l186 -159l-67 -69l-119 99l-119 -99zM858 700h147l-220 -700h-129l-108 338q-19 59 -27 92q-8 32 -9 32h-1q-1 0 -7 -32q-7 -36 -25 -92l-108 -338h-130l-220 700h148l110 -378q13 -48 21 -78t9 -30h1q2 0 9 30t24 78l106 303h129l106 -303
q16 -48 24 -78t9 -30h1q2 0 9 30t21 78z" />
    <glyph glyph-name="wcircumflex" unicode="&#x175;" horiz-adv-x="1027" 
d="M317 800l187 159l186 -159l-67 -69l-119 99l-119 -99zM858 700h147l-220 -700h-129l-108 338q-19 59 -27 92q-8 32 -9 32h-1q-1 0 -7 -32q-7 -36 -25 -92l-108 -338h-130l-220 700h148l110 -378q13 -48 21 -78t9 -30h1q2 0 9 30t24 78l106 303h129l106 -303
q16 -48 24 -78t9 -30h1q2 0 9 30t21 78z" />
    <glyph glyph-name="Ycircumflex" unicode="&#x176;" horiz-adv-x="701" 
d="M158 800l187 159l186 -159l-67 -69l-119 99l-119 -99zM532 700h157l-272 -379v-321h-138v321l-269 379h156l144 -201q23 -33 26 -36q12 -15 13 -15h1q1 0 13 15q3 3 26 36z" />
    <glyph glyph-name="ycircumflex" unicode="&#x177;" horiz-adv-x="701" 
d="M159 800l187 159l186 -159l-67 -69l-119 99l-119 -99zM532 700h157l-272 -379v-321h-138v321l-269 379h156l144 -201q23 -33 26 -36q12 -15 13 -15h1q1 0 13 15q3 3 26 36z" />
    <glyph glyph-name="Ydieresis" unicode="&#x178;" horiz-adv-x="701" 
d="M216 766v-1q-28 0 -48 18q-19 18 -19 47q0 27 19 46t48 19q27 0 46 -19t19 -46q0 -28 -19 -46q-20 -18 -46 -18zM474 767v-1q-28 0 -48 18q-19 18 -19 47q0 27 19 46t48 19q27 0 46 -19t19 -46q0 -28 -19 -46q-20 -18 -46 -18zM532 700h157l-272 -379v-321h-138v321
l-269 379h156l144 -201q23 -33 26 -36q12 -15 13 -15h1q1 0 13 15q3 3 26 36z" />
    <glyph glyph-name="Zacute" unicode="&#x179;" horiz-adv-x="705" 
d="M473 925l48 -95l-238 -103l-41 74zM645 700v-130l-338 -382q-12 -13 -41 -45q-18 -19 -18 -21l1 -1l3 1q4 0 11.5 0.5t15.5 0.5q38 2 72 2h293v-129h-585v129l347 383q6 7 20 21q4 4 10.5 10t9.5 9l15 15l7 6l-1 1h-10h-25h-33h-35h-294v130h575z" />
    <glyph glyph-name="zacute" unicode="&#x17a;" horiz-adv-x="705" 
d="M473 925l48 -95l-238 -103l-41 74zM645 700v-130l-338 -382q-12 -13 -41 -45q-18 -19 -18 -21l1 -1l3 1q4 0 11.5 0.5t15.5 0.5q38 2 72 2h293v-129h-585v129l347 383q6 7 20 21q4 4 10.5 10t9.5 9l15 15l7 6l-1 1h-10h-25h-33h-35h-294v130h575z" />
    <glyph glyph-name="Zdotaccent" unicode="&#x17b;" horiz-adv-x="705" 
d="M358 762h-2q-27 0 -46 19t-19 48q0 26 20 46q19 19 47 19q27 0 46 -19t19 -46q0 -29 -19 -48t-46 -19zM645 700v-130l-338 -382q-12 -13 -41 -45q-18 -19 -18 -21l1 -1l3 1q4 0 11.5 0.5t15.5 0.5q38 2 72 2h293v-129h-585v129l347 383q6 7 20 21q4 4 10.5 10t9.5 9
l15 15l7 6l-1 1h-10h-25h-33h-35h-294v130h575z" />
    <glyph glyph-name="zdotaccent" unicode="&#x17c;" horiz-adv-x="705" 
d="M358 762h-2q-27 0 -46 19t-19 48q0 26 20 46q19 19 47 19q27 0 46 -19t19 -46q0 -29 -19 -48t-46 -19zM645 700v-130l-338 -382q-12 -13 -41 -45q-18 -19 -18 -21l1 -1l3 1q4 0 11.5 0.5t15.5 0.5q38 2 72 2h293v-129h-585v129l347 383q6 7 20 21q4 4 10.5 10t9.5 9
l15 15l7 6l-1 1h-10h-25h-33h-35h-294v130h575z" />
    <glyph glyph-name="Zcaron" unicode="&#x17d;" horiz-adv-x="705" 
d="M645 570v130h-576v-130h294h35h33h25l10 1l1 -1l-6 -5l-15 -15l-19 -19q-7 -7 -19 -21l-347 -383v-129h585v129h-293q-53 0 -72 -1t-30 -1l-1 1q0 2 18 21q29 32 41 45zM360 724l-187 159l68 69l119 -99l119 99l67 -69z" />
    <glyph glyph-name="zcaron" unicode="&#x17e;" horiz-adv-x="705" 
d="M645 570v130h-576v-130h294h35h33h25l10 1l1 -1l-6 -5l-15 -15l-19 -19q-7 -7 -19 -21l-347 -383v-129h585v129h-293q-53 0 -72 -1t-30 -1l-1 1q0 2 18 21q29 32 41 45zM360 724l-187 159l68 69l119 -99l119 99l67 -69z" />
    <glyph glyph-name="florin" unicode="&#x192;" horiz-adv-x="396" 
d="M33 353v70l107 1l25 173q9 60 36 90q27 29 71 38q42 9 104 1v-76q-61 4 -88 -9t-33 -57l-23 -161h118v-70h-128l-54 -384q-9 -63 -40 -94q-23 -23 -58 -29q-36 -6 -84 0v74q36 -3 59 6t29 50l55 377h-96z" />
    <glyph glyph-name="Scommaaccent" unicode="&#x218;" horiz-adv-x="608" 
d="M570 526l-134 -37h-8q-6 24 -20 45q-13 19 -32 33t-41 20q-23 6 -45 6q-48 0 -76 -21t-28 -52q0 -20 14 -36q14 -15 37 -27q21 -10 54 -22l63 -21q32 -10 77 -31q42 -19 71 -43q32 -26 51 -60q20 -35 20 -81q0 -48 -19 -86t-54 -67q-34 -28 -84 -45q-50 -15 -109 -15
q-112 0 -184 56q-73 57 -102 153l134 36q6 -25 19 -46q14 -23 33 -39t47 -27q26 -10 60 -10q58 0 86 24q29 24 29 59q0 28 -16 45q-16 18 -43 31q-26 13 -62 24q-34 10 -72 24q-26 8 -64 26q-34 16 -60 37q-27 23 -45 54t-18 78q0 42 19 77q20 37 54 65q34 29 81 45
q45 16 102 16q48 0 93 -14q44 -14 78 -39q36 -26 59 -60q25 -36 35 -75zM285 -166l12 4l-13 4q-16 1 -33 17q-16 15 -16 41q0 27 19 45q20 18 46 18q25 0 45 -20q19 -19 19 -53q0 -24 -7 -45q-7 -23 -21 -45q-14 -24 -31 -42q-20 -21 -37 -36h-49q12 8 24 21t21 30t15 33
t6 28z" />
    <glyph glyph-name="scommaaccent" unicode="&#x219;" horiz-adv-x="608" 
d="M570 526l-134 -37h-8q-6 24 -20 45q-13 19 -32 33t-41 20q-23 6 -45 6q-48 0 -76 -21t-28 -52q0 -20 14 -36q14 -15 37 -27q21 -10 54 -22l63 -21q32 -10 77 -31q42 -19 71 -43q32 -26 51 -60q20 -35 20 -81q0 -48 -19 -86t-54 -67q-34 -28 -84 -45q-50 -15 -109 -15
q-112 0 -184 56q-73 57 -102 153l134 36q6 -25 19 -46q14 -23 33 -39t47 -27q26 -10 60 -10q58 0 86 24q29 24 29 59q0 28 -16 45q-16 18 -43 31q-26 13 -62 24q-34 10 -72 24q-26 8 -64 26q-34 16 -60 37q-27 23 -45 54t-18 78q0 42 19 77q20 37 54 65q34 29 81 45
q45 16 102 16q48 0 93 -14q44 -14 78 -39q36 -26 59 -60q25 -36 35 -75zM285 -166l12 4l-13 4q-16 1 -33 17q-16 15 -16 41q0 27 19 45q20 18 46 18q25 0 45 -20q19 -19 19 -53q0 -24 -7 -45q-7 -23 -21 -45q-14 -24 -31 -42q-20 -21 -37 -36h-49q12 8 24 21t21 30t15 33
t6 28z" />
    <glyph glyph-name="uni021A" unicode="&#x21a;" horiz-adv-x="605" 
d="M13 702h577v-130h-220v-570h-139v570h-218v130zM308 -162l-12 2l-1 2q-16 1 -33 17q-16 15 -16 41q0 27 19 45t46 18q25 0 45 -20q19 -19 19 -53q0 -24 -7 -45q-8 -23 -21 -45q-14 -24 -31 -42q-20 -21 -37 -36h-49q12 8 24 21t21 30t15 33t6 28z" />
    <glyph glyph-name="uni021B" unicode="&#x21b;" horiz-adv-x="605" 
d="M13 702h577v-130h-220v-570h-139v570h-218v130zM282 -162l-12 2l-1 2q-16 1 -33 17q-16 15 -16 41q0 27 19 45t46 18q25 0 45 -20q19 -19 19 -53q0 -24 -7 -45q-8 -23 -21 -45q-14 -24 -31 -42q-20 -21 -37 -36h-49q12 8 24 21t21 30t15 33t6 28z" />
    <glyph glyph-name="uni0237" unicode="&#x237;" horiz-adv-x="671" 
d="M464 700h139l1 -401q0 -78 -22 -135q-22 -58 -63 -99q-40 -40 -97 -61q-58 -20 -127 -20q-48 0 -95 14q-42 11 -81 37q-35 23 -64 57q-28 32 -43 72l137 37q19 -41 57 -63q37 -22 89 -22q81 0 125 48q44 49 44 134v402z" />
    <glyph glyph-name="circumflex" unicode="&#x2c6;" horiz-adv-x="378" 
d="M-10 800l186 159l186 -159l-67 -69l-119 99l-119 -99z" />
    <glyph glyph-name="caron" unicode="&#x2c7;" horiz-adv-x="378" 
d="M176 725l-186 158l67 69l119 -99l119 99l67 -69z" />
    <glyph glyph-name="breve" unicode="&#x2d8;" horiz-adv-x="342" 
d="M-24 888h100v-2q6 -23 27 -41t53 -18q30 0 51 18t26 41h100q-7 -31 -24 -58q-16 -27 -40 -46q-24 -20 -52 -30q-27 -10 -62 -10q-69 0 -118 41q-47 40 -61 105z" />
    <glyph glyph-name="dotaccent" unicode="&#x2d9;" horiz-adv-x="168" 
d="M69 766q-27 0 -46 19t-19 48q0 27 19 46t46 19q29 0 48 -19t19 -46q0 -29 -19 -48t-48 -19z" />
    <glyph glyph-name="ring" unicode="&#x2da;" horiz-adv-x="284" 
d="M127 654l-2 -2q-27 0 -54 11q-24 10 -43 29q-20 20 -28 42q-11 25 -11 53q0 27 11 54q9 25 28 44q18 19 44 29q27 11 54 11t54 -11q25 -10 45 -29q20 -18 30 -43q11 -27 11 -54q0 -29 -10 -52q-10 -24 -30 -42q-20 -19 -45 -29q-27 -11 -54 -11zM129 737h-2q25 0 41 16
q17 17 17 39q0 24 -16 40t-40 16q-23 0 -39 -16t-16 -40q0 -23 16 -39t39 -16z" />
    <glyph glyph-name="ogonek" unicode="&#x2db;" horiz-adv-x="600" 
d="M350 -96l73 -46v-2q-25 -49 -69 -76t-95 -27q-36 0 -69 11q-31 10 -55 30q-23 19 -37 48q-13 27 -13 65q0 34 14 62q13 26 33 46q20 19 42 30q24 11 39 11l90 -57q-18 0 -41 -5q-21 -4 -39 -15t-30 -27t-12 -41q0 -27 19 -47q20 -21 57 -21q31 0 56 17q23 16 37 44z" />
    <glyph glyph-name="tilde" unicode="&#x2dc;" horiz-adv-x="483" 
d="M342 884h109l-3 -2q0 -31 -10 -55q-10 -25 -30 -43q-19 -17 -45 -28q-24 -10 -57 -10q-26 0 -45 9q-17 8 -36 20q-22 14 -33 20q-16 9 -33 9q-19 0 -33 -12q-13 -12 -13 -32h-108q0 29 11 56q11 26 30 44q20 19 45 29q27 11 57 11q27 0 48 -9q22 -10 38 -21
q14 -10 32 -21q15 -9 32 -9q20 0 32 12t12 32z" />
    <glyph glyph-name="hungarumlaut" unicode="&#x2dd;" horiz-adv-x="503" 
d="M472 834l-239 -103l-35 65l-152 -65l-40 74l231 124l40 -79l147 79z" />
    <glyph glyph-name="uni0326" unicode="&#x326;" horiz-adv-x="0" 
d="M108 -166l12 4l-13 4q-16 1 -33 17q-16 15 -16 41q0 27 19 45t46 18q25 0 45 -20q19 -19 19 -53q0 -24 -7 -45q-8 -23 -21 -45q-14 -24 -31 -42q-20 -21 -37 -36h-49q12 8 24 21t21 30t15 33t6 28z" />
    <glyph glyph-name="Wgrave" unicode="&#x1e80;" horiz-adv-x="1027" 
d="M567 731l-239 103l49 95l230 -124zM858 700h147l-220 -700h-129l-108 338q-19 59 -27 92q-8 32 -9 32h-1q-1 0 -7 -32q-7 -36 -25 -92l-108 -338h-130l-220 700h148l110 -378q13 -48 21 -78t9 -30h1q2 0 9 30t24 78l106 303h129l106 -303q16 -48 24 -78t9 -30h1q2 0 9 30
t21 78z" />
    <glyph glyph-name="wgrave" unicode="&#x1e81;" horiz-adv-x="1027" 
d="M561 731l-239 103l49 95l230 -124zM858 700h147l-220 -700h-129l-108 338q-19 59 -27 92q-8 32 -9 32h-1q-1 0 -7 -32q-7 -36 -25 -92l-108 -338h-130l-220 700h148l110 -378q13 -48 21 -78t9 -30h1q2 0 9 30t24 78l106 303h129l106 -303q16 -48 24 -78t9 -30h1q2 0 9 30
t21 78z" />
    <glyph glyph-name="Wacute" unicode="&#x1e82;" horiz-adv-x="1027" 
d="M628 929l48 -95l-238 -103l-41 74zM858 700h147l-220 -700h-129l-108 338q-19 59 -27 92q-8 32 -9 32h-1q-1 0 -7 -32q-7 -36 -25 -92l-108 -338h-130l-220 700h148l110 -378q13 -48 21 -78t9 -30h1q2 0 9 30t24 78l106 303h129l106 -303q16 -48 24 -78t9 -30h1q2 0 9 30
t21 78z" />
    <glyph glyph-name="wacute" unicode="&#x1e83;" horiz-adv-x="1027" 
d="M622 929l48 -95l-238 -103l-41 74zM858 700h147l-220 -700h-129l-108 338q-19 59 -27 92q-8 32 -9 32h-1q-1 0 -7 -32q-7 -36 -25 -92l-108 -338h-130l-220 700h148l110 -378q13 -48 21 -78t9 -30h1q2 0 9 30t24 78l106 303h129l106 -303q16 -48 24 -78t9 -30h1q2 0 9 30
t21 78z" />
    <glyph glyph-name="Wdieresis" unicode="&#x1e84;" horiz-adv-x="1027" 
d="M381 766v-1q-29 0 -48 18t-19 47q0 27 19 46t48 19q27 0 46 -19t19 -46q0 -28 -19 -46t-46 -18zM639 767v-1q-29 0 -48 18t-19 47q0 27 19 46t48 19q27 0 46 -19t19 -46q0 -28 -19 -46t-46 -18zM858 700h147l-220 -700h-129l-108 338q-19 59 -27 92q-8 32 -9 32h-1
q-1 0 -7 -32q-7 -36 -25 -92l-108 -338h-130l-220 700h148l110 -378q13 -48 21 -78t9 -30h1q2 0 9 30t24 78l106 303h129l106 -303q16 -48 24 -78t9 -30h1q2 0 9 30t21 78z" />
    <glyph glyph-name="wdieresis" unicode="&#x1e85;" horiz-adv-x="1027" 
d="M375 766v-1q-29 0 -48 18t-19 47q0 27 19 46t48 19q27 0 46 -19t19 -46q0 -28 -19 -46t-46 -18zM633 767v-1q-29 0 -48 18t-19 47q0 27 19 46t48 19q27 0 46 -19t19 -46q0 -28 -19 -46t-46 -18zM858 700h147l-220 -700h-129l-108 338q-19 59 -27 92q-8 32 -9 32h-1
q-1 0 -7 -32q-7 -36 -25 -92l-108 -338h-130l-220 700h148l110 -378q13 -48 21 -78t9 -30h1q2 0 9 30t24 78l106 303h129l106 -303q16 -48 24 -78t9 -30h1q2 0 9 30t21 78z" />
    <glyph glyph-name="uni1E9E" unicode="&#x1e9e;" horiz-adv-x="810" 
d="M83 700h622l-108 -200q-10 -20 -16 -31q-3 -5 -8 -15t-8 -15q-5 -9 -12 -23l-4 -9l1 -1h5q45 0 84 -15q40 -15 68 -42t45 -65q17 -39 17 -79q0 -45 -17 -87q-16 -40 -48 -70q-33 -31 -76 -47q-48 -16 -101 -16q-79 0 -144 37q-64 38 -98 99l132 36q19 -25 45 -39t59 -14
q56 0 83 30t27 74q0 40 -28 69q-29 30 -84 30h-101v101l46 91l12 24q8 16 11 23q1 3 4 9t4 9l4 7l-1 1q-8 0 -22 -1t-46 -1h-208v-570h-139v700z" />
    <glyph glyph-name="Ygrave" unicode="&#x1ef2;" horiz-adv-x="701" 
d="M402 731l-239 103l49 95l230 -124zM532 700h157l-272 -379v-321h-138v321l-269 379h156l144 -201q23 -33 26 -36q12 -15 13 -15h1q1 0 13 15q3 3 26 36z" />
    <glyph glyph-name="ygrave" unicode="&#x1ef3;" horiz-adv-x="701" 
d="M403 731l-239 103l49 95l230 -124zM532 700h157l-272 -379v-321h-138v321l-269 379h156l144 -201q23 -33 26 -36q12 -15 13 -15h1q1 0 13 15q3 3 26 36z" />
    <glyph glyph-name="uni2007" unicode="&#x2007;" 
 />
    <glyph glyph-name="uni2009" unicode="&#x2009;" horiz-adv-x="120" 
 />
    <glyph glyph-name="uni200A" unicode="&#x200a;" horiz-adv-x="40" 
 />
    <glyph glyph-name="endash" unicode="&#x2013;" horiz-adv-x="591" 
d="M83 420h425v-131h-425v131z" />
    <glyph glyph-name="emdash" unicode="&#x2014;" horiz-adv-x="1031" 
d="M83 420h865v-131h-865v131z" />
    <glyph glyph-name="quoteleft" unicode="&#x2018;" horiz-adv-x="321" 
d="M168 591l-13 -4l11 -1q19 -1 37 -18q18 -16 18 -45t-21 -48q-22 -20 -49 -20q-29 0 -48 22q-20 23 -20 57q0 21 8 47q7 24 21 48q13 22 32 45t39 38h53q-12 -9 -24 -24q-8 -10 -22 -32q-10 -15 -16 -34q-6 -18 -6 -31z" />
    <glyph glyph-name="quoteright" unicode="&#x2019;" horiz-adv-x="321" 
d="M153 575l13 4l-14 -2q-19 1 -37 18t-18 45t21 48q22 20 50 20t48 -21q20 -22 20 -56q0 -21 -8 -47q-8 -24 -21 -48q-13 -22 -32 -45t-39 -38h-53q12 9 24 24q14 17 23 33q11 19 17 35q6 17 6 30z" />
    <glyph glyph-name="quotesinglbase" unicode="&#x201a;" horiz-adv-x="321" 
d="M153 -10l13 4l-14 -2q-18 1 -37 17q-18 17 -18 45t21 48q22 20 50 20t48 -21q20 -22 20 -56q0 -22 -8 -46t-21 -48q-13 -22 -32 -45t-39 -38h-53q12 9 24 24q14 17 23 33q11 19 17 35t6 30z" />
    <glyph glyph-name="quotedblleft" unicode="&#x201c;" horiz-adv-x="535" 
d="M167 591l-13 -4l11 -1q19 -1 37 -18q18 -16 18 -45t-21 -48q-22 -20 -49 -20q-29 0 -48 22q-20 23 -20 57q0 21 8 47q8 24 21 48q13 22 32 45t39 38h53q-12 -9 -24 -24q-8 -10 -22 -32q-10 -15 -16 -34q-6 -18 -6 -31zM383 591l-14 -4l13 -1q18 -2 36 -18t18 -45t-21 -48
q-22 -20 -49 -20q-29 0 -48 22t-19 57q0 21 8 47q7 24 21 48q13 22 32 45t39 38h52q-12 -9 -24 -24q-8 -10 -22 -32q-10 -15 -16 -34q-6 -18 -6 -31z" />
    <glyph glyph-name="quotedblright" unicode="&#x201d;" horiz-adv-x="535" 
d="M150 571l13 4l-14 -2q-19 1 -37 18t-18 45t21 48q22 20 50 20q29 0 48 -21q20 -22 20 -56q0 -21 -8 -47q-7 -24 -21 -48q-13 -22 -32 -45t-39 -38h-53q12 9 24 24q14 17 23 33q11 19 17 35q6 17 6 30zM367 575l13 4l-16 -2q-20 1 -36 18q-17 17 -17 45t21 48q22 20 50 20
t48 -21q20 -22 20 -56q0 -21 -8 -47q-8 -24 -21 -48q-13 -22 -32 -45t-39 -38h-52q12 9 24 24q14 17 23 33q9 15 16 35q6 17 6 30z" />
    <glyph glyph-name="quotedblbase" unicode="&#x201e;" horiz-adv-x="531" 
d="M152 -13l13 4l-14 -1q-18 1 -37 17q-18 17 -18 45t21 48q22 20 50 20q29 0 48 -21q20 -22 20 -56q0 -23 -8 -47q-7 -24 -21 -48q-13 -22 -32 -45t-39 -38h-53q12 9 24 24q14 17 23 33q11 19 17 35q6 17 6 30zM363 -10l13 4l-14 -1q-18 1 -37 17q-18 16 -18 45t21 48
q22 20 50 20t48 -21q20 -22 20 -56q0 -23 -8 -47t-21 -48q-13 -22 -32 -45t-39 -38h-53q12 9 24 24q14 17 23 33q11 19 17 35t6 30z" />
    <glyph glyph-name="dagger" unicode="&#x2020;" horiz-adv-x="517" 
d="M503 532v-118l-182 -1v-110q0 -61 -3 -117q-3 -53 -6 -97q-1 -15 -3.5 -37t-2.5 -29l-2 -23h-90l-3 24q-3 24 -6 66q-3 44 -6 97q-3 55 -3 117v110h-182v118h182v168h123v-168h184z" />
    <glyph glyph-name="daggerdbl" unicode="&#x2021;" horiz-adv-x="517" 
d="M319 414v-110l-4 -5h184v-118h-187q-2 -39 -3 -72t-3 -57q-2 -25 -3 -38l-1 -13h-90l-2 14q-1 13 -3 38q-3 42 -4 57q-2 23 -4 72h-185v118h182v4v110h-182v118h182v168h123v-168h184v-118h-184z" />
    <glyph glyph-name="bullet" unicode="&#x2022;" horiz-adv-x="401" 
d="M201 237l-2 -2q-25 0 -46 9t-37 25q-15 15 -25 38q-9 21 -9 47q0 24 9 45q9 22 25 36q16 15 38 24q21 9 47 9q24 0 45 -9q20 -9 37 -24q16 -14 25 -36q9 -21 9 -45q0 -25 -9 -46t-25 -37t-37 -25t-45 -9z" />
    <glyph glyph-name="ellipsis" unicode="&#x2026;" horiz-adv-x="764" 
d="M117 -18v-3q-23 0 -40 17q-16 15 -16 40q0 22 17 39t39 17q23 0 39 -16q17 -17 17 -39q0 -24 -17 -39q-16 -16 -39 -16zM377 -15v-3q-23 0 -40 17q-16 15 -16 40q0 22 17 39t39 17q23 0 39 -16q17 -17 17 -39q0 -23 -17 -40q-16 -15 -39 -15zM647 -12v-3q-22 0 -40 16
q-16 16 -16 41q0 22 17 39t39 17q23 0 39 -16q17 -17 17 -39q0 -23 -17 -40q-16 -15 -39 -15z" />
    <glyph glyph-name="perthousand" unicode="&#x2030;" horiz-adv-x="1350" 
d="M217 301v-1q-40 0 -73 15t-57 42q-23 26 -37 64q-13 36 -13 81t13 81q14 39 37 65q24 27 57 42t73 15t73 -15q34 -15 56 -42q23 -27 36 -64q13 -36 13 -81t-13 -81q-13 -37 -36 -64q-22 -27 -56 -42q-33 -15 -73 -15zM176 -2l494 699h91l-493 -699h-92zM217 395v-1
q19 0 36 9t27 24q11 16 17 35q6 20 6 42q0 45 -23 77t-62 32t-62 -32t-23 -77q0 -22 6 -42q5 -17 17 -34q10 -14 26 -24q15 -9 35 -9zM722 -9q-39 0 -73 14q-33 15 -57 42q-23 26 -37 64q-13 36 -13 81t13 81q14 38 37 64q24 27 57 42t73 15t73 -15q34 -15 56 -42
q23 -27 36 -64q13 -36 13 -81t-13 -81q-13 -37 -36 -64q-22 -27 -56 -42q-34 -14 -73 -14zM1134 -9q-39 0 -73 14q-33 15 -57 42q-23 26 -37 64q-13 36 -13 81t13 81q14 38 37 64q24 27 57 42t73 15t73 -15q34 -15 56 -42q23 -27 36 -64q13 -36 13 -81t-13 -81
q-13 -37 -36 -64q-22 -27 -56 -42q-34 -14 -73 -14zM722 85v-1q20 0 36 9t27 24q11 16 17 35q6 20 6 42t-6 42q-6 19 -17 35q-11 15 -27 24t-36 9t-35 -9q-16 -10 -26 -24q-11 -16 -17 -35q-6 -20 -6 -42t6 -42q5 -17 17 -34q10 -14 26 -24q15 -9 35 -9zM1134 86v-1
q20 0 36 9t27 24q11 16 17 35t6 42t-6 42t-17 35q-11 15 -27 24t-36 9t-35 -9q-16 -10 -26 -24q-11 -16 -17 -35t-6 -42t6 -42q5 -17 17 -34q10 -14 26 -24q15 -9 35 -9z" />
    <glyph glyph-name="guilsinglleft" unicode="&#x2039;" horiz-adv-x="478" 
d="M83 352l236 234l75 -76l-163 -158l164 -158l-77 -77z" />
    <glyph glyph-name="guilsinglright" unicode="&#x203a;" horiz-adv-x="478" 
d="M159 586l236 -234l-235 -235l-77 77l165 158l-164 158z" />
    <glyph glyph-name="fraction" unicode="&#x2044;" horiz-adv-x="125" 
d="M-229 0l493 700h91l-492 -700h-92z" />
    <glyph glyph-name="Euro" unicode="&#x20ac;" horiz-adv-x="802" 
d="M637 227l139 -35h-3q-21 -46 -54 -84q-32 -36 -75 -64q-42 -27 -92 -42q-51 -14 -105 -14q-60 0 -117 17q-56 18 -101 51q-44 32 -78 80q-34 47 -50 104h-64v92h49v17v17h-48v91h63q16 57 50 104q34 48 78 80q45 33 101 51t117 18q53 0 99 -13q49 -14 88 -37
q43 -25 74 -58q35 -36 56 -76l-141 -35q-29 40 -73 62q-46 23 -100 23q-66 0 -119 -32t-81 -87h210v-91h-235q-1 -3 -1 -8v-8v-8q0 -5 1 -8h235v-92h-209q28 -53 81 -85q52 -31 117 -31q61 0 111 27t77 74z" />
    <glyph glyph-name="uni20B9" unicode="&#x20b9;" horiz-adv-x="596" 
d="M561 594h-122h-1q17 -23 26 -50h96v-103h-86q-9 -77 -58 -127q-50 -52 -129 -68l185 -246h-160l-179 243v103h85q44 0 72 27q29 27 38 68h-246v103h229q-15 22 -39 36q-25 14 -54 14h-135v106h478v-106z" />
    <glyph glyph-name="afii61352" unicode="&#x2116;" horiz-adv-x="1111" 
d="M752 536h-3q0 36 14 69q13 31 36 54t54 36q30 13 68 13q37 0 67 -13q31 -13 55 -36q23 -22 37 -54q14 -33 14 -69q0 -39 -13 -69q-14 -32 -37 -54q-24 -23 -55 -36q-30 -13 -67 -13t-67 13q-31 13 -54 36t-36 54q-13 30 -13 69zM554 697h139l-2 -700h-131l-199 269
q-24 32 -48 66t-45 63q-28 38 -34 47l-13 19h-1v-18v-50v-75v-96v-225h-139v699h131l203 -273l42 -56q28 -37 45 -61q21 -30 36 -51l15 -20h1v20v52v75v86v229zM839 540v-3q0 -39 24 -64t62 -25t62 26t24 65q0 41 -24 66q-24 26 -62 26t-62 -25q-24 -26 -24 -66zM764 312
h324v-85h-324v85z" />
    <glyph glyph-name="trademark" unicode="&#x2122;" horiz-adv-x="787" 
d="M14 617v82h298v-82h-107v-243h-84v243h-107zM634 700h78v-326h-82v106q0 38 3 63q2 15 2 18.5v6.5h-1q-2 0 -12 -16q-2 -4 -11 -17.5l-15 -22.5l-39 -61h-37l-38 61q-21 32 -27 41q-11 15 -12 15h-1q-1 0 0 -25q2 -34 2 -63v-106h-82v325h79l63 -99q17 -26 24 -43
q8 -18 9 -18h1q2 0 9 18q8 19 24 44z" />
    <glyph glyph-name="oneeighth" unicode="&#x215b;" horiz-adv-x="743" 
d="M148 701h64l-4 -389h-91v196q0 18 1 27q2 13 3 24t3 18l1 8h-1q-2 0 -9 -12q-3 -5 -24 -26l-29 -28l-57 51zM57 1l494 700h91l-493 -700h-92zM650 206v-1l-3 1q12 -3 27 -11q14 -7 26 -20q12 -11 19 -28q8 -18 8 -37q0 -51 -42 -84t-106 -33t-106 33t-42 84q0 19 8 37
q7 17 19 28q12 13 26 20q15 8 27 11v1q-7 1 -18 9q-12 8 -20 18q-9 10 -15 26q-6 15 -6 34q0 46 36 74q37 29 93 29q26 0 52 -8q24 -7 42 -21t27 -33t9 -42q0 -19 -6 -34q-7 -17 -16 -26q-11 -11 -21 -18t-18 -9zM525 291h-2q0 -19 17 -33q16 -14 42 -12q26 0 42 12
q17 12 17 32t-16 32q-17 12 -42 12t-42 -12q-16 -12 -16 -31zM517 111h-1q0 -24 19 -39t48 -15t49 15q19 15 19 38t-19 38q-20 15 -48 15t-48 -15q-19 -15 -19 -37z" />
    <glyph glyph-name="threeeighths" unicode="&#x215c;" horiz-adv-x="808" 
d="M97 575l-77 21l-1 -4q10 50 50 82q38 31 98 31q68 0 104 -33t36 -80q0 -21 -7 -35q-7 -15 -19 -25q-11 -10 -27 -16q-15 -6 -28 -6v-1q19 -2 32 -7q16 -6 27 -16q13 -12 20 -25q8 -16 8 -35q0 -26 -11 -50q-10 -22 -30 -39q-19 -16 -46 -25t-58 -9q-28 0 -54 9
q-25 9 -46 24t-36 36q-14 20 -19 46l78 21q4 -27 23 -43q18 -15 53 -15q28 0 44 14q15 13 15 35t-18 36q-17 13 -45 13h-37v64h37q23 0 40 14q16 13 16 33q0 16 -14 30q-13 13 -39 13q-29 0 -45 -13q-17 -14 -24 -45zM122 1l494 700h91l-493 -700h-92zM715 206v-1l-3 1
q12 -3 27 -11q13 -7 26 -20q11 -11 19 -28q8 -18 8 -37q0 -51 -42 -84t-106 -33t-106 33t-42 84q0 19 8 37q8 17 19 28q13 13 26 20q15 8 27 11v1q-8 1 -18 9q-12 8 -20 18q-9 10 -15 26q-6 15 -6 34q0 46 36 74q37 29 93 29q26 0 52 -8q24 -7 42 -21t27 -33t9 -42
q0 -19 -6 -34q-7 -17 -16 -26q-10 -11 -21 -18t-18 -9zM590 291h-2q0 -19 17 -33t42 -12q25 0 42 12t17 32t-16 32t-42 12t-42 -12t-16 -31zM582 111h-1q0 -24 19 -39q20 -15 48 -15q30 0 49 15t19 38t-19 38t-48 15t-48 -15t-19 -37z" />
    <glyph glyph-name="fiveeighths" unicode="&#x215d;" horiz-adv-x="787" 
d="M105 550l1 -1l-1 -2q7 7 21 15q13 7 36 7q67 0 106 -36t39 -94q0 -27 -11 -54q-10 -25 -30 -43q-19 -17 -46 -28q-26 -10 -58 -10t-57 9t-45 24q-18 14 -31 35q-12 20 -15 42l80 22q4 -22 20 -39q15 -16 44 -16q28 0 47 17q18 16 18 42q0 28 -18 45q-19 17 -47 17
q-22 0 -37 -9q-14 -9 -22 -24l-74 20l36 211h222v-79h-157l-4 -17q-8 -32 -11 -38q-6 -15 -6 -16zM595 701h91l-493 -700h-92zM694 206v-1l-3 1q12 -3 27 -11q14 -7 26 -20q12 -11 19 -28q8 -18 8 -37q0 -51 -42 -84t-106 -33t-106 33t-42 84q0 19 8 37q7 17 19 28
q12 13 26 20q15 8 27 11v1q-7 1 -18 9q-12 8 -20 18q-9 10 -15 26q-6 15 -6 34q0 46 36 74q37 29 93 29q26 0 52 -8q24 -7 42 -21t27 -33t9 -42q0 -19 -6 -34q-7 -17 -16 -26q-11 -11 -21 -18t-18 -9zM627 335h-2q-25 0 -42 -12q-16 -12 -16 -31t17 -33q16 -13 42 -12
q26 0 42 12q17 12 17 32t-16 32q-17 12 -42 12zM628 57h-1q29 0 49 15q19 15 19 38t-19 38q-20 15 -48 15t-48 -15q-19 -15 -19 -37q0 -24 19 -39q20 -15 48 -15z" />
    <glyph glyph-name="seveneighths" unicode="&#x215e;" horiz-adv-x="689" 
d="M4 0l494 700h91l-493 -700h-92zM4 701h294l1 -51l-187 -338h-89l138 249q15 28 29 46q12 15 12 16l-1 1q-8 0 -22 -1t-49 -1h-126v79zM596 206v-1l-3 1q12 -3 27 -11q14 -7 26 -20q12 -11 19 -28q8 -18 8 -37q0 -51 -42 -84t-106 -33t-106 33t-42 84q0 19 8 37
q7 17 19 28q12 13 26 20q15 8 27 11v1q-7 1 -18 9q-12 8 -20 18q-9 10 -15 26q-6 15 -6 34q0 46 36 74q37 29 93 29q26 0 52 -8q24 -7 42 -21t27 -33t9 -42q0 -19 -6 -34q-7 -17 -16 -26q-11 -11 -21 -18t-18 -9zM471 291h-2q0 -19 17 -33q16 -14 42 -12q26 0 42 12
q17 12 17 32t-16 32q-17 12 -42 12t-42 -12q-16 -12 -16 -31zM463 111h-1q0 -24 19 -39t48 -15t49 15q19 15 19 38t-19 38q-20 15 -48 15t-48 -15q-19 -15 -19 -37z" />
    <glyph glyph-name="minus" unicode="&#x2212;" 
d="M121 412h457v-114h-457v114z" />
    <glyph glyph-name="notequal" unicode="&#x2260;" 
d="M578 401h-142l-54 -108h196v-114h-254l-54 -106h-116l54 106h-87v114h145l56 108h-201v114h259l59 116h114l-59 -116h84v-114z" />
    <glyph glyph-name="lessequal" unicode="&#x2264;" 
d="M118 105h457v-113h-457v113zM289 367l223 -187h-166l-231 187l295 244h162z" />
    <glyph glyph-name="greaterequal" unicode="&#x2265;" 
d="M186 180l223 187l-283 244h162l295 -244l-231 -187h-166zM123 105h457v-113h-457v113z" />
    <glyph glyph-name="lozenge" unicode="&#x25ca;" horiz-adv-x="740" 
d="M370 -13l-364 363l364 364l364 -364zM370 556l-206 -206l206 -206l207 206z" />
    <glyph glyph-name="glyph1" horiz-adv-x="0" 
 />
    <glyph glyph-name="glyph2" horiz-adv-x="0" 
 />
    <glyph glyph-name="glyph242" horiz-adv-x="756" 
d="M446 959l102 -57l-118 -177l-87 50zM719 529l-142 -37l-3 -4q-29 40 -76 62q-49 23 -100 23q-48 0 -90 -17q-40 -16 -69 -47t-44 -72q-15 -42 -15 -91q0 -50 17 -93t45 -71t69 -45q39 -16 87 -16q59 0 111 29t77 75l140 -37q-23 -48 -55 -84t-75 -64t-92 -41
q-50 -15 -105 -15q-74 0 -141 26q-65 27 -115 75q-49 48 -78 116q-28 66 -28 147q0 78 29 147q29 68 78 116t116 75q66 27 141 27q54 0 100 -13q49 -14 88 -37q43 -25 74 -58q35 -36 56 -76z" />
    <glyph glyph-name="glyph243" horiz-adv-x="491" 
d="M315 122h138v-122h-415v122h138v456h-134v122h407v-122h-134v-456z" />
    <glyph glyph-name="glyph244" horiz-adv-x="1148" 
d="M316 573v-456h138v-121h-415v121h138v456h-134v122h407v-122h-134zM941 700h139l1 -401q0 -78 -22 -135q-23 -58 -63 -99q-40 -40 -97 -61q-58 -20 -127 -20q-48 0 -95 14q-43 11 -81 37q-35 23 -64 57q-28 32 -43 72l137 37q20 -41 57 -63t89 -22q82 0 125 48
q44 49 44 134v402z" />
    <glyph glyph-name="glyph245" horiz-adv-x="1145" 
d="M316 573v-456h138v-121h-415v121h138v456h-134v122h407v-122h-134zM636 700h441l1 -401q0 -78 -22 -135q-22 -58 -63 -99q-40 -40 -97 -61q-58 -20 -127 -20q-48 0 -95 14q-42 11 -81 37q-35 23 -64 57q-28 32 -43 72l137 37q19 -41 57 -63q37 -22 89 -22q81 0 125 48
q44 49 44 134v272h-302v130z" />
    <glyph glyph-name="glyph246" horiz-adv-x="960" 
d="M84 -4v699h139v-699h-139zM450 700h441l1 -401q0 -78 -22 -135q-22 -58 -63 -99q-40 -40 -97 -61q-58 -20 -127 -20q-48 0 -95 14q-42 11 -81 37q-35 23 -64 57q-28 32 -43 72l137 37q19 -41 57 -63q37 -22 89 -22q81 0 125 48q44 49 44 134v272h-302v130z" />
    <glyph glyph-name="glyph247" horiz-adv-x="491" 
d="M410 834l-238 -103l-41 74l231 124zM315 122h138v-122h-415v122h138v456h-134v122h407v-122h-134v-456z" />
    <glyph glyph-name="glyph248" horiz-adv-x="491" 
d="M244 830l-119 -99l-68 69l187 159l186 -159l-67 -69zM315 122h138v-122h-415v122h138v456h-134v122h407v-122h-134v-456z" />
    <glyph glyph-name="glyph249" horiz-adv-x="491" 
d="M115 766v-1q-29 0 -48 18t-19 47q0 27 19 46t48 19q27 0 46 -19t19 -46q0 -28 -19 -46t-46 -18zM373 767v-1q-29 0 -48 18t-19 47q0 27 19 46t48 19q27 0 46 -19t19 -46q0 -28 -19 -46t-46 -18zM315 122h138v-122h-415v122h138v456h-134v122h407v-122h-134v-456z" />
    <glyph glyph-name="glyph250" horiz-adv-x="491" 
d="M247 766h-2q-27 0 -46 19t-19 48q0 26 20 46q19 19 47 19q27 0 46 -19t19 -46q0 -29 -19 -48t-46 -19zM315 122h138v-122h-415v122h138v456h-134v122h407v-122h-134v-456z" />
    <glyph glyph-name="glyph251" horiz-adv-x="491" 
d="M341 805l-40 -74l-239 103l49 95zM315 122h138v-122h-415v122h138v456h-134v122h407v-122h-134v-456z" />
    <glyph glyph-name="glyph252" horiz-adv-x="491" 
d="M449 878v-108h-407v108h407zM315 122h138v-122h-415v122h138v456h-134v122h407v-122h-134v-456z" />
    <glyph glyph-name="glyph253" horiz-adv-x="491" 
d="M453 0h-224h-2q-18 0 -41 -5q-21 -5 -39 -15t-30 -27t-12 -41q0 -27 19 -47q20 -21 57 -21q31 0 56 17q23 16 37 44l73 -46q-25 -49 -70 -76t-96 -27q-36 0 -69 11q-32 11 -54 30t-36 48q-13 27 -13 65q0 28 9 50q9 23 23 40h-3v122h138v456h-134v122h407v-122h-134v-456
h138v-122z" />
    <glyph glyph-name="glyph254" horiz-adv-x="671" 
d="M162 700h441l1 -401q0 -78 -22 -135q-22 -58 -63 -99q-40 -40 -97 -61q-58 -20 -127 -20q-48 0 -95 14q-42 11 -81 37q-35 23 -64 57q-28 32 -43 72l137 37q19 -41 57 -63q37 -22 89 -22q81 0 125 48q44 49 44 134v272h-302v130z" />
    <glyph glyph-name="glyph255" horiz-adv-x="671" 
d="M372 825l-119 -99l-68 69l187 159l186 -159l-68 -69zM162 700h441l1 -401q0 -78 -22 -135q-22 -58 -63 -99q-40 -40 -97 -61q-58 -20 -127 -20q-48 0 -95 14q-42 11 -81 37q-35 23 -64 57q-28 32 -43 72l137 37q19 -41 57 -63q37 -22 89 -22q81 0 125 48q44 49 44 134
v272h-302v130z" />
    <glyph glyph-name="glyph256" horiz-adv-x="776" 
d="M554 700h139l-2 -702h-139v239l-178 146q-19 16 -55 48q-7 6 -24 21.5t-25 22.5l-36 32l-14 12h-1l1 -12v-33v-49v-60v-366h-139v699h131l152 -130l69 -60q32 -28 61 -52l44 -36l17 -14h1q0 15 -1 42t-1 105v147z" />
    <glyph glyph-name="glyph257" horiz-adv-x="776" 
d="M437 962l102 -57l-118 -177l-87 50zM554 700h139l-2 -700h-131l-199 269q-24 31 -48 66t-45 63q-28 38 -34 47l-13 19h-1v-18v-50v-75v-96v-225h-139v699h131l203 -273l42 -56q28 -37 45 -61q21 -30 36 -51l15 -20h1v20v52v75v86v229z" />
    <glyph glyph-name="glyph258" horiz-adv-x="776" 
d="M438 960l102 -57l-118 -177l-87 50zM554 700h139l-2 -702h-139v239l-178 146q-19 16 -55 48q-7 6 -24 21.5t-25 22.5l-36 32l-14 12h-1l1 -12v-33v-49v-60v-366h-139v699h131l152 -130l69 -60q32 -28 61 -52l44 -36l17 -14h1q0 15 -1 42t-1 105v147z" />
    <glyph glyph-name="glyph259" horiz-adv-x="776" 
d="M503 926l48 -95l-238 -103l-41 74zM554 700h139l-2 -702h-139v239l-178 146q-19 16 -55 48q-7 6 -24 21.5t-25 22.5l-36 32l-14 12h-1l1 -12v-33v-49v-60v-366h-139v699h131l152 -130l69 -60q32 -28 61 -52l44 -36l17 -14h1q0 15 -1 42t-1 105v147z" />
    <glyph glyph-name="glyph260" horiz-adv-x="776" 
d="M693 700h-139l-2 -148q-1 -48 1 -105q1 -27 1 -42h-1l-17 14l-21 17.5t-22 18.5q-1 1 -61 53l-69 60l-152 130h-131v-699h139v366v60v49v33v13h1l14 -12q5 -4 17.5 -15t18.5 -16q4 -3 22 -18.5t28 -24.5q18 -16 56 -48l178 -146v-240h139v700zM390 724l-187 159l68 69
l119 -99l119 99l67 -69z" />
    <glyph glyph-name="glyph261" horiz-adv-x="776" 
d="M553 702h139l-2 -702h-139v239l-178 146q-19 16 -55 48q-7 6 -24 21.5t-25 22.5l-36 32l-14 12h-1l1 -12v-33v-49v-60v-367h-139v700h131l152 -130l69 -60q32 -28 61 -52l44 -36l17 -14h1q0 15 -1 42t-1 105v147zM379 -166l12 4l-13 4q-16 1 -33 17q-16 15 -16 41
q0 27 19 45q20 18 46 18q25 0 45 -20q19 -19 19 -53q0 -24 -7 -45q-7 -23 -21 -45q-14 -24 -31 -42q-20 -21 -37 -36h-49q12 8 24 21t21 30t15 33t6 28z" />
    <glyph glyph-name="glyph262" horiz-adv-x="776" 
d="M502 881h109l-4 -2q0 -31 -10 -55q-10 -25 -30 -43q-19 -17 -45 -28q-24 -10 -57 -10q-25 0 -45 9q-13 6 -37 20q-7 4 -18.5 11t-14.5 9q-15 9 -32 9q-20 0 -33 -12t-13 -32h-109q0 29 11 56q11 26 30 44q20 19 45 29q27 11 57 11q27 0 48 -9q22 -10 38 -21
q14 -10 32 -21q15 -9 32 -9q20 0 33 12t13 32zM554 700h139l-2 -702h-139v239l-178 146q-19 16 -55 48q-7 6 -24 21.5t-25 22.5l-36 32l-14 12h-1l1 -12v-33v-49v-60v-366h-139v699h131l152 -130l69 -60q32 -28 61 -52l44 -36l17 -14h1q0 15 -1 42t-1 105v147z" />
    <glyph glyph-name="glyph263" horiz-adv-x="803" 
d="M452 957l102 -57l-118 -177l-87 50zM37 346l-3 -2q0 78 29 147q29 68 78 116t116 75q66 27 141 27t141 -27q67 -27 116 -75q50 -48 78 -115q29 -69 29 -147q0 -81 -28 -147q-28 -67 -78 -115q-49 -48 -116 -75q-67 -26 -141 -26t-141 26q-65 27 -115 75q-49 48 -78 116
q-28 66 -28 147zM183 350l-1 -4q0 -51 16 -92q16 -42 45 -72q28 -29 69 -46q39 -16 88 -16q47 0 89 17q40 16 69 47q28 30 45 72q16 41 16 92q0 52 -16 93q-17 42 -45 72q-29 31 -69 47q-42 17 -88 17q-49 0 -88 -16q-41 -17 -69 -46q-28 -30 -45 -72q-16 -41 -16 -93z" />
    <glyph glyph-name="glyph264" horiz-adv-x="828" 
d="M752 136h42l-2 -136h-394q-77 0 -141 26q-65 27 -115 75t-78 114q-28 65 -28 144q0 77 29 144q29 66 78 114q50 48 115 75q66 27 141 27t141 -27q67 -27 116 -75q50 -48 78 -114q29 -67 29 -144q0 -69 -26 -129q-25 -58 -69 -99l1 -1q1 0 19 3t64 3zM183 357v-1
q0 -49 17 -91q16 -41 45 -69q29 -29 69 -44t85 -15t84 15q38 15 69 44t47 69q17 42 17 92q0 48 -17 90q-16 40 -47 69t-69 44q-39 15 -84 15t-85 -15t-69 -44q-29 -28 -45 -69q-17 -42 -17 -90z" />
    <glyph glyph-name="glyph265" horiz-adv-x="608" 
d="M357 963l102 -57l-118 -177l-87 50zM571 524l-134 -37h-8q-6 24 -20 45q-13 19 -32 33t-41 20t-45 6q-47 0 -76 -21q-28 -21 -28 -52q0 -20 14 -36q14 -15 37 -27q21 -10 54 -22l63 -21q32 -10 77 -31q42 -19 71 -43q31 -26 51 -60q20 -35 20 -81q0 -48 -19 -86t-54 -67
t-84 -44q-48 -16 -109 -16q-112 0 -184 56q-74 57 -102 153l134 36q6 -25 19 -46q13 -23 33 -39q19 -16 47 -27q26 -10 60 -10q57 0 86 24t29 59q0 28 -16 45q-16 18 -43 31q-26 13 -62 24q-35 10 -72 24q-25 8 -64 26q-34 16 -60 37q-27 23 -45 54t-18 78q0 42 19 77
q20 37 54 65q35 29 81 45q45 16 102 16q48 0 93 -14q43 -14 78 -39q36 -26 59 -60q25 -36 35 -75z" />
    <glyph glyph-name="glyph266" horiz-adv-x="701" 
d="M689 700l-242 -339h108v-114h-138v-247h-138v247h-135v114h107l-241 339h156l144 -201q23 -33 26 -36q12 -15 13 -15h1q1 0 13 15q3 3 26 36l143 201h157z" />
    <glyph glyph-name="glyph267" horiz-adv-x="701" 
d="M511 834l-238 -103l-41 74l231 124zM689 700l-242 -339h108v-114h-138v-247h-138v247h-135v114h107l-241 339h156l144 -201q23 -33 26 -36q12 -15 13 -15h1q1 0 13 15q3 3 26 36l143 201h157z" />
    <glyph glyph-name="glyph268" horiz-adv-x="701" 
d="M345 830l-119 -99l-68 69l187 159l186 -159l-67 -69zM689 700l-242 -339h108v-114h-138v-247h-138v247h-135v114h107l-241 339h156l144 -201q23 -33 26 -36q12 -15 13 -15h1q1 0 13 15q3 3 26 36l143 201h157z" />
    <glyph glyph-name="glyph269" horiz-adv-x="701" 
d="M216 766v-1q-28 0 -48 18q-19 18 -19 47q0 27 19 46t48 19q27 0 46 -19t19 -46q0 -28 -19 -46q-20 -18 -46 -18zM474 767v-1q-28 0 -48 18q-19 18 -19 47q0 27 19 46t48 19q27 0 46 -19t19 -46q0 -28 -19 -46q-20 -18 -46 -18zM689 700l-242 -339h108v-114h-138v-247
h-138v247h-135v114h107l-241 339h156l144 -201q23 -33 26 -36q12 -15 13 -15h1q1 0 13 15q3 3 26 36l143 201h157z" />
    <glyph glyph-name="glyph270" horiz-adv-x="701" 
d="M442 805l-40 -74l-239 103l49 95zM689 700l-242 -339h108v-114h-138v-247h-138v247h-135v114h107l-241 339h156l144 -201q23 -33 26 -36q12 -15 13 -15h1q1 0 13 15q3 3 26 36l143 201h157z" />
    <glyph glyph-name="glyph271" horiz-adv-x="705" 
d="M408 959l102 -57l-118 -177l-87 50zM645 700v-130l-338 -382q-12 -13 -41 -45q-18 -19 -18 -21l1 -1l3 1q4 0 11.5 0.5t15.5 0.5q38 2 72 2h293v-129h-585v129l347 383q6 7 20 21q4 4 10.5 10t9.5 9l15 15l7 6l-1 1h-10h-25h-33h-35h-294v130h575z" />
    <glyph glyph-name="glyph272" horiz-adv-x="756" 
d="M446 959l102 -57l-118 -177l-87 50zM719 529l-142 -37l-3 -4q-29 40 -76 62q-49 23 -100 23q-48 0 -90 -17q-40 -16 -69 -47t-44 -72q-15 -42 -15 -91q0 -50 17 -93t45 -71t69 -45q39 -16 87 -16q59 0 111 29t77 75l140 -37q-23 -48 -55 -84t-75 -64t-92 -41
q-50 -15 -105 -15q-74 0 -141 26q-65 27 -115 75q-49 48 -78 116q-28 66 -28 147q0 78 29 147q29 68 78 116t116 75q66 27 141 27q54 0 100 -13q49 -14 88 -37q43 -25 74 -58q35 -36 56 -76z" />
    <glyph glyph-name="glyph273" horiz-adv-x="671" 
d="M162 700h441l1 -401q0 -78 -22 -135q-22 -58 -63 -99q-40 -40 -97 -61q-58 -20 -127 -20q-48 0 -95 14q-42 11 -81 37q-35 23 -64 57q-28 32 -43 72l137 37q19 -41 57 -63q37 -22 89 -22q81 0 125 48q44 49 44 134v272h-302v130z" />
    <glyph glyph-name="glyph274" horiz-adv-x="491" 
d="M315 122h138v-122h-415v122h138v456h-134v122h407v-122h-134v-456z" />
    <glyph glyph-name="glyph275" horiz-adv-x="491" 
d="M410 834l-238 -103l-41 74l231 124zM315 122h138v-122h-415v122h138v456h-134v122h407v-122h-134v-456z" />
    <glyph glyph-name="glyph276" horiz-adv-x="491" 
d="M244 830l-119 -99l-68 69l187 159l186 -159l-67 -69zM315 122h138v-122h-415v122h138v456h-134v122h407v-122h-134v-456z" />
    <glyph glyph-name="glyph277" horiz-adv-x="491" 
d="M115 766v-1q-29 0 -48 18t-19 47q0 27 19 46t48 19q27 0 46 -19t19 -46q0 -28 -19 -46t-46 -18zM373 767v-1q-29 0 -48 18t-19 47q0 27 19 46t48 19q27 0 46 -19t19 -46q0 -28 -19 -46t-46 -18zM315 122h138v-122h-415v122h138v456h-134v122h407v-122h-134v-456z" />
    <glyph glyph-name="glyph278" horiz-adv-x="491" 
d="M247 766h-2q-27 0 -46 19t-19 48q0 26 20 46q19 19 47 19q27 0 46 -19t19 -46q0 -29 -19 -48t-46 -19zM315 122h138v-122h-415v122h138v456h-134v122h407v-122h-134v-456z" />
    <glyph glyph-name="glyph279" horiz-adv-x="491" 
d="M341 805l-40 -74l-239 103l49 95zM315 122h138v-122h-415v122h138v456h-134v122h407v-122h-134v-456z" />
    <glyph glyph-name="glyph280" horiz-adv-x="1148" 
d="M316 573v-456h138v-121h-415v121h138v456h-134v122h407v-122h-134zM941 700h139l1 -401q0 -78 -22 -135q-23 -58 -63 -99q-40 -40 -97 -61q-58 -20 -127 -20q-48 0 -95 14q-43 11 -81 37q-35 23 -64 57q-28 32 -43 72l137 37q20 -41 57 -63t89 -22q82 0 125 48
q44 49 44 134v402z" />
    <glyph glyph-name="glyph281" horiz-adv-x="1145" 
d="M316 573v-456h138v-121h-415v121h138v456h-134v122h407v-122h-134zM636 700h441l1 -401q0 -78 -22 -135q-22 -58 -63 -99q-40 -40 -97 -61q-58 -20 -127 -20q-48 0 -95 14q-42 11 -81 37q-35 23 -64 57q-28 32 -43 72l137 37q19 -41 57 -63q37 -22 89 -22q81 0 125 48
q44 49 44 134v272h-302v130z" />
    <glyph glyph-name="glyph282" horiz-adv-x="960" 
d="M84 -4v699h139v-699h-139zM450 700h441l1 -401q0 -78 -22 -135q-22 -58 -63 -99q-40 -40 -97 -61q-58 -20 -127 -20q-48 0 -95 14q-42 11 -81 37q-35 23 -64 57q-28 32 -43 72l137 37q19 -41 57 -63q37 -22 89 -22q81 0 125 48q44 49 44 134v272h-302v130z" />
    <glyph glyph-name="glyph283" horiz-adv-x="491" 
d="M449 878v-108h-407v108h407zM315 122h138v-122h-415v122h138v456h-134v122h407v-122h-134v-456z" />
    <glyph glyph-name="glyph284" horiz-adv-x="491" 
d="M453 0h-224h-2q-18 0 -41 -5q-21 -5 -39 -15t-30 -27t-12 -41q0 -27 19 -47q20 -21 57 -21q31 0 56 17q23 16 37 44l73 -46q-25 -49 -70 -76t-96 -27q-36 0 -69 11q-32 11 -54 30t-36 48q-13 27 -13 65q0 28 9 50q9 23 23 40h-3v122h138v456h-134v122h407v-122h-134v-456
h138v-122z" />
    <glyph glyph-name="glyph285" horiz-adv-x="671" 
d="M162 700h441l1 -401q0 -78 -22 -135q-22 -58 -63 -99q-40 -40 -97 -61q-58 -20 -127 -20q-48 0 -95 14q-42 11 -81 37q-35 23 -64 57q-28 32 -43 72l137 37q19 -41 57 -63q37 -22 89 -22q81 0 125 48q44 49 44 134v272h-302v130z" />
    <glyph glyph-name="glyph286" horiz-adv-x="671" 
d="M372 825l-119 -99l-68 69l187 159l186 -159l-67 -69zM162 700h441l1 -401q0 -78 -22 -135q-22 -58 -63 -99q-40 -40 -97 -61q-58 -20 -127 -20q-48 0 -95 14q-42 11 -81 37q-35 23 -64 57q-28 32 -43 72l137 37q19 -41 57 -63q37 -22 89 -22q81 0 125 48q44 49 44 134
v272h-302v130z" />
    <glyph glyph-name="glyph287" horiz-adv-x="776" 
d="M554 700h139l-2 -702h-139v239l-178 146q-19 16 -55 48q-7 6 -24 21.5t-25 22.5l-36 32l-14 12h-1l1 -12v-33v-49v-60v-366h-139v699h131l152 -130l69 -60q32 -28 61 -52l44 -36l17 -14h1q0 15 -1 42t-1 105v147z" />
    <glyph glyph-name="glyph288" horiz-adv-x="776" 
d="M437 962l102 -57l-118 -177l-87 50zM554 700h139l-2 -700h-131l-199 269q-24 31 -48 66t-45 63q-28 38 -34 47l-13 19h-1v-18v-50v-75v-96v-225h-139v699h131l203 -273l42 -56q28 -37 45 -61q21 -30 36 -51l15 -20h1v20v52v75v86v229z" />
    <glyph glyph-name="glyph289" horiz-adv-x="776" 
d="M438 960l102 -57l-118 -177l-87 50zM554 700h139l-2 -702h-139v239l-178 146q-19 16 -55 48q-7 6 -24 21.5t-25 22.5l-36 32l-14 12h-1l1 -12v-33v-49v-60v-366h-139v699h131l152 -130l69 -60q32 -28 61 -52l44 -36l17 -14h1q0 15 -1 42t-1 105v147z" />
    <glyph glyph-name="glyph290" horiz-adv-x="776" 
d="M503 926l48 -95l-238 -103l-41 74zM554 700h139l-2 -702h-139v239l-178 146q-19 16 -55 48q-7 6 -24 21.5t-25 22.5l-36 32l-14 12h-1l1 -12v-33v-49v-60v-366h-139v699h131l152 -130l69 -60q32 -28 61 -52l44 -36l17 -14h1q0 15 -1 42t-1 105v147z" />
    <glyph glyph-name="glyph291" horiz-adv-x="776" 
d="M693 700h-139l-2 -148q-1 -48 1 -105q1 -27 1 -42h-1l-17 14l-21 17.5t-22 18.5q-1 1 -61 53l-69 60l-152 130h-131v-699h139v366v60v49v33v13h1l14 -12q5 -4 17.5 -15t18.5 -16q4 -3 22 -18.5t28 -24.5q18 -16 56 -48l178 -146v-240h139v700zM390 724l-187 159l68 69
l119 -99l119 99l67 -69z" />
    <glyph glyph-name="glyph292" horiz-adv-x="776" 
d="M553 702h139l-2 -702h-139v239l-178 146q-19 16 -55 48q-7 6 -24 21.5t-25 22.5l-36 32l-14 12h-1l1 -12v-33v-49v-60v-367h-139v700h131l152 -130l69 -60q32 -28 61 -52l44 -36l17 -14h1q0 15 -1 42t-1 105v147zM379 -166l12 4l-13 4q-16 1 -33 17q-16 15 -16 41
q0 27 19 45q20 18 46 18q25 0 45 -20q19 -19 19 -53q0 -24 -7 -45q-7 -23 -21 -45q-14 -24 -31 -42q-20 -21 -37 -36h-49q12 8 24 21t21 30t15 33t6 28z" />
    <glyph glyph-name="glyph293" horiz-adv-x="776" 
d="M502 881h109l-4 -2q0 -31 -10 -55q-10 -25 -30 -43q-19 -17 -45 -28q-24 -10 -57 -10q-25 0 -45 9q-13 6 -37 20q-7 4 -18.5 11t-14.5 9q-15 9 -32 9q-20 0 -33 -12t-13 -32h-109q0 29 11 56q11 26 30 44q20 19 45 29q27 11 57 11q27 0 48 -9q22 -10 38 -21
q14 -10 32 -21q15 -9 32 -9q20 0 33 12t13 32zM554 700h139l-2 -702h-139v239l-178 146q-19 16 -55 48q-7 6 -24 21.5t-25 22.5l-36 32l-14 12h-1l1 -12v-33v-49v-60v-366h-139v699h131l152 -130l69 -60q32 -28 61 -52l44 -36l17 -14h1q0 15 -1 42t-1 105v147z" />
    <glyph glyph-name="glyph294" horiz-adv-x="803" 
d="M452 957l102 -57l-118 -177l-87 50zM37 346l-3 -2q0 78 29 147q29 68 78 116t116 75q66 27 141 27t141 -27q67 -27 116 -75q50 -48 78 -115q29 -69 29 -147q0 -81 -28 -147q-28 -67 -78 -115q-49 -48 -116 -75q-67 -26 -141 -26t-141 26q-65 27 -115 75q-49 48 -78 116
q-28 66 -28 147zM183 350l-1 -4q0 -51 16 -92q16 -42 45 -72q28 -29 69 -46q39 -16 88 -16q47 0 89 17q40 16 69 47q28 30 45 72q16 41 16 92q0 52 -16 93q-17 42 -45 72q-29 31 -69 47q-42 17 -88 17q-49 0 -88 -16q-41 -17 -69 -46q-28 -30 -45 -72q-16 -41 -16 -93z" />
    <glyph glyph-name="glyph295" horiz-adv-x="828" 
d="M752 136h42l-2 -136h-394q-77 0 -141 26q-65 27 -115 75t-78 114q-28 65 -28 144q0 77 29 144q29 66 78 114q50 48 115 75q66 27 141 27t141 -27q67 -27 116 -75q50 -48 78 -114q29 -67 29 -144q0 -69 -26 -129q-25 -58 -69 -99l1 -1q1 0 19 3t64 3zM183 357v-1
q0 -49 17 -91q16 -41 45 -69q29 -29 69 -44t85 -15t84 15q38 15 69 44t47 69q17 42 17 92q0 48 -17 90q-16 40 -47 69t-69 44q-39 15 -84 15t-85 -15t-69 -44q-29 -28 -45 -69q-17 -42 -17 -90z" />
    <glyph glyph-name="glyph296" horiz-adv-x="608" 
d="M357 963l102 -57l-118 -177l-87 50zM571 524l-134 -37h-8q-6 24 -20 45q-13 19 -32 33t-41 20t-45 6q-47 0 -76 -21q-28 -21 -28 -52q0 -20 14 -36q14 -15 37 -27q21 -10 54 -22l63 -21q32 -10 77 -31q42 -19 71 -43q31 -26 51 -60q20 -35 20 -81q0 -48 -19 -86t-54 -67
t-84 -44q-48 -16 -109 -16q-112 0 -184 56q-74 57 -102 153l134 36q6 -25 19 -46q13 -23 33 -39q19 -16 47 -27q26 -10 60 -10q57 0 86 24t29 59q0 28 -16 45q-16 18 -43 31q-26 13 -62 24q-35 10 -72 24q-25 8 -64 26q-34 16 -60 37q-27 23 -45 54t-18 78q0 42 19 77
q20 37 54 65q35 29 81 45q45 16 102 16q48 0 93 -14q43 -14 78 -39q36 -26 59 -60q25 -36 35 -75z" />
    <glyph glyph-name="glyph297" horiz-adv-x="701" 
d="M689 700l-242 -339h108v-114h-138v-247h-138v247h-135v114h107l-241 339h156l144 -201q23 -33 26 -36q12 -15 13 -15h1q1 0 13 15q3 3 26 36l143 201h157z" />
    <glyph glyph-name="glyph298" horiz-adv-x="701" 
d="M511 834l-238 -103l-41 74l231 124zM689 700l-242 -339h108v-114h-138v-247h-138v247h-135v114h107l-241 339h156l144 -201q23 -33 26 -36q12 -15 13 -15h1q1 0 13 15q3 3 26 36l143 201h157z" />
    <glyph glyph-name="glyph299" horiz-adv-x="701" 
d="M345 830l-119 -99l-68 69l187 159l186 -159l-67 -69zM689 700l-242 -339h108v-114h-138v-247h-138v247h-135v114h107l-241 339h156l144 -201q23 -33 26 -36q12 -15 13 -15h1q1 0 13 15q3 3 26 36l143 201h157z" />
    <glyph glyph-name="glyph300" horiz-adv-x="701" 
d="M216 766v-1q-28 0 -48 18q-19 18 -19 47q0 27 19 46t48 19q27 0 46 -19t19 -46q0 -28 -19 -46q-20 -18 -46 -18zM474 767v-1q-28 0 -48 18q-19 18 -19 47q0 27 19 46t48 19q27 0 46 -19t19 -46q0 -28 -19 -46q-20 -18 -46 -18zM689 700l-242 -339h108v-114h-138v-247
h-138v247h-135v114h107l-241 339h156l144 -201q23 -33 26 -36q12 -15 13 -15h1q1 0 13 15q3 3 26 36l143 201h157z" />
    <glyph glyph-name="glyph301" horiz-adv-x="701" 
d="M442 805l-40 -74l-239 103l49 95zM689 700l-242 -339h108v-114h-138v-247h-138v247h-135v114h107l-241 339h156l144 -201q23 -33 26 -36q12 -15 13 -15h1q1 0 13 15q3 3 26 36l143 201h157z" />
    <glyph glyph-name="glyph302" horiz-adv-x="705" 
d="M408 959l102 -57l-118 -177l-87 50zM645 700v-130l-338 -382q-12 -13 -41 -45q-18 -19 -18 -21l1 -1l3 1q4 0 11.5 0.5t15.5 0.5q38 2 72 2h293v-129h-585v129l347 383q6 7 20 21q4 4 10.5 10t9.5 9l15 15l7 6l-1 1h-10h-25h-33h-35h-294v130h575z" />
    <glyph glyph-name="glyph326" horiz-adv-x="717" 
d="M358 711v-2q74 0 135 -29t101 -78q41 -50 63 -115t22 -141t-22 -141t-63 -115q-40 -49 -101 -78q-62 -28 -135 -28t-135 28q-60 28 -102 78q-42 49 -63 116q-21 66 -21 141t21 141q21 67 63 116q42 50 102 78q61 29 135 29zM221 195l221 359h-2q-35 20 -81 20
q-45 0 -78 -18t-54 -48q-22 -31 -32 -72q-10 -40 -10 -88q0 -45 9 -84t27 -69zM498 501l-220 -359l2 -3q34 -19 80 -19q45 0 78 18q34 18 54 49q22 33 32 73q11 44 11 89q0 44 -9 83q-9 40 -28 69z" />
    <glyph glyph-name="glyph327" horiz-adv-x="379" 
d="M190 465v-1q-40 0 -73 15t-57 42q-23 26 -37 64q-13 36 -13 81t13 81q14 39 37 65q24 27 57 42t73 15t73 -15q34 -15 56 -42q23 -27 36 -64q13 -36 13 -81t-13 -81q-13 -37 -36 -64q-22 -27 -56 -42q-33 -15 -73 -15zM190 559v-1q20 0 36 9t27 24q11 16 17 35q6 20 6 42
q0 45 -23 77t-62 32t-62 -32t-23 -77q0 -22 6 -42q5 -17 17 -34q10 -14 26 -24q15 -9 35 -9z" />
    <glyph glyph-name="glyph328" horiz-adv-x="353" 
d="M327 623v-75h-44v-75h-81v75h-194v62l206 251h69v-238h44zM152 623h52l-2 64q0 25 1 36t1 18h-1q-1 0 -10 -13q-6 -9 -20 -25l-47 -55q-7 -8 -18 -19q-8 -8 -8 -9l1 -1l2 1q2 0 6 0.5t8 0.5q20 2 35 2z" />
    <glyph glyph-name="glyph329" horiz-adv-x="337" 
d="M111 711l1 -1l-1 -2q7 8 21 15q13 7 36 7q67 0 106 -36t39 -94q0 -27 -11 -54q-10 -25 -30 -43q-19 -17 -46 -28q-26 -10 -58 -10t-57 9t-45 24q-18 14 -31 35q-12 19 -15 42l80 22q4 -22 20 -39q15 -16 44 -16q28 0 47 17q18 17 18 42q0 29 -18 45q-19 17 -47 17
q-22 0 -37 -9q-14 -9 -22 -24l-74 20l36 211h222v-79h-157l-4 -17q-8 -31 -11 -38q-6 -15 -6 -16z" />
    <glyph glyph-name="glyph330" horiz-adv-x="336" 
d="M247 859l-110 -145l1 -2q5 5 14 11t24 6q31 0 55 -10q25 -11 43 -28q18 -18 27 -42t9 -51q0 -30 -12 -55t-31 -43t-47 -27q-27 -9 -59 -9q-31 0 -58 9t-48 27t-33 43t-12 57q0 45 16 78q16 34 45 72l83 109h93zM162 542l-1 -3q28 0 47 17q16 15 18 45q0 28 -17 44
q-19 17 -47 17q-31 0 -48 -16q-18 -16 -18 -43q0 -29 18 -45q17 -16 48 -16z" />
    <glyph glyph-name="glyph331" horiz-adv-x="309" 
d="M10 862h294l1 -51l-187 -338h-89l138 249q15 28 29 46q12 15 12 16l-1 1q-8 0 -22 -1t-49 -1h-126v79z" />
    <glyph glyph-name="glyph332" horiz-adv-x="317" 
d="M224 680v-1l-3 1q12 -3 27 -11q14 -7 26 -20q12 -11 19 -28q8 -18 8 -37q0 -51 -42 -84q-43 -34 -106 -34t-106 34q-42 33 -42 84q0 19 8 37q7 17 19 28q12 13 26 20q15 8 27 11v1q-7 1 -18 9q-12 8 -20 18q-9 10 -15 26q-6 15 -6 34q0 46 36 74q37 29 93 29q26 0 52 -8
q24 -7 42 -21t27 -33t9 -42q0 -19 -6 -34q-7 -17 -16 -26q-11 -11 -21 -18t-18 -9zM99 765h-2q0 -19 17 -33q16 -14 42 -12q26 0 42 12q17 12 17 32t-16 32q-17 12 -42 12t-42 -12q-16 -12 -16 -31zM91 585h-1q0 -24 19 -39t48 -15t49 15q19 15 19 38t-19 38q-20 15 -48 15
t-48 -15q-19 -15 -19 -37z" />
    <glyph glyph-name="glyph333" horiz-adv-x="323" 
d="M62 473l124 143l-4 1q-6 -7 -17 -12q-9 -4 -21 -4q-28 0 -55 11q-24 10 -43 29q-18 18 -27 42t-9 51q0 30 12 55q11 24 32 43q19 18 47 27q27 9 59 9t59 -9t48 -27t33 -43t12 -57q0 -44 -18 -82q-19 -39 -49 -75l-85 -102h-98zM159 795v-1q-28 0 -47 -17t-19 -44
q-1 -27 18 -45q17 -16 48 -16q29 0 48 17q18 17 18 45t-18 44q-19 17 -48 17z" />
    <glyph glyph-name="glyph334" 
d="M345 710l-1 -2q75 0 130 -31q54 -31 91 -83t53 -117q17 -68 17 -133t-17 -133q-16 -65 -53 -117t-91 -83q-56 -30 -130 -30q-73 0 -130 31q-54 31 -91 83q-35 50 -52 117q-17 68 -17 133t17 133q16 65 53 117t91 83q56 32 130 32zM348 577l-3 -4q-44 0 -73 -23
q-28 -22 -45 -57q-16 -33 -22 -73q-6 -39 -6 -73t6 -73q6 -40 22 -73q17 -35 45 -57q29 -23 74 -23t74 23q28 22 45 57q17 36 23 74q6 39 6 74t-6 74q-6 41 -22 74q-16 35 -45 57q-29 23 -73 23z" />
    <glyph glyph-name="glyph335" 
d="M458 130h166v-129h-474v130h168v253v38q0 14 2 36q1 11 1 27v11h-1l-5 -6q-5 -6 -12 -15q-5 -6 -18 -19l-21 -21l-50 -50l-86 83l232 232h98v-570z" />
    <glyph glyph-name="glyph336" 
d="M211 488l-128 34l-4 -5q14 44 37 79t57 61q33 25 75 39q44 14 92 14q54 0 102 -17q45 -16 79 -47q33 -30 51 -71t18 -89q0 -53 -16 -89q-17 -39 -42 -68q-26 -30 -57 -54q-42 -32 -63 -47l-51 -36q-10 -7 -26 -18.5t-20 -14.5q-28 -20 -34 -24l-13 -9l1 -1l5 1
q5 0 16 0.5t23 0.5q56 2 116 2h161v-129h-505v113q100 86 149 129t149 129q29 25 48 56q18 30 18 62q0 42 -30 72t-81 30q-28 0 -49 -9t-36 -24q-16 -16 -26 -33t-16 -37z" />
    <glyph glyph-name="glyph337" 
d="M218 487l-125 34l-4 -7q22 88 92 141q68 52 170 52q63 0 108 -16q47 -17 78 -43q31 -27 48 -63q16 -35 16 -77q0 -36 -13 -62q-13 -27 -34 -46q-21 -20 -46 -30q-26 -10 -48 -12v-1q30 0 56 -10q27 -11 48 -30q20 -19 34 -48q13 -27 13 -66q0 -51 -19 -90
q-20 -41 -54 -69q-36 -30 -82 -44q-47 -16 -103 -16q-50 0 -95 15q-43 13 -81 40q-34 24 -61 62q-26 36 -36 79l126 35q12 -49 49 -77q38 -29 93 -29q54 0 86 28q33 29 33 75q0 44 -33 68t-90 24h-60v110h60q56 0 85 24q28 24 28 66q0 35 -28 60q-29 26 -84 26
q-51 0 -80 -25q-31 -26 -47 -78z" />
    <glyph glyph-name="glyph338" 
d="M631 265v-121h-82v-143h-131v143h-358v103l376 454h113v-436h82zM311 264h105l2 86v57v51v38l1 15h-1l-7 -9q-13 -16 -18 -22q-3 -4 -22 -30q-12 -16 -24 -30l-86 -101q-22 -27 -35 -41l-11 -13v-1h33h63z" />
    <glyph glyph-name="glyph339" 
d="M241 428l1 -1l1 -2q10 10 38 21q26 10 65 10q54 0 102 -17q46 -17 81 -48q35 -32 54 -73q20 -43 20 -93q0 -54 -19 -96q-19 -43 -54 -76q-34 -33 -81 -51q-48 -17 -102 -17q-52 0 -97 15q-45 14 -78 39q-35 27 -56 58q-22 32 -31 69l127 34q4 -18 15 -36q9 -16 26 -31
q15 -13 38 -21q24 -8 51 -8q52 0 87 35q34 34 34 89q0 28 -9 50t-26 39q-16 16 -39 25t-48 9q-29 0 -48 -6t-33 -15q-13 -9 -21 -20q-7 -10 -12 -21l-120 33l62 378h390v-130h-288l-8 -43q-12 -60 -16 -75q-6 -22 -6 -24z" />
    <glyph glyph-name="glyph340" 
d="M492 700l-199 -263l1 -1q10 10 29 21t54 11q57 0 101 -19t75 -53t47 -78q17 -46 17 -94q0 -52 -21 -96t-57 -75q-35 -30 -86 -49q-51 -17 -108 -17q-52 0 -105 16q-49 16 -85 48q-36 31 -57 77q-21 45 -21 102q0 40 9 74q9 33 24 67q15 33 36 66q20 32 47 68l148 195h151
zM352 108h-1q30 0 54 9q23 9 42 26q18 17 27 39t9 50q2 56 -36 89q-37 33 -96 33q-61 0 -96 -34q-36 -34 -36 -88q0 -56 37 -90t96 -34z" />
    <glyph glyph-name="glyph341" 
d="M110 700h524l-3 -84l-347 -618h-149l240 422q10 18 32 54q17 27 30 48q18 28 22 34l9 13l-1 1h-10h-25h-32h-30h-260v130z" />
    <glyph glyph-name="glyph342" 
d="M466 369v-1l-11 -2q28 -5 54 -19q28 -16 48 -37q20 -22 34 -52q13 -29 13 -67q0 -46 -19 -84q-19 -39 -55 -67q-37 -29 -84 -44q-47 -16 -106 -16q-57 0 -108 17q-49 15 -84 44t-54 67q-20 40 -20 84q0 36 14 67q13 30 35 53q21 22 48 36q27 13 53 18v1q-13 1 -33 14
q-22 13 -38 31t-31 47q-13 26 -13 62q0 39 18 74t49 60q30 25 75 40q43 15 94 15t94 -15q45 -15 75 -40q31 -25 49 -60t18 -73q0 -36 -13 -62q-15 -29 -31 -47t-38 -31q-19 -11 -33 -13zM234 519l-1 -3q0 -39 33 -63t84 -24q52 0 83 25q32 26 32 63q0 43 -33 68
q-34 26 -82 26q-52 0 -84 -26t-32 -66zM216 201l1 -1q0 -48 36 -77q37 -29 96 -29q61 0 97 30t36 77q0 48 -37 76t-96 28q-60 0 -97 -29q-36 -28 -36 -75z" />
    <glyph glyph-name="glyph343" 
d="M150 -1l228 261l-3 2q-13 -16 -36 -24q-21 -7 -46 -7q-61 0 -105 19q-46 20 -75 52q-30 33 -45 77q-15 43 -15 93q0 55 21 100q21 44 57 76q36 31 86 48q51 17 108 17t105 -16q50 -17 86 -48t57 -78t21 -105q0 -62 -27 -130q-27 -67 -96 -148l-162 -189h-159zM323 591
l-2 -2q-57 0 -96 -33t-39 -91q0 -27 11 -51q11 -23 29 -38q19 -16 42 -23q26 -8 53 -8q59 0 96 33q38 33 38 89q0 32 -10 53q-11 23 -28 39q-18 17 -42 24q-26 8 -52 8z" />
    <glyph glyph-name="glyph344" 
d="M348 710l-1 -2q75 0 130 -31q54 -31 91 -83t53 -117q17 -68 17 -133t-17 -133q-16 -65 -53 -117t-91 -83q-55 -30 -130 -30q-73 0 -130 31q-54 31 -91 83q-35 50 -52 117q-17 68 -17 133t17 133q16 65 53 117t91 83q56 32 130 32zM224 214l205 333v-2q-17 13 -36 21
q-21 8 -45 8q-44 0 -73 -23t-45 -57q-16 -33 -22 -73q-6 -39 -6 -73q0 -27 5 -67q4 -33 17 -67zM476 474l-202 -328v-2q14 -11 32 -17t41 -6q45 0 74 23q29 22 45 57q17 36 23 74q6 39 6 74q0 33 -4 62q-5 33 -15 63z" />
    <glyph glyph-name="glyph345" horiz-adv-x="378" 
d="M189 706v-1q40 0 73 -15q34 -15 56 -42q23 -27 36 -64q13 -36 13 -81t-13 -81q-13 -37 -36 -64q-22 -27 -56 -42q-33 -15 -73 -15t-73 15t-57 42q-23 26 -37 64q-13 36 -13 81t13 81q14 39 37 65q24 27 57 42t73 15zM120 438l103 166q-18 8 -34 8q-39 0 -62 -32t-23 -77
q0 -37 16 -65zM260 569l-102 -165l-1 -2q13 -7 32 -7t36 9t27 24q11 16 17 35t6 42q0 37 -15 64z" />
    <glyph glyph-name="glyph346" horiz-adv-x="378" 
d="M189 393v-1q40 0 73 -15q34 -15 56 -42q23 -27 36 -64q13 -36 13 -81t-13 -81q-13 -37 -36 -64q-22 -27 -56 -42q-34 -14 -73 -14t-73 14q-33 15 -57 42q-23 26 -37 64q-13 36 -13 81t13 81q14 39 37 65q24 27 57 42t73 15zM120 125l103 166q-18 8 -34 8q-39 0 -62 -32
t-23 -77q0 -37 16 -65zM260 256l-102 -165l-1 -2q13 -7 32 -7t36 9t27 24q11 16 17 35q6 20 6 42q0 37 -15 64z" />
    <glyph glyph-name="glyph347" horiz-adv-x="378" 
d="M189 868v-1q40 0 73 -15q34 -15 56 -42q23 -27 36 -64q13 -36 13 -81t-13 -81q-13 -37 -36 -64q-22 -27 -56 -42q-33 -15 -73 -15t-73 15t-57 42q-23 26 -37 64q-13 36 -13 81t13 81q14 39 37 65q24 27 57 42t73 15zM120 600l103 166q-18 8 -34 8q-39 0 -62 -32t-23 -77
q0 -37 16 -65zM260 731l-102 -165l-1 -2q13 -7 32 -7t36 9t27 24q11 16 17 35t6 42q0 37 -15 64z" />
    <glyph glyph-name="glyph348" horiz-adv-x="379" 
d="M190 -8q-39 0 -73 14q-33 15 -57 42q-23 26 -37 64q-13 36 -13 81t13 81q14 38 37 64q24 27 57 42t73 15t73 -15q34 -15 56 -42q23 -27 36 -64q13 -36 13 -81t-13 -81q-13 -37 -36 -64q-22 -27 -56 -42q-34 -14 -73 -14zM190 86v-1q20 0 36 9t27 24q11 16 17 35t6 42
t-6 42t-17 35q-11 15 -27 24t-36 9t-35 -9q-16 -10 -26 -24q-11 -16 -17 -35t-6 -42t6 -42q5 -17 17 -34q10 -14 26 -24q15 -9 35 -9z" />
    <glyph glyph-name="glyph349" horiz-adv-x="251" 
d="M154 388h64l-4 -388h-91v196q0 18 1 27q2 13 3 24t3 18l1 8h-1q-2 0 -9 -12t-24 -27l-29 -27l-57 50z" />
    <glyph glyph-name="glyph350" horiz-adv-x="336" 
d="M140 73l1 -1l-5 2q2 0 32 3t73 3h65v-79h-286v60l135 113q23 20 45 44q19 20 19 47q0 21 -15 35q-16 14 -38 14q-16 0 -28 -6q-11 -6 -19 -15q-7 -9 -12 -21q-7 -19 -8 -22l-80 21q6 27 19 48t33 40q19 17 45 28q27 11 55 11q32 0 56 -10q26 -11 45 -28q20 -18 30 -42
q11 -25 11 -52q0 -38 -19 -66q-20 -28 -45 -51q-25 -21 -54 -42q-23 -15 -39 -24t-16 -10z" />
    <glyph glyph-name="glyph351" horiz-adv-x="331" 
d="M103 262l-77 21l-1 -5q10 50 50 82q38 31 98 31q68 0 104 -33t36 -80q0 -21 -7 -35q-7 -15 -19 -25q-11 -10 -27 -16q-15 -6 -28 -6v-1q17 0 32 -6q16 -6 27 -16q12 -11 20 -26q8 -16 8 -35q0 -26 -11 -50q-10 -22 -30 -39t-46 -24q-27 -9 -58 -9q-28 0 -54 9
q-23 7 -46 23q-21 15 -36 36q-14 20 -19 46l78 22q5 -29 23 -44t53 -15q29 0 44 15t15 35q0 23 -18 36q-17 13 -45 13h-37v64h37q23 0 40 14q16 13 16 33q0 16 -14 30q-13 13 -39 13q-29 0 -45 -13q-17 -13 -24 -45z" />
    <glyph glyph-name="glyph352" horiz-adv-x="353" 
d="M327 151v-76h-44v-75h-81v75h-194v62l206 251h69v-237h44zM152 149h52l-2 66q0 25 1 35t1 17h-1q-1 0 -10 -12q-6 -8 -20 -24l-47 -55q-10 -14 -18 -21q-8 -8 -8 -9l1 -1l2 1q2 0 6 0.5t8 0.5q20 2 35 2z" />
    <glyph glyph-name="glyph353" horiz-adv-x="337" 
d="M111 237l1 -1v-1q8 7 21 15q14 8 36 8q67 0 106 -36t39 -95q0 -27 -11 -54q-10 -25 -30 -43q-19 -17 -46 -28q-27 -9 -58 -9q-30 0 -57 8q-26 9 -45 24q-18 14 -31 35q-12 20 -15 42l80 22q4 -22 20 -39q15 -16 44 -16q28 0 47 17q18 16 18 42q0 28 -18 45q-19 17 -47 17
q-44 0 -60 -34l-74 20l36 211h222v-79h-157l-4 -17q-8 -31 -11 -38q-6 -15 -6 -16z" />
    <glyph glyph-name="glyph354" horiz-adv-x="336" 
d="M247 386l-110 -144l1 -3q5 5 14 11t24 6q31 0 55 -10q25 -10 43 -28t27 -42t9 -51q0 -29 -12 -55q-12 -25 -31 -43t-47 -27q-29 -8 -59 -8q-29 0 -58 8q-27 9 -48 27t-33 43q-12 26 -12 57q0 45 16 78q16 35 45 72l83 109h93zM162 68l-1 -2q28 0 47 17q18 17 18 45
q1 28 -17 45q-19 17 -47 17q-31 0 -48 -16q-18 -16 -18 -45t18 -45q17 -16 48 -16z" />
    <glyph glyph-name="glyph355" horiz-adv-x="309" 
d="M10 388h294l1 -51l-187 -337h-89l138 248q15 28 29 46q12 15 12 16l-1 1q-8 0 -22 -1t-49 -1h-126v79z" />
    <glyph glyph-name="glyph356" horiz-adv-x="317" 
d="M224 205v-1l-3 -3q15 -3 27 -10q16 -9 26 -19q12 -12 19 -28q8 -18 8 -37q0 -51 -42 -84t-106 -33t-106 33t-42 84q0 20 8 38t19 29q12 12 26 20q15 8 27 11v1q-7 2 -18 9q-12 8 -20 18q-9 10 -15 26q-6 15 -6 34q0 45 36 74q37 29 93 29q26 0 52 -8q24 -8 42 -21t27 -33
t9 -42q0 -19 -6 -34q-7 -17 -16 -26q-11 -10 -21 -18t-18 -9zM99 291l-2 -1q0 -20 17 -32q16 -12 42 -12t42 12q17 12 17 32t-16 32q-17 12 -42 12t-42 -12q-16 -12 -16 -31zM91 111h-1q0 -24 19 -39t48 -15t49 15q19 15 19 38t-19 38q-20 15 -48 15t-48 -15
q-19 -15 -19 -37z" />
    <glyph glyph-name="glyph357" horiz-adv-x="323" 
d="M62 -1l124 142l-4 -1q-5 -5 -17 -10q-9 -4 -21 -4q-28 0 -55 11q-24 10 -43 29q-18 18 -27 42t-9 51q0 29 12 55q11 24 32 43q19 18 47 27q27 9 59 9t59 -9t48 -27t33 -43q12 -26 12 -57q0 -45 -18 -82q-19 -39 -49 -75l-85 -101h-98zM159 321v-2q-30 0 -47 -16t-19 -45
q0 -28 18 -45q17 -16 48 -16q29 0 48 17q18 16 18 45t-18 45q-19 17 -48 17z" />
    <glyph glyph-name="glyph358" horiz-adv-x="379" 
d="M190 303v-1q-40 0 -73 15t-57 42q-23 26 -37 64q-13 36 -13 81t13 81q14 39 37 65q24 27 57 42t73 15t73 -15q34 -15 56 -42q23 -27 36 -64q13 -36 13 -81t-13 -81q-13 -37 -36 -64q-22 -27 -56 -42q-33 -15 -73 -15zM190 397v-1q20 0 36 9t27 24q11 16 17 35q6 20 6 42
q0 45 -23 77t-62 32t-62 -32t-23 -77q0 -22 6 -42q5 -17 17 -34q10 -14 26 -24q15 -9 35 -9z" />
    <glyph glyph-name="glyph359" horiz-adv-x="251" 
d="M154 700h64l-4 -389h-91v196q0 18 1 27q2 14 3 24t3 18l1 8h-1q-2 0 -9 -12q-3 -5 -24 -26l-29 -28l-57 51z" />
    <glyph glyph-name="glyph360" horiz-adv-x="336" 
d="M140 385l1 -1l-5 -1q2 0 32 3t73 3h65v-79h-286v60l135 113q23 20 45 44q19 20 19 48q0 21 -15 35q-16 14 -38 14q-16 0 -28 -6q-11 -6 -19 -15q-7 -9 -12 -21q-7 -19 -8 -22l-80 21q6 27 19 48t33 40q19 17 45 28q27 11 55 11q32 0 56 -10q26 -11 45 -28q20 -18 30 -42
q11 -25 11 -52q0 -38 -19 -66q-19 -27 -45 -49q-25 -21 -54 -42q-23 -15 -39 -24t-16 -10z" />
    <glyph glyph-name="glyph361" horiz-adv-x="344" 
d="M103 574l-77 21l-1 -4q10 50 50 82q38 31 98 31q68 0 104 -33t36 -80q0 -21 -7 -35q-7 -15 -19 -25q-11 -10 -27 -16q-15 -6 -28 -6v-1q19 -2 32 -7q16 -6 27 -16q13 -12 20 -25q8 -16 8 -35q0 -26 -11 -50q-10 -23 -30 -39q-19 -16 -46 -25t-58 -9q-28 0 -54 9
q-25 9 -46 24t-36 36q-14 20 -19 46l78 21q4 -27 23 -43q18 -15 53 -15q28 0 44 14q15 14 15 35q0 23 -18 36q-17 13 -45 13h-37v64h37q23 0 40 14q16 13 16 33q0 16 -14 30q-13 13 -39 13q-29 0 -45 -13q-17 -13 -24 -45z" />
    <glyph glyph-name="glyph362" horiz-adv-x="353" 
d="M327 461v-75h-44v-75h-81v75h-194v62l206 251h69v-238h44zM152 461h52l-2 64q0 25 1 36t1 18h-1q-1 0 -10 -13q-6 -9 -20 -25l-47 -55q-7 -8 -18 -19q-8 -8 -8 -9l1 -1l2 1q2 0 6 0.5t8 0.5q20 2 35 2z" />
    <glyph glyph-name="glyph363" horiz-adv-x="337" 
d="M111 549l1 -1l-1 -2q7 8 21 15q13 7 36 7q67 0 106 -36t39 -94q0 -27 -11 -54q-10 -25 -30 -43q-19 -17 -46 -28q-26 -10 -58 -10t-57 9t-45 24q-18 14 -31 35q-12 19 -15 42l80 22q4 -22 20 -39q15 -16 44 -16q28 0 47 17q18 17 18 42q0 29 -18 45q-19 17 -47 17
q-22 0 -37 -9q-14 -9 -22 -24l-74 20l36 211h222v-79h-157l-4 -17q-8 -31 -11 -38q-6 -15 -6 -16z" />
    <glyph glyph-name="glyph364" horiz-adv-x="336" 
d="M247 697l-110 -145l1 -2q5 5 14 11t24 6q31 0 55 -10q25 -11 43 -28q18 -18 27 -42t9 -51q0 -30 -12 -55t-31 -43t-47 -27q-27 -9 -59 -9q-31 0 -58 9t-48 27t-33 43t-12 57q0 45 16 78q16 34 45 72l83 109h93zM162 380l-1 -3q28 0 47 17q16 15 18 45q0 28 -17 44
q-19 17 -47 17q-31 0 -48 -16q-18 -16 -18 -43q0 -29 18 -45q17 -16 48 -16z" />
    <glyph glyph-name="glyph365" horiz-adv-x="309" 
d="M10 700h294l1 -51l-187 -338h-89l138 249q15 28 29 46q12 15 12 16l-1 1q-8 0 -22 -1t-49 -1h-126v79z" />
    <glyph glyph-name="glyph366" horiz-adv-x="317" 
d="M224 518v-1l-3 1q12 -3 27 -11q14 -7 26 -20q12 -11 19 -28q8 -18 8 -37q0 -51 -42 -84q-43 -34 -106 -34t-106 34q-42 33 -42 84q0 19 8 37q7 17 19 28q12 13 26 20q15 8 27 11v1q-7 1 -18 9q-12 8 -20 18q-9 10 -15 26q-6 15 -6 34q0 46 36 74q37 29 93 29q26 0 52 -8
q24 -7 42 -21t27 -33t9 -42q0 -19 -6 -34q-7 -17 -16 -26q-11 -11 -21 -18t-18 -9zM99 603h-2q0 -19 17 -33q16 -14 42 -12q26 0 42 12q17 12 17 32t-16 32q-17 12 -42 12t-42 -12q-16 -12 -16 -31zM91 423h-1q0 -24 19 -39t48 -15t49 15q19 15 19 38t-19 38q-20 15 -48 15
t-48 -15q-19 -15 -19 -37z" />
    <glyph glyph-name="glyph367" horiz-adv-x="323" 
d="M62 311l124 143l-4 1q-6 -7 -17 -12q-9 -4 -21 -4q-28 0 -55 11q-24 10 -43 29q-18 18 -27 42t-9 51q0 30 12 55q11 24 32 43q19 18 47 27q27 9 59 9t59 -9t48 -27t33 -43t12 -57q0 -44 -18 -82q-19 -39 -49 -75l-85 -102h-98zM159 633v-1q-28 0 -47 -17t-19 -44
q-1 -27 18 -45q17 -16 48 -16q29 0 48 17q18 17 18 45t-18 44q-19 17 -48 17z" />
    <glyph glyph-name="glyph368" 
d="M613 524l-134 -37l-4 6q-6 24 -20 45q-13 19 -32 33t-41 20t-45 6q-47 0 -76 -21q-28 -21 -28 -52q0 -20 14 -36q14 -15 37 -27q21 -10 54 -22l63 -21q32 -10 77 -31q42 -19 71 -43q31 -26 51 -60q20 -35 20 -81q0 -79 -54 -135q-55 -56 -145 -71v-82h-139v83
q-82 15 -138 68q-55 52 -79 132l134 36q6 -25 19 -46q14 -22 33 -39q19 -16 47 -27q26 -10 60 -10q58 0 86 24q29 24 29 59q0 28 -16 45q-16 18 -43 31q-26 13 -62 24q-34 11 -72 24q-26 9 -64 26q-34 16 -60 37q-27 22 -45 54t-18 78q0 33 14 66q13 32 39 57q27 27 60 44
q36 19 78 26v82h139v-85q73 -18 122 -66q50 -49 68 -114z" />
    <glyph glyph-name="glyph369" 
d="M559 698l-152 -324l-1 -2q38 20 82 20q40 0 73 -15q34 -15 56 -42q23 -27 36 -64q13 -36 13 -81t-13 -81q-13 -37 -36 -64q-22 -27 -56 -42q-34 -14 -73 -14q-35 0 -69 13q-32 14 -54 37t-37 57q-15 33 -18 72l-80 -170h-92l155 328q-40 -25 -92 -25q-40 0 -73 15t-57 42
q-23 26 -37 64q-13 36 -13 81t13 81q14 39 37 65q24 27 57 42t73 15q39 0 72 -15t56 -41t36 -61q13 -36 15 -78l88 187h91zM202 396v-1q20 0 36 9t27 24q11 16 17 35t6 42q0 45 -23 77t-62 32t-62 -32t-23 -77q0 -23 6 -42q5 -17 17 -34q10 -14 26 -24q15 -9 35 -9zM489 86
v-1q19 0 36 9t27 24q11 16 17 35t6 42t-6 42t-17 35q-10 15 -27 24t-36 9q-20 0 -35 -9q-16 -10 -26 -24q-11 -16 -17 -35t-6 -42t6 -42q5 -17 17 -34q10 -14 26 -24q15 -9 35 -9z" />
    <glyph glyph-name="glyph370" 
d="M485 276l121 -34l-3 -4q-24 -61 -75 -103q-50 -41 -117 -55v-97h-112v98q-45 11 -81 34q-38 25 -66 58q-28 35 -45 78q-16 42 -16 93t16 93q17 43 45 78q28 33 66 58q36 23 81 34v106h112v-105q63 -14 111 -51q49 -38 74 -93l-121 -32q-20 29 -49 45t-70 16
q-62 0 -100 -39q-37 -38 -37 -108q0 -68 38 -108q37 -39 101 -39q45 0 77 20t50 57z" />
    <glyph glyph-name="glyph371" 
d="M428 130h192l1 -134h-529v129q47 10 61 41q13 29 7 89l-3 29h-63v110h53l-8 90q-5 46 12 87t48 72q30 30 74 49q41 17 90 19q31 1 72 -8q38 -9 75 -32t65 -60q29 -37 42 -93l-117 -33q-17 53 -50 80q-32 27 -81 25q-24 -2 -42 -12q-19 -11 -30 -25q-12 -15 -18 -36
q-6 -19 -4 -43l7 -77h204v-110h-193l2 -25q4 -55 -6 -88q-11 -33 -33 -48l1 -1l14 1q5 1 17.5 1.5t18.5 0.5q30 2 54 2h67z" />
    <glyph glyph-name="glyph372" 
d="M501 557l69 69l67 -69l-70 -69q22 -31 36 -71q13 -38 13 -81q0 -44 -13 -82q-14 -40 -36 -71l69 -69l-69 -69l-69 69q-31 -22 -71 -36q-38 -13 -82 -13q-43 0 -81 13t-70 36l-68 -69l-69 69l68 68q-23 34 -35 72q-12 39 -12 82t12 82t35 71l-69 68l69 69l69 -69
q31 22 71 36q38 13 81 13q45 0 83 -13q39 -13 72 -36zM348 488l-1 -3q-29 0 -56 -11q-25 -10 -45 -30q-19 -19 -31 -46t-12 -59q0 -33 12 -60t31 -46q20 -19 45 -30q24 -10 56 -10q29 0 57 11t47 30q20 20 32 47t12 60q0 32 -12 59q-13 29 -31 47q-19 19 -47 30t-57 11z" />
    <glyph glyph-name="glyph373" 
d="M687 700l-173 -243h103v-91h-170l-23 -33h193v-92h-202v-241h-138v241h-198v92h189l-23 33h-166v91h101l-172 243h156l144 -201q23 -33 26 -36q12 -15 13 -15h1q1 0 13 15q3 3 26 36l143 201h157z" />
    <glyph glyph-name="glyph374" 
d="M545 226l132 -34l-2 -3q-39 -95 -118 -150q-77 -54 -192 -54q-55 0 -108 17q-51 18 -93 51q-41 32 -72 80q-30 47 -45 105h-47v92h34v17v17h-34v91h47q15 59 45 105q31 48 72 80q42 33 93 51t110 18q108 0 182 -49q75 -50 117 -135l-135 -34q-26 44 -69 68q-44 24 -98 24
q-57 0 -105 -30q-47 -30 -70 -96h196v-91h-212v-17v-17h211v-92h-194q22 -64 69 -94t104 -30q58 0 108 29t74 81z" />
    <glyph glyph-name="glyph375" 
d="M602 594h-123l1 -1q7 -7 15 -23q7 -14 11 -26h96v-103h-86q-9 -75 -59 -127t-129 -68l184 -246h-160l-179 243v103h85q46 0 74 27t36 68h-246v103h229q-15 22 -39 36q-25 14 -54 14h-135v106h479v-106z" />
    <glyph glyph-name="glyph414" horiz-adv-x="258" 
d="M129 424q-28 0 -48 20t-20 48t20 48t48 20t48 -20t20 -48t-20 -48t-48 -20zM129 127q-28 0 -48 20t-20 48t20 48t48 20t48 -20t20 -48t-20 -48t-48 -20z" />
    <glyph glyph-name="glyph415" horiz-adv-x="275" 
d="M142 419q-28 0 -48 20t-20 48t20 48t48 20t48 -20t20 -48t-20 -48t-48 -20zM129 125l13 4l-16 -1q-20 2 -36 18q-17 17 -17 45q0 29 21 48q22 20 50 20t48 -21q20 -22 20 -56q0 -22 -8 -48q-8 -24 -21 -48q-13 -22 -32 -45t-39 -38h-52q12 9 24 24q13 16 23 32
q9 14 16 35q6 18 6 31z" />
    <glyph glyph-name="glyph470" horiz-adv-x="784" 
d="M504 -2q6 0 6 5q0 6 -6 6t-6 -6q0 -5 6 -5zM570 24q0 -16 12 -16q11 0 11 16q0 17 -11 17q-12 0 -12 -17zM660 -1v39l-11 -38h-10l-11 38v-39h-15l4 52h19l8 -34l9 34h19l2 -52h-14zM446 -1l-13 52h15l7 -36l6 36h15l6 -36l7 36h14l-13 -52h-16l-6 34l-7 -34h-15zM427 19
h-19v-10h21v-10h-36v52h36v-11h-21v-10h19v-11zM385 51v-52h-15v52h15zM332 -1l-17 52h16l9 -39l10 39h15l-17 -52h-16zM278 51v-20h18v20h14v-52h-14v20h-18v-20h-15v52h15zM231 40h-14v11h41v-11h-14v-41h-13v41zM165 -1v52h18l16 -32v32h13v-52h-15l-19 34v-34h-13z
M129 -1v19l-17 33h17l7 -23l8 23h16l-17 -33v-19h-14zM613 22l-4 2q0 -14 -7 -21q-8 -6 -19 -6q-13 0 -20 7q-6 8 -6 18q0 13 7 20q8 8 21 8t21 -8q7 -7 7 -20zM562 49l-4 -12l-4 -1q-3 3 -9 3t-10 -4t-4 -12q0 -16 15 -16q6 0 9 3l3 -11q-8 -2 -14 -2q-14 0 -21 7
q-6 8 -6 18q0 14 9 21q10 8 21 8q9 0 15 -2zM116 49l-3 -12v-1q-2 2 -4 3q-4 2 -7 2q-7 0 -7 -4q0 -2 11 -7q14 -5 14 -15q0 -7 -6 -12q-5 -4 -19 -4q-8 0 -16 2l4 12q1 -1 5 -3q2 -1 8 -1q7 0 7 5q0 3 -9 6q-15 4 -15 15q0 7 6 12q7 5 16 5q11 0 15 -3zM302 175l89 79
l86 -79q13 -2 54 -4q37 -1 81 -3q-2 42 -3 78t-3 51l-81 91l81 89q2 17 3 54q1 33 3 80q-37 -1 -79 -3q-37 -1 -52 -3l-91 -81l-88 81q-15 2 -52 3q-38 2 -81 3q1 -43 3 -81q1 -37 3 -52l79 -89l-79 -89q-1 -16 -3 -54q-2 -42 -3 -79q47 2 80 3q35 1 53 5zM701 82h-44v-2
q-77 0 -120 3t-66 6q-21 3 -30 8q-7 5 -12 9l-27 23l-13 10l-11 -10l-27 -23q-5 -4 -12 -9q-9 -5 -30 -8q-28 -4 -66 -5q-58 -2 -118 -2h-43v43q0 62 2 120q1 38 5 66q3 21 8 30q5 7 9 12l24 27l10 12l-10 11l-24 27q-4 4 -9 12q-4 6 -7 30q-4 28 -5 66q-2 58 -2 119v44h43
q76 0 120 -3t66 -6q24 -3 30 -7q8 -5 12 -9l20 -19l18 -16l17 16l20 17q5 4 12 9t30 9t66 6q58 2 120 2h44v-44q0 -76 -3 -120t-6 -66q-3 -21 -8 -30q-4 -8 -9 -12l-22 -26l-11 -12l11 -13l25 -29q1 -2 3.5 -6t3.5 -6q4 -6 7 -30q3 -23 6 -64q3 -42 3 -115v-45z" />
  </font>
</defs>
</svg>
